<?xml version="1.0" standalone="no"?>
<!DOCTYPE svg PUBLIC "-//W3C//DTD SVG 1.1//EN" "http://www.w3.org/Graphics/SVG/1.1/DTD/svg11.dtd" >
<svg xmlns="http://www.w3.org/2000/svg" xmlns:xlink="http://www.w3.org/1999/xlink" version="1.1">
<metadata>
Created by FontForge 20190801 at Wed Nov 21 15:06:34 2018
 By Jimmy Wärting
Copyright 2018 IBM Corp. All rights reserved.
</metadata>
<defs>
<font id="IBMPlexSans-BoldItalic" horiz-adv-x="0" >
  <font-face 
    font-family="IBM Plex Sans"
    font-weight="700"
    font-style="italic"
    font-stretch="normal"
    units-per-em="1000"
    panose-1="2 11 8 3 5 2 3 0 2 3"
    ascent="780"
    descent="-220"
    x-height="525"
    cap-height="698"
    bbox="-292 -275 1278 1148"
    underline-thickness="100"
    underline-position="-116"
    slope="-11"
    unicode-range="U+000D-FB02"
  />
<missing-glyph horiz-adv-x="472" 
d="M32 0v780h408v-780h-408zM132 100h208v580h-208v-580z" />
    <glyph glyph-name="fi" unicode="fi" horiz-adv-x="633" 
d="M86 525h69l13 65q16 74 59 112t117 38h84l-24 -112h-89l-20 -103h315l-81 -413h59l-22 -112h-97q-38 0 -62 21.5t-24 56.5q0 8 1 15.5t2 11.5l62 308h-175l-92 -463q-15 -76 -63 -113t-121 -37h-84l24 112h97l99 501h-69zM553 584q-37 0 -53.5 15.5t-16.5 39.5q0 5 1 12
t5 26q6 31 28.5 51.5t65.5 20.5q37 0 53.5 -15.5t16.5 -39.5q0 -5 -1 -12.5t-5 -25.5q-8 -31 -29.5 -51.5t-64.5 -20.5z" />
    <glyph glyph-name=".notdef" horiz-adv-x="472" 
d="M32 0v780h408v-780h-408zM132 100h208v580h-208v-580z" />
    <glyph glyph-name=".null" 
 />
    <glyph glyph-name=".null" 
 />
    <glyph glyph-name="uni000D" unicode="&#xd;" horiz-adv-x="236" 
 />
    <glyph glyph-name="space" unicode=" " horiz-adv-x="236" 
 />
    <glyph glyph-name="a" unicode="a" horiz-adv-x="591" 
d="M430 0q-38 0 -63 20t-25 57q0 8 1 17t2 13l3 15h-6q-31 -64 -70 -99t-101 -35q-37 0 -63.5 13.5t-43.5 38t-25 58t-8 72.5q0 84 19.5 151.5t52.5 115.5t77.5 74t94.5 26q55 0 90.5 -30t40.5 -73h5l18 91h140l-83 -413h59l-22 -112h-93zM240 103q27 0 49 14t38 34
q17 20 29.5 47.5t18.5 56.5l16 80q8 37 -15 62t-67 25q-91 0 -115 -117l-14 -70q-2 -11 -4 -28t-2 -29q0 -35 17.5 -55t48.5 -20z" />
    <glyph glyph-name="a.alt01" horiz-adv-x="561" 
d="M170 -12q-71 0 -108 37t-37 100q0 85 64.5 131.5t179.5 46.5h91l4 22q3 18 3 30q0 35 -19.5 52.5t-61.5 17.5q-23 0 -41.5 -5.5t-33 -14.5t-26 -21.5t-21.5 -26.5l-82 79q37 47 90.5 74t131.5 27q99 0 151.5 -43.5t52.5 -123.5q0 -10 -1 -23t-4 -28l-41 -207h52l-22 -112
h-74q-38 0 -63 20t-25 57v15h-6q-23 -56 -62 -80t-92 -24zM230 89q34 0 63.5 17t37.5 54l12 62h-80q-39 0 -60 -14t-28 -43q-3 -13 -3.5 -20.5t-0.5 -10.5q0 -23 16.5 -34t42.5 -11z" />
    <glyph glyph-name="b" unicode="b" horiz-adv-x="583" 
d="M162 740h140l-67 -337h6q31 64 70 99t101 35q37 0 63.5 -13.5t43.5 -38t25 -58t8 -72.5q0 -84 -19.5 -151.5t-52.5 -115.5t-77.5 -74t-94.5 -26q-55 0 -90.5 30t-40.5 73h-5l-18 -91h-140zM274 103q91 0 115 117l14 70q2 11 4 28t2 29q0 35 -17.5 55t-48.5 20
q-27 0 -49 -14t-38 -34q-17 -20 -29.5 -47.5t-18.5 -56.5l-16 -80q-8 -40 15 -63.5t67 -23.5z" />
    <glyph glyph-name="c" unicode="c" horiz-adv-x="494" 
d="M237 -12q-43 0 -80.5 12.5t-65.5 40t-44 70.5t-16 104q0 70 21 129t58.5 102t88.5 67t111 24q37 0 69.5 -9.5t57 -27.5t40.5 -43t21 -56l-118 -45q-9 31 -24.5 49.5t-53.5 18.5q-87 0 -109 -110l-18 -89q-5 -23 -5 -42q0 -37 18.5 -59.5t60.5 -22.5q20 0 35 6t26.5 17
t21.5 26t21 34l107 -50q-35 -73 -91.5 -109.5t-131.5 -36.5z" />
    <glyph glyph-name="d" unicode="d" horiz-adv-x="591" 
d="M430 0q-38 0 -63 20t-25 57q0 8 1 17t2 13l3 15h-6q-31 -64 -70 -99t-101 -35q-37 0 -63.5 13.5t-43.5 38t-25 58t-8 72.5q0 84 19.5 151.5t52.5 115.5t77.5 74t94.5 26q55 0 90.5 -30t40.5 -73h5l61 306h140l-126 -628h59l-22 -112h-93zM240 103q27 0 49 14t38 34
q17 20 29.5 47.5t18.5 56.5l16 80q8 40 -15 63.5t-67 23.5q-91 0 -115 -117l-14 -70q-2 -11 -4 -28t-2 -29q0 -35 17.5 -55t48.5 -20z" />
    <glyph glyph-name="e" unicode="e" horiz-adv-x="515" 
d="M253 -12q-112 0 -167 60.5t-55 165.5q0 63 20 121.5t57 103t90 71.5t118 27q30 0 63 -7t60.5 -23.5t46 -44.5t18.5 -71q0 -41 -19 -73.5t-59 -56t-103 -37t-151 -16.5q-2 -9 -2 -14v-9q0 -38 20.5 -61t72.5 -23q34 0 63.5 14.5t64.5 58.5l86 -68q-49 -65 -102.5 -91.5
t-121.5 -26.5zM308 430q-45 0 -76.5 -29.5t-40.5 -80.5l-4 -23q56 3 91.5 10t55.5 17.5t27 23.5t7 29q0 17 -6 27.5t-15 16t-19.5 7.5t-19.5 2z" />
    <glyph glyph-name="f" unicode="f" horiz-adv-x="353" 
d="M181 -50q-30 -150 -192 -150h-76l24 112h96l100 501h-69l22 112h69l13 65q30 150 192 150h76l-24 -112h-96l-20 -103h102l-22 -112h-103z" />
    <glyph glyph-name="g" unicode="g" horiz-adv-x="535" 
d="M497 -22q0 -34 -13.5 -68t-48 -61t-93 -44t-149.5 -17q-66 0 -109 9t-68.5 25t-35.5 37t-10 45t9 42t24.5 31t36.5 21.5t45 14.5v7q-29 6 -44 26.5t-15 49.5q0 22 9.5 39.5t25.5 31t37 22t43 13.5l1 7q-37 19 -56.5 52t-19.5 79q0 36 14 71.5t44 63.5t76 45t111 17
q26 0 48 -3.5t42 -9.5l5 23q8 41 30 59.5t58 18.5h79l-22 -108h-107l-3 -13q31 -20 47.5 -50.5t16.5 -72.5q0 -36 -14 -71.5t-44 -63.5t-76.5 -45t-110.5 -17q-47 0 -81 10q-17 -7 -27.5 -20t-10.5 -29q0 -33 53 -33h129q174 0 174 -134zM357 -52q0 21 -15 32t-56 11h-173
q-15 -11 -21 -26.5t-6 -28.5q0 -24 20 -38t70 -14h65q66 0 91 19t25 45zM272 280q42 0 65 18.5t30 53.5q3 15 3.5 22t0.5 11q0 56 -73 56q-42 0 -65 -18.5t-30 -53.5q-3 -15 -3.5 -22t-0.5 -11q0 -56 73 -56z" />
    <glyph glyph-name="g.alt01" horiz-adv-x="582" 
d="M173 2q-37 0 -63.5 13.5t-43.5 38t-25 58t-8 72.5q0 84 19 149.5t51.5 110.5t76.5 69t94 24q55 0 90.5 -30t40.5 -73h5l18 91h140l-101 -506q-11 -55 -30.5 -98t-50 -72.5t-75 -45t-104.5 -15.5q-66 0 -119.5 21t-91.5 73l89 81q19 -29 49.5 -46t68.5 -17q52 0 82.5 32.5
t42.5 93.5l22 110h-6q-31 -64 -70 -99t-101 -35zM242 117q27 0 49 14t38 34q17 20 29.5 47.5t18.5 56.5l13 66q3 16 -0.5 31.5t-13.5 28t-27 20t-41 7.5q-91 0 -115 -117l-11 -56q-2 -11 -4 -28t-2 -29q0 -35 17.5 -55t48.5 -20z" />
    <glyph glyph-name="g.alt02" horiz-adv-x="540" 
d="M497 -22q0 -34 -13.5 -68t-48 -61t-93 -44t-149.5 -17q-66 0 -109 9t-68.5 25t-35.5 37t-10 45t9 42t24.5 31t36.5 21.5t45 14.5v7q-29 6 -44 26.5t-15 49.5q0 22 9.5 39.5t25.5 31t37 22t43 13.5l1 7q-37 19 -56.5 52t-19.5 79q0 36 14 71.5t44 63.5t76 45t111 17
q23 0 44 -3.5t39 -8.5h185l-19 -98h-65q10 -20 10 -46q0 -36 -14 -71.5t-44 -63.5t-76.5 -45t-110.5 -17q-47 0 -81 10q-17 -7 -27.5 -20t-10.5 -29q0 -33 53 -33h129q174 0 174 -134zM272 280q42 0 65 18.5t30 53.5q3 15 3.5 22t0.5 11q0 56 -73 56q-42 0 -65 -18.5
t-30 -53.5q-3 -15 -3.5 -22t-0.5 -11q0 -56 73 -56zM357 -52q0 21 -15 32t-56 11h-173q-15 -11 -21 -26.5t-6 -28.5q0 -24 20 -38t70 -14h65q66 0 91 19t25 45z" />
    <glyph glyph-name="h" unicode="h" horiz-adv-x="588" 
d="M162 740h140l-67 -337h6q30 63 71 98.5t103 35.5q61 0 93.5 -35.5t32.5 -100.5q0 -19 -2.5 -36.5t-6.5 -37.5l-43 -215h53l-22 -112h-91q-40 0 -62 20.5t-22 55.5q0 9 1 16.5t2 11.5l41 208q3 14 5 27.5t2 28.5q0 23 -12 37.5t-41 14.5q-26 0 -47 -14t-38 -34
q-18 -21 -31 -46.5t-19 -55.5l-54 -270h-140z" />
    <glyph glyph-name="i" unicode="i" horiz-adv-x="281" 
d="M202 583q-37 0 -54.5 14t-17.5 38q0 9 2 20t4 20q3 13 9 26t17 23t28 16.5t42 6.5q37 0 54.5 -14t17.5 -38q0 -9 -2 -20t-4 -20q-3 -13 -9 -26t-17 -23t-28 -16.5t-42 -6.5zM122 0q-41 0 -65.5 22t-24.5 58q0 10 3 25l84 420h140l-83 -413h59l-22 -112h-91z" />
    <glyph glyph-name="j" unicode="j" horiz-adv-x="276" 
d="M123 525h140l-119 -586q-14 -69 -51.5 -104t-110.5 -35h-79l22 112h75zM206 583q-37 0 -54.5 14t-17.5 38q0 9 2 20t4 20q3 13 9 26t17 23t28 16.5t42 6.5q37 0 54.5 -14t17.5 -38q0 -9 -2 -20t-4 -20q-3 -13 -9 -26t-17 -23t-28 -16.5t-42 -6.5z" />
    <glyph glyph-name="k" unicode="k" horiz-adv-x="550" 
d="M162 740h140l-87 -435h7l72 90l126 130h163l-213 -213l72 -200h61l-24 -112h-75q-74 0 -99 79l-44 137l-79 -74l-28 -142h-140z" />
    <glyph glyph-name="l" unicode="l" horiz-adv-x="281" 
d="M122 0q-41 0 -65.5 22t-24.5 58q0 10 3 25l127 635h140l-126 -628h62l-22 -112h-94z" />
    <glyph glyph-name="m" unicode="m" horiz-adv-x="877" 
d="M14 0l105 525h140l-24 -122h6q29 62 69 98t100 36q59 0 90 -35.5t32 -98.5h5q29 59 70 96.5t104 37.5q58 0 88.5 -35.5t30.5 -97.5q0 -23 -3.5 -45.5t-8.5 -45.5l-40 -201h53l-22 -112h-91q-40 0 -62 20.5t-22 55.5q0 9 1 16.5t2 11.5l41 208q3 14 5.5 28t2.5 27
q0 24 -10.5 38.5t-33.5 14.5t-44 -13.5t-38 -33.5t-30 -48t-18 -55l-54 -270h-140l62 312q3 14 5 28t2 26q0 25 -10.5 39.5t-36.5 14.5t-46.5 -13.5t-37.5 -34.5q-36 -44 -48 -102l-54 -270h-140z" />
    <glyph glyph-name="n" unicode="n" horiz-adv-x="588" 
d="M14 0l105 525h140l-24 -122h6q30 63 71 98.5t103 35.5q61 0 93.5 -35.5t32.5 -100.5q0 -19 -2.5 -36.5t-6.5 -37.5l-43 -215h53l-22 -112h-91q-40 0 -62 20.5t-22 55.5q0 9 1 16.5t2 11.5l41 208q3 14 5 27.5t2 28.5q0 23 -12 37.5t-41 14.5q-26 0 -47 -14t-38 -34
q-18 -21 -31 -46.5t-19 -55.5l-54 -270h-140z" />
    <glyph glyph-name="o" unicode="o" horiz-adv-x="542" 
d="M240 -12q-97 0 -153 57.5t-56 161.5q0 71 20.5 131.5t56.5 104.5t85.5 69t108.5 25q97 0 153 -57.5t56 -161.5q0 -71 -20.5 -131.5t-56.5 -104.5t-86 -69t-108 -25zM245 101q82 0 105 115l19 94q1 5 2 13t1 18q0 38 -19 60.5t-56 22.5q-82 0 -105 -115l-19 -94
q-1 -5 -2 -13t-1 -18q0 -38 19 -60.5t56 -22.5z" />
    <glyph glyph-name="p" unicode="p" horiz-adv-x="583" 
d="M119 525h140l-24 -122h6q31 64 70 99t101 35q37 0 63.5 -13.5t43.5 -38t25 -58t8 -72.5q0 -84 -19.5 -151.5t-52.5 -115.5t-77.5 -74t-94.5 -26q-55 0 -90.5 30t-40.5 73h-5l-58 -291h-140zM274 103q91 0 115 117l14 70q2 11 4 28t2 29q0 35 -17.5 55t-48.5 20
q-27 0 -49 -14t-38 -34q-17 -20 -29.5 -47.5t-18.5 -56.5l-16 -80q-8 -40 15 -63.5t67 -23.5z" />
    <glyph glyph-name="q" unicode="q" horiz-adv-x="583" 
d="M348 122h-6q-31 -64 -70 -99t-101 -35q-37 0 -63.5 13.5t-43.5 38t-25 58t-8 72.5q0 84 19.5 151.5t52.5 115.5t77.5 74t94.5 26q55 0 90.5 -30t40.5 -73h5l18 91h140l-145 -725h-140zM240 103q27 0 49 14t38 34q17 20 29.5 47.5t18.5 56.5l16 80q8 40 -15 63.5t-67 23.5
q-91 0 -115 -117l-14 -70q-2 -11 -4 -28t-2 -29q0 -35 17.5 -55t48.5 -20z" />
    <glyph glyph-name="r" unicode="r" horiz-adv-x="394" 
d="M14 0l105 525h140l-26 -131h7q8 21 22.5 44.5t34 42.5t45 31.5t55.5 12.5h25l-28 -136h-35q-67 0 -102 -24.5t-48 -88.5l-55 -276h-140z" />
    <glyph glyph-name="s" unicode="s" horiz-adv-x="497" 
d="M213 -12q-66 0 -121 23t-90 69l88 82q22 -29 51.5 -45.5t74.5 -16.5q49 0 69.5 17.5t20.5 40.5q0 15 -10.5 27t-38.5 16l-53 7q-68 9 -104 43.5t-36 97.5q0 37 13 71t40 60t68 41.5t97 15.5q61 0 110.5 -20.5t84.5 -62.5l-88 -82q-19 24 -48.5 38.5t-64.5 14.5
t-55.5 -15.5t-20.5 -39.5q0 -15 10.5 -27t38.5 -16l53 -7q68 -9 104 -43.5t36 -96.5q0 -38 -14.5 -73t-43.5 -61.5t-72 -42t-99 -15.5z" />
    <glyph glyph-name="t" unicode="t" horiz-adv-x="354" 
d="M182 0q-123 0 -123 99q0 8 1 20t3 23l54 271h-74l22 112h36q32 0 43 13t16 40l18 89h130l-28 -142h105l-23 -112h-105l-60 -301h95l-22 -112h-88z" />
    <glyph glyph-name="u" unicode="u" horiz-adv-x="582" 
d="M254 525l-62 -312q-3 -14 -5 -28t-2 -25q0 -26 11.5 -40.5t37.5 -14.5t46.5 13.5t37.5 34.5q36 44 48 102l54 270h140l-83 -413h59l-22 -112h-93q-38 0 -63 20t-25 57q0 8 1 17t2 13l3 15h-6q-29 -62 -69 -98t-100 -36t-92 35.5t-32 100.5q0 20 2.5 38t6.5 38l65 325h140
z" />
    <glyph glyph-name="v" unicode="v" horiz-adv-x="512" 
d="M111 0l-65 525h139l17 -198l15 -202h7l88 202l93 198h149l-273 -525h-170z" />
    <glyph glyph-name="w" unicode="w" horiz-adv-x="791" 
d="M54 525h139l7 -190l3 -178h6l65 152l98 216h130l14 -190l11 -185h6l62 159l90 216h138l-240 -525h-147l-15 175l-13 174h-6l-68 -151l-91 -198h-149z" />
    <glyph glyph-name="x" unicode="x" horiz-adv-x="518" 
d="M-51 0l228 274l-112 251h151l62 -175h6l130 175h153l-229 -273l115 -252h-151l-64 172h-6l-130 -172h-153z" />
    <glyph glyph-name="y" unicode="y" horiz-adv-x="509" 
d="M408 525h149l-322 -610q-15 -29 -32 -50.5t-39 -36t-50 -21.5t-65 -7h-78l23 112h97l28 58l-74 555h139l20 -198l16 -196h6l88 196z" />
    <glyph glyph-name="z" unicode="z" horiz-adv-x="492" 
d="M-11 0l22 112l306 301h-241l22 112h409l-22 -112l-307 -301h258l-22 -112h-425z" />
    <glyph glyph-name="A" unicode="A" horiz-adv-x="658" 
d="M441 0l-16 170h-223l-82 -170h-155l359 698h185l79 -698h-147zM394 567h-8l-127 -276h156z" />
    <glyph glyph-name="B" unicode="B" horiz-adv-x="651" 
d="M162 698h298q38 0 70 -8.5t55 -26.5t36 -45t13 -63q0 -69 -33.5 -121.5t-102.5 -71.5l-1 -5q55 -15 79.5 -50.5t24.5 -84.5q0 -50 -15 -90.5t-45.5 -70t-75.5 -45.5t-105 -16h-338zM360 124q70 0 83 65q5 26 7 38t2 19q0 20 -13 32.5t-42 12.5h-171l-33 -167h167z
M391 410q35 0 55.5 14t27.5 48q5 26 7 37t2 18q0 21 -13 34t-41 13h-146l-33 -164h141z" />
    <glyph glyph-name="C" unicode="C" horiz-adv-x="635" 
d="M306 -12q-56 0 -101.5 18t-78.5 53.5t-51 88.5t-18 124q0 92 27.5 172t75.5 139t113.5 93t141.5 34q94 0 152.5 -44.5t83.5 -125.5l-129 -54q-6 20 -15 37.5t-22.5 30t-33 20t-47.5 7.5q-70 0 -113.5 -48t-59.5 -127l-22 -110q-3 -15 -4 -27.5t-1 -22.5q0 -129 115 -129
q59 0 94.5 29t58.5 75l121 -55q-47 -91 -121.5 -134.5t-165.5 -43.5z" />
    <glyph glyph-name="D" unicode="D" horiz-adv-x="682" 
d="M162 698h224q125 0 196.5 -66t71.5 -195q0 -93 -24 -173t-70.5 -138.5t-115 -92t-156.5 -33.5h-266zM300 128q68 0 116 41t65 127l19 94q4 19 5.5 36t1.5 26q0 63 -30.5 90.5t-81.5 27.5h-113l-89 -442h107z" />
    <glyph glyph-name="E" unicode="E" horiz-adv-x="578" 
d="M22 0l140 698h449l-26 -128h-303l-31 -153h268l-26 -128h-268l-32 -161h314l-26 -128h-459z" />
    <glyph glyph-name="F" unicode="F" horiz-adv-x="557" 
d="M22 0l140 698h437l-26 -128h-292l-31 -153h257l-26 -128h-257l-57 -289h-145z" />
    <glyph glyph-name="G" unicode="G" horiz-adv-x="700" 
d="M482 111h-8q-26 -51 -73 -87t-118 -36q-50 0 -91.5 17.5t-71.5 52.5t-46.5 87.5t-16.5 122.5q0 94 26.5 175t75 140.5t116 93t150.5 33.5q46 0 87 -10.5t73.5 -31.5t56 -52t35.5 -71l-121 -64q-12 49 -48.5 74.5t-90.5 25.5q-81 0 -125.5 -46.5t-60.5 -127.5l-22 -110
q-6 -30 -6 -56q0 -33 9 -56.5t25 -38.5t37 -22t44 -7q32 0 60.5 8.5t51 24t37.5 36t20 44.5l7 34h-126l24 122h264l-77 -386h-119z" />
    <glyph glyph-name="H" unicode="H" horiz-adv-x="700" 
d="M485 289h-260l-58 -289h-145l140 698h145l-56 -281h260l56 281h145l-140 -698h-145z" />
    <glyph glyph-name="I" unicode="I" horiz-adv-x="415" 
d="M-4 0l24 118h86l93 462h-86l23 118h318l-24 -118h-86l-93 -462h86l-23 -118h-318z" />
    <glyph glyph-name="J" unicode="J" horiz-adv-x="536" 
d="M549 698l-102 -508q-18 -91 -75.5 -146t-156.5 -55q-51 0 -88.5 15t-63.5 41t-40 60.5t-18 74.5l139 28q4 -42 18.5 -67.5t52.5 -25.5q31 0 55.5 21t34.5 69l75 375h-203l24 118h348z" />
    <glyph glyph-name="K" unicode="K" horiz-adv-x="657" 
d="M319 299l-116 -120l-36 -179h-145l140 698h145l-67 -334h7l110 131l188 203h176l-288 -300l163 -398h-160z" />
    <glyph glyph-name="L" unicode="L" horiz-adv-x="510" 
d="M22 0l140 698h145l-114 -570h256l-26 -128h-401z" />
    <glyph glyph-name="M" unicode="M" horiz-adv-x="801" 
d="M628 461h-6l-96 -134l-155 -212l-74 227l-39 121h-5l-93 -463h-138l140 698h152l101 -332h4l233 332h161l-140 -698h-138z" />
    <glyph glyph-name="N" unicode="N" horiz-adv-x="700" 
d="M302 336l-42 139h-6l-95 -475h-137l140 698h157l113 -336l42 -139h6l95 475h137l-140 -698h-157z" />
    <glyph glyph-name="O" unicode="O" horiz-adv-x="695" 
d="M308 -12q-50 0 -95.5 16.5t-80 51t-55 88t-20.5 127.5q0 90 27 170t75 140t114 94.5t144 34.5q50 0 95.5 -16.5t80 -51t55 -88t20.5 -127.5q0 -90 -27 -170t-75 -140t-114 -94.5t-144 -34.5zM318 117q70 0 115 47t62 132l21 105q3 16 4 28.5t1 23.5q0 128 -114 128
q-70 0 -115 -47t-62 -132l-21 -105q-3 -15 -4 -28t-1 -24q0 -128 114 -128z" />
    <glyph glyph-name="P" unicode="P" horiz-adv-x="637" 
d="M22 0l140 698h263q105 0 162.5 -49t57.5 -138q0 -57 -20 -104.5t-56 -81t-86 -52t-109 -18.5h-156l-51 -255h-145zM244 383h149q34 0 58.5 18t32.5 55q5 23 8 37.5t3 22.5q0 23 -15.5 38.5t-48.5 15.5h-150z" />
    <glyph glyph-name="Q" unicode="Q" horiz-adv-x="695" 
d="M438 -183h-110q-60 0 -84 23.5t-24 66.5q0 13 2 26t5 27l8 38q-38 10 -70.5 31t-56.5 55t-37.5 80.5t-13.5 106.5q0 90 27 170t75 140t114 94.5t144 34.5q50 0 95.5 -16.5t80 -51t55 -88t20.5 -127.5q0 -83 -22.5 -157t-63 -132t-97.5 -96t-125 -49l-11 -58h111zM318 117
q70 0 115 47t62 132l21 105q3 16 4 28.5t1 23.5q0 128 -114 128q-70 0 -115 -47t-62 -132l-21 -105q-3 -16 -4 -28.5t-1 -23.5q0 -128 114 -128z" />
    <glyph glyph-name="R" unicode="R" horiz-adv-x="655" 
d="M167 0h-145l140 698h272q100 0 155.5 -47t55.5 -133q0 -39 -11 -76.5t-33 -70t-53.5 -57t-73.5 -38.5l84 -276h-155l-69 259h-115zM393 383q34 0 58.5 18t32.5 55q5 23 8 37.5t3 22.5q0 23 -15.5 38.5t-48.5 15.5h-150l-37 -187h149z" />
    <glyph glyph-name="S" unicode="S" horiz-adv-x="586" 
d="M255 -12q-87 0 -154.5 28t-105.5 96l111 87q26 -42 60.5 -62t88.5 -20q63 0 98 28t35 72q0 32 -23 48t-57 24l-46 10q-38 8 -69 22.5t-53 37t-33.5 53.5t-11.5 73q0 48 19.5 89t54.5 71t85 47.5t110 17.5q78 0 140.5 -24.5t98.5 -72.5l-105 -94q-24 33 -55.5 47.5
t-84.5 14.5q-54 0 -85.5 -23t-31.5 -60q0 -30 19.5 -45t55.5 -23l44 -10q40 -9 73 -24t56 -37.5t36 -53.5t13 -72q0 -45 -19.5 -89t-56 -78.5t-89 -56t-118.5 -21.5z" />
    <glyph glyph-name="T" unicode="T" horiz-adv-x="569" 
d="M418 570l-114 -570h-145l114 570h-184l26 128h513l-26 -128h-184z" />
    <glyph glyph-name="U" unicode="U" horiz-adv-x="678" 
d="M303 698l-84 -418q-3 -14 -5 -31.5t-2 -31.5q0 -100 102 -100q60 0 95 36t51 114l87 431h143l-85 -423q-15 -74 -38.5 -128t-59.5 -89t-85 -52.5t-114 -17.5q-115 0 -175.5 57t-60.5 169q0 20 2 41.5t7 47.5l79 395h143z" />
    <glyph glyph-name="V" unicode="V" horiz-adv-x="631" 
d="M181 0l-82 698h146l25 -269l18 -275h7l113 251l143 293h154l-361 -698h-163z" />
    <glyph glyph-name="W" unicode="W" horiz-adv-x="941" 
d="M130 0l-14 698h143l-4 -279l-11 -275h10l97 257l126 297h159l7 -282l-7 -282h10l87 250l118 314h146l-291 -698h-168l-8 291v245h-9l-89 -224l-130 -312h-172z" />
    <glyph glyph-name="X" unicode="X" horiz-adv-x="641" 
d="M571 0h-157l-99 243h-8l-179 -243h-168l290 369l-146 329h156l95 -230h8l175 230h168l-287 -351z" />
    <glyph glyph-name="Y" unicode="Y" horiz-adv-x="624" 
d="M185 0l54 271l-148 427h148l94 -294h7l201 294h160l-319 -440l-52 -258h-145z" />
    <glyph glyph-name="Z" unicode="Z" horiz-adv-x="573" 
d="M486 0h-497l26 128l410 442h-306l26 128h478l-26 -128l-410 -442h325z" />
    <glyph glyph-name="zero" unicode="0" horiz-adv-x="600" 
d="M262 -12q-66 0 -108 23.5t-65.5 61t-32.5 82.5t-9 89q0 89 21 173t61 149t99 104.5t136 39.5q66 0 108 -23.5t65.5 -61t32.5 -83t9 -88.5q0 -89 -21 -173t-61 -149t-99.5 -104.5t-135.5 -39.5zM275 106q29 0 50 13t36 37t25.5 57.5t18.5 73.5l25 124q4 20 6 37.5t2 34.5
q0 51 -19.5 80t-67.5 29q-29 0 -50 -13t-36 -37t-25.5 -57.5t-18.5 -73.5l-25 -124q-4 -20 -6 -37.5t-2 -34.5q0 -51 19.5 -80t67.5 -29z" />
    <glyph glyph-name="zero.alt01" horiz-adv-x="600" 
d="M262 -12q-66 0 -108 23.5t-65.5 61t-32.5 82.5t-9 89q0 89 21 173t61 149t99 104.5t136 39.5q66 0 108 -23.5t65.5 -61t32.5 -83t9 -88.5q0 -89 -21 -173t-61 -149t-99.5 -104.5t-135.5 -39.5zM275 106q30 0 51 13t36.5 37t26 57.5t18.5 73.5l25 124q4 20 6 37.5t2 34.5
q0 51 -20.5 80t-68.5 29q-30 0 -51 -13t-36.5 -37t-26 -57.5t-18.5 -73.5l-25 -124q-4 -20 -6 -37.5t-2 -34.5q0 -51 20.5 -80t68.5 -29zM302 284q-29 0 -41 13.5t-12 28.5q0 6 1.5 15t3.5 17q5 23 22 37.5t46 14.5t41 -13.5t12 -28.5q0 -6 -1.5 -15t-3.5 -17
q-4 -23 -21.5 -37.5t-46.5 -14.5z" />
    <glyph glyph-name="zero.alt02" horiz-adv-x="600" 
d="M262 -12q-66 0 -108 23.5t-65.5 61t-32.5 82.5t-9 89q0 89 21 173t61 149t99 104.5t136 39.5q66 0 108 -23.5t65.5 -61t32.5 -83t9 -88.5q0 -89 -21 -173t-61 -149t-99.5 -104.5t-135.5 -39.5zM351 594q-30 0 -51.5 -13.5t-36.5 -37.5t-25.5 -58t-18.5 -74l-21 -102
l-1 -5l240 218q-6 34 -27 53t-59 19zM275 104q30 0 51.5 13.5t36.5 37.5t25.5 57.5t18.5 74.5l21 102l1 5l-240 -218q6 -34 27 -53t59 -19z" />
    <glyph glyph-name="one" unicode="1" horiz-adv-x="600" 
d="M57 0l23 118h180l93 471h-9l-175 -186l-85 75l207 220h226l-116 -580h144l-23 -118h-465z" />
    <glyph glyph-name="two" unicode="2" horiz-adv-x="600" 
d="M488 0h-476l27 134l250 185q32 24 54.5 44.5t37.5 40t23.5 37.5t12.5 37q3 15 3 27q0 36 -23 58t-60 22q-45 0 -74.5 -30t-45.5 -70l-122 49q17 37 40.5 69.5t54.5 56t70.5 37t88.5 13.5q52 0 93 -14t70 -39.5t44.5 -61t15.5 -78.5q0 -45 -15 -82t-42.5 -70.5t-67.5 -66
t-90 -68.5l-152 -109h307z" />
    <glyph glyph-name="three" unicode="3" horiz-adv-x="600" 
d="M296 421q55 0 84.5 20.5t35.5 50.5q2 8 3 15t1 13q0 33 -23 52t-63 19t-74.5 -18.5t-66.5 -63.5l-80 90q23 25 48 45.5t54.5 35t64.5 22.5t79 8q49 0 88.5 -12t67.5 -33.5t43 -51.5t15 -67q0 -70 -43.5 -116t-118.5 -63l-1 -5q53 -10 82 -48t29 -98q0 -49 -18.5 -91
t-53.5 -72.5t-87 -47.5t-118 -17q-51 0 -88.5 11t-64.5 29.5t-45 42.5t-29 50l105 75q15 -40 45 -65t86 -25q50 0 80 23.5t38 65.5q2 8 2 13.5v12.5q0 37 -24.5 58t-69.5 21h-72l24 121h65z" />
    <glyph glyph-name="four" unicode="4" horiz-adv-x="600" 
d="M289 0l27 134h-305l25 127l356 437h172l-91 -452h86l-23 -112h-85l-27 -134h-135zM154 246h184l58 288h-11z" />
    <glyph glyph-name="five" unicode="5" horiz-adv-x="600" 
d="M564 572h-308l-57 -226h9q29 52 65 80.5t98 28.5q79 0 126.5 -49.5t47.5 -143.5q0 -52 -19 -101t-56 -87.5t-91 -62t-124 -23.5q-54 0 -93 11t-66.5 30t-45 43.5t-28.5 50.5l116 74q12 -39 42.5 -64.5t81.5 -25.5q54 0 84 30t39 75q2 11 3.5 20.5t1.5 20.5q0 40 -24 62
t-66 22q-39 0 -66 -15.5t-44 -34.5l-113 16l102 395h410z" />
    <glyph glyph-name="six" unicode="6" horiz-adv-x="600" 
d="M264 -12q-105 0 -162 63.5t-57 171.5q0 77 28 148t73.5 131.5t104 110.5t119.5 85h207q-69 -43 -127 -82.5t-103.5 -81t-79 -87t-52.5 -100.5l8 -3q13 20 27.5 39t33.5 33.5t43.5 23.5t56.5 9q39 0 69.5 -14t52 -39t33 -60.5t11.5 -78.5q0 -53 -19.5 -102t-56.5 -86
t-90 -59t-120 -22zM277 102q50 0 79.5 27.5t39.5 76.5q2 11 3.5 21.5t1.5 21.5q0 41 -22 64.5t-67 23.5q-51 0 -80 -27.5t-39 -76.5q-2 -11 -3.5 -21.5t-1.5 -21.5q0 -41 22 -64.5t67 -23.5z" />
    <glyph glyph-name="seven" unicode="7" horiz-adv-x="600" 
d="M112 0l347 579h-220l-25 -127h-121l49 246h484l-25 -126l-335 -572h-154z" />
    <glyph glyph-name="eight" unicode="8" horiz-adv-x="600" 
d="M257 -12q-115 0 -170.5 49.5t-55.5 127.5q0 75 45 127t122 69l1 7q-41 17 -62.5 51.5t-21.5 85.5q0 38 16 75t48 66t81 46.5t115 17.5q52 0 91 -12t64.5 -33t38 -50.5t12.5 -64.5q0 -65 -40 -111.5t-104 -70.5l-1 -8q48 -15 74.5 -51t26.5 -99q0 -42 -18.5 -81.5
t-54.5 -71t-88 -50.5t-119 -19zM267 100q49 0 79 24t38 66q2 11 3 18.5t1 17.5q0 36 -22.5 56.5t-66.5 20.5q-49 0 -79 -24t-38 -66q-2 -11 -3 -18.5t-1 -17.5q0 -36 22.5 -56.5t66.5 -20.5zM328 411q48 0 74.5 23.5t33.5 57.5q2 11 4 21.5t2 17.5q0 30 -21 48.5t-64 18.5
q-48 0 -74.5 -23.5t-33.5 -57.5q-2 -11 -4 -21.5t-2 -17.5q0 -30 21 -48.5t64 -18.5z" />
    <glyph glyph-name="nine" unicode="9" horiz-adv-x="600" 
d="M584 475q0 -77 -28 -148t-73.5 -131.5t-104 -110.5t-119.5 -85h-207q69 43 127 82.5t103.5 81t78.5 87t53 100.5l-8 3q-13 -20 -27.5 -39t-33.5 -33.5t-43.5 -23.5t-56.5 -9q-39 0 -69.5 14t-52 39t-33 60.5t-11.5 78.5q0 53 19.5 102t56.5 86t90 59t120 22
q105 0 162 -63.5t57 -171.5zM317 361q51 0 80 27.5t39 76.5q2 11 3.5 21.5t1.5 21.5q0 41 -22 64.5t-67 23.5q-50 0 -79.5 -27.5t-39.5 -76.5q-2 -11 -3.5 -21.5t-1.5 -21.5q0 -41 22 -64.5t67 -23.5z" />
    <glyph glyph-name="ampersand" unicode="&#x26;" horiz-adv-x="704" 
d="M435 57q-35 -29 -83.5 -49t-115.5 -20q-51 0 -89.5 13t-64 35.5t-38.5 53.5t-13 68q0 43 13 75.5t36 58.5t55.5 47t70.5 41q-19 28 -35.5 63t-16.5 73q0 44 17 79.5t48 61t72.5 39.5t91.5 14q40 0 73 -9.5t57 -28.5t37.5 -47t13.5 -64t-14.5 -65t-39 -53t-56.5 -44
t-67 -38l83 -117q17 31 28.5 67t19.5 74h173l-24 -120h-79q-17 -62 -51 -115l106 -150h-167zM363 602q-25 0 -43 -14t-23 -37q-2 -5 -2.5 -13.5t-0.5 -15.5q0 -18 8.5 -36.5t27.5 -44.5q47 25 70 48t23 59q0 25 -16.5 39.5t-43.5 14.5zM272 107q59 0 106 31l-116 163
q-32 -17 -54 -38t-29 -54q-3 -12 -3 -27q0 -75 96 -75z" />
    <glyph glyph-name="at" unicode="@" horiz-adv-x="891" 
d="M384 -121q-75 0 -135.5 24.5t-102.5 68t-64.5 104.5t-22.5 135q0 26 2.5 52.5t8.5 56.5q17 86 57.5 157.5t99 123t134 80t162.5 28.5q68 0 128 -22t104.5 -62.5t70 -99.5t25.5 -132q0 -39 -8 -79q-10 -49 -31.5 -91t-51 -73.5t-66 -49.5t-76.5 -18q-54 0 -83 22.5
t-29 59.5v11h-5q-6 -18 -17 -34t-26 -29t-34 -20.5t-41 -7.5q-62 0 -96.5 37.5t-34.5 111.5q0 32 7 66q10 49 28.5 86.5t43.5 62.5t54 37.5t59 12.5q45 0 67 -19t30 -48h4l12 58h110l-52 -262q-3 -17 -3 -26q0 -33 31 -33q32 0 60 34.5t44 113.5l6 30q3 15 4.5 31.5
t1.5 30.5q0 51 -19 91.5t-52.5 68t-79.5 42t-99 14.5q-63 0 -119 -21t-100 -59.5t-74.5 -92t-43.5 -119.5l-8 -40q-5 -23 -7.5 -43t-2.5 -40q0 -57 17.5 -102t49.5 -77t77.5 -49t102.5 -17h189l-17 -85h-189zM424 174q16 0 30 7t25.5 17.5t19 23t9.5 23.5l20 100
q5 27 -13.5 45t-50.5 18q-35 0 -55 -23t-28 -61l-14 -70q-2 -8 -2 -12v-9q0 -59 59 -59z" />
    <glyph glyph-name="hyphen" unicode="-" horiz-adv-x="395" 
d="M45 238l27 134h295l-27 -134h-295z" />
    <glyph glyph-name="uni00AD" unicode="&#xad;" horiz-adv-x="395" 
d="M45 238l27 134h295l-27 -134h-295z" />
    <glyph glyph-name="endash" unicode="&#x2013;" horiz-adv-x="583" 
d="M32 246l23 115h511l-23 -115h-511z" />
    <glyph glyph-name="emdash" unicode="&#x2014;" horiz-adv-x="773" 
d="M32 246l23 115h701l-23 -115h-701z" />
    <glyph glyph-name="underscore" unicode="_" horiz-adv-x="548" 
d="M-62 -187l23 119h493l-23 -119h-493z" />
    <glyph glyph-name="period" unicode="." horiz-adv-x="307" 
d="M102 -11q-42 0 -59 19t-17 41q0 8 2.5 21.5t4.5 24.5q6 33 30.5 53.5t66.5 20.5t59 -19t17 -41q0 -8 -2.5 -21.5t-4.5 -24.5q-6 -33 -30.5 -53.5t-66.5 -20.5z" />
    <glyph glyph-name="ellipsis" unicode="&#x2026;" horiz-adv-x="889" 
d="M102 -11q-42 0 -59 19t-17 41q0 8 2.5 21.5t4.5 24.5q6 33 30.5 53.5t66.5 20.5t59 -19t17 -41q0 -8 -2.5 -21.5t-4.5 -24.5q-6 -33 -30.5 -53.5t-66.5 -20.5zM393 -11q-42 0 -59 19t-17 41q0 8 2.5 21.5t4.5 24.5q6 33 30.5 53.5t66.5 20.5t59 -19t17 -41
q0 -8 -2.5 -21.5t-4.5 -24.5q-6 -33 -30.5 -53.5t-66.5 -20.5zM684 -11q-42 0 -59 19t-17 41q0 8 2.5 21.5t4.5 24.5q6 33 30.5 53.5t66.5 20.5t59 -19t17 -41q0 -8 -2.5 -21.5t-4.5 -24.5q-6 -33 -30.5 -53.5t-66.5 -20.5z" />
    <glyph glyph-name="colon" unicode=":" horiz-adv-x="327" 
d="M112 -11q-42 0 -59 19t-17 41q0 8 2.5 21.5t4.5 24.5q6 33 30.5 53.5t66.5 20.5t59 -19t17 -41q0 -8 -2.5 -21.5t-4.5 -24.5q-6 -33 -30.5 -53.5t-66.5 -20.5zM187 356q-42 0 -59 19t-17 41q0 8 2.5 21.5t4.5 24.5q6 33 30.5 53.5t66.5 20.5t59 -19t17 -41
q0 -8 -2.5 -21.5t-4.5 -24.5q-6 -33 -30.5 -53.5t-66.5 -20.5z" />
    <glyph glyph-name="comma" unicode="," horiz-adv-x="307" 
d="M133 169q43 0 60 -20t17 -46q0 -8 -2 -20.5t-4 -23.5q-11 -53 -47.5 -109.5t-93.5 -96.5h-106q42 33 73.5 66t51.5 73q-28 6 -39.5 22.5t-11.5 34.5q0 8 2.5 21.5t4.5 24.5q7 34 30.5 54t64.5 20z" />
    <glyph glyph-name="semicolon" unicode=";" horiz-adv-x="327" 
d="M143 169q43 0 60 -20t17 -46q0 -8 -2 -20.5t-4 -23.5q-11 -53 -47.5 -109.5t-93.5 -96.5h-106q42 33 73.5 66t51.5 73q-28 6 -39.5 22.5t-11.5 34.5q0 8 2.5 21.5t4.5 24.5q7 34 30.5 54t64.5 20zM187 356q-42 0 -59 19t-17 41q0 8 2.5 21.5t4.5 24.5q6 33 30.5 53.5
t66.5 20.5t59 -19t17 -41q0 -8 -2.5 -21.5t-4.5 -24.5q-6 -33 -30.5 -53.5t-66.5 -20.5z" />
    <glyph glyph-name="uni037E" unicode="&#x37e;" horiz-adv-x="327" 
d="M143 169q43 0 60 -20t17 -46q0 -8 -2 -20.5t-4 -23.5q-11 -53 -47.5 -109.5t-93.5 -96.5h-106q42 33 73.5 66t51.5 73q-28 6 -39.5 22.5t-11.5 34.5q0 8 2.5 21.5t4.5 24.5q7 34 30.5 54t64.5 20zM185 357q-42 0 -59 19t-17 41q0 8 2.5 21.5t4.5 24.5q6 33 30.5 53.5
t66.5 20.5t59 -19t17 -41q0 -8 -2.5 -21.5t-4.5 -24.5q-6 -33 -30.5 -53.5t-66.5 -20.5z" />
    <glyph glyph-name="quotesingle" unicode="'" horiz-adv-x="263" 
d="M96 414l65 326h132l-65 -326h-132z" />
    <glyph glyph-name="quotedbl" unicode="&#x22;" horiz-adv-x="488" 
d="M96 414l65 326h132l-65 -326h-132zM321 414l65 326h132l-65 -326h-132z" />
    <glyph glyph-name="uni2032" unicode="&#x2032;" horiz-adv-x="263" 
d="M48 346l133 352h136l-133 -352h-136z" />
    <glyph glyph-name="uni2033" unicode="&#x2033;" horiz-adv-x="488" 
d="M48 346l133 352h136l-133 -352h-136zM273 346l133 352h136l-133 -352h-136z" />
    <glyph glyph-name="quoteleft" unicode="&#x2018;" horiz-adv-x="286" 
d="M172 440q-42 0 -58.5 19.5t-16.5 41.5q0 9 2 20.5t4 22.5q4 22 16.5 48.5t31 52.5t42.5 50.5t51 44.5h99q-42 -32 -70 -62t-49 -68q28 -6 39.5 -22t11.5 -33q0 -8 -2.5 -20.5t-4.5 -23.5q-6 -30 -30 -50.5t-66 -20.5z" />
    <glyph glyph-name="quoteright" unicode="&#x2019;" horiz-adv-x="286" 
d="M237 750q42 0 58.5 -19.5t16.5 -41.5q0 -9 -2 -20.5t-4 -22.5q-5 -23 -17 -49t-30.5 -52t-42.5 -51t-51 -44h-99q42 32 70 62t49 68q-28 6 -39.5 22t-11.5 33q0 8 2.5 20.5t4.5 23.5q6 30 30 50.5t66 20.5z" />
    <glyph glyph-name="quotedblleft" unicode="&#x201c;" horiz-adv-x="520" 
d="M172 440q-42 0 -58.5 19.5t-16.5 41.5q0 9 2 20.5t4 22.5q4 22 16.5 48.5t31 52.5t42.5 50.5t51 44.5h99q-42 -32 -70 -62t-49 -68q28 -6 39.5 -22t11.5 -33q0 -8 -2.5 -20.5t-4.5 -23.5q-6 -30 -30 -50.5t-66 -20.5zM406 440q-42 0 -58.5 19.5t-16.5 41.5q0 9 2 20.5
t4 22.5q4 22 16.5 48.5t31 52.5t42.5 50.5t51 44.5h99q-42 -32 -70 -62t-49 -68q28 -6 39.5 -22t11.5 -33q0 -8 -2.5 -20.5t-4.5 -23.5q-6 -30 -30 -50.5t-66 -20.5z" />
    <glyph glyph-name="quotedblright" unicode="&#x201d;" horiz-adv-x="520" 
d="M237 750q42 0 58.5 -19.5t16.5 -41.5q0 -9 -2 -20.5t-4 -22.5q-5 -23 -17 -49t-30.5 -52t-42.5 -51t-51 -44h-99q42 32 70 62t49 68q-28 6 -39.5 22t-11.5 33q0 8 2.5 20.5t4.5 23.5q6 30 30 50.5t66 20.5zM471 750q42 0 58.5 -19.5t16.5 -41.5q0 -9 -2 -20.5t-4 -22.5
q-5 -23 -17 -49t-30.5 -52t-42.5 -51t-51 -44h-99q42 32 70 62t49 68q-28 6 -39.5 22t-11.5 33q0 8 2.5 20.5t4.5 23.5q6 30 30 50.5t66 20.5z" />
    <glyph glyph-name="quotesinglbase" unicode="&#x201a;" horiz-adv-x="286" 
d="M126 183q42 0 58.5 -19.5t16.5 -41.5q0 -9 -2 -20.5t-4 -22.5q-5 -23 -17 -49t-30.5 -52t-42.5 -51t-51 -44h-99q42 32 70 62t49 68q-28 6 -39.5 22t-11.5 33q0 8 2.5 20.5t4.5 23.5q6 30 30 50.5t66 20.5z" />
    <glyph glyph-name="quotedblbase" unicode="&#x201e;" horiz-adv-x="520" 
d="M126 183q42 0 58.5 -19.5t16.5 -41.5q0 -9 -2 -20.5t-4 -22.5q-5 -23 -17 -49t-30.5 -52t-42.5 -51t-51 -44h-99q42 32 70 62t49 68q-28 6 -39.5 22t-11.5 33q0 8 2.5 20.5t4.5 23.5q6 30 30 50.5t66 20.5zM360 183q42 0 58.5 -19.5t16.5 -41.5q0 -9 -2 -20.5t-4 -22.5
q-5 -23 -17 -49t-30.5 -52t-42.5 -51t-51 -44h-99q42 32 70 62t49 68q-28 6 -39.5 22t-11.5 33q0 8 2.5 20.5t4.5 23.5q6 30 30 50.5t66 20.5z" />
    <glyph glyph-name="guilsinglleft" unicode="&#x2039;" horiz-adv-x="312" 
d="M190 49l-156 160l26 128l203 157l41 -93l-151 -138l94 -131z" />
    <glyph glyph-name="guilsinglright" unicode="&#x203a;" horiz-adv-x="312" 
d="M11 143l151 138l-94 131l57 83l156 -160l-26 -128l-203 -157z" />
    <glyph glyph-name="guillemotleft" unicode="&#xab;" horiz-adv-x="562" 
d="M190 49l-156 160l26 128l203 157l41 -93l-151 -138l94 -131zM440 49l-156 160l26 128l203 157l41 -93l-151 -138l94 -131z" />
    <glyph glyph-name="guillemotright" unicode="&#xbb;" horiz-adv-x="562" 
d="M261 143l151 138l-94 131l57 83l156 -160l-26 -128l-203 -157zM11 143l151 138l-94 131l57 83l156 -160l-26 -128l-203 -157z" />
    <glyph glyph-name="exclamdown" unicode="&#xa1;" horiz-adv-x="314" 
d="M-9 -173l39 194l102 284h63l-9 -284l-39 -194h-156zM175 361q-42 0 -59.5 16.5t-17.5 41.5q0 5 0.5 12.5t5.5 29.5q7 35 31.5 55.5t69.5 20.5q42 0 59.5 -16.5t17.5 -41.5q0 -5 -0.5 -12.5t-5.5 -29.5q-7 -35 -31.5 -55.5t-69.5 -20.5z" />
    <glyph glyph-name="exclam" unicode="!" horiz-adv-x="314" 
d="M119 220l11 284l38 194h152l-38 -194l-101 -284h-62zM104 -12q-42 0 -59.5 16.5t-17.5 41.5q0 5 0.5 12.5t5.5 29.5q7 35 31.5 55.5t69.5 20.5q42 0 59.5 -16.5t17.5 -41.5q0 -5 -0.5 -12.5t-5.5 -29.5q-7 -35 -31.5 -55.5t-69.5 -20.5z" />
    <glyph glyph-name="questiondown" unicode="&#xbf;" horiz-adv-x="490" 
d="M185 -185q-96 0 -149.5 45.5t-53.5 122.5q0 42 16 80t44 69t66.5 53t82.5 31l17 76h137l-32 -153q-81 -8 -123.5 -33t-53.5 -69q-2 -7 -3.5 -16.5t-1.5 -19.5q0 -33 22 -48.5t52 -15.5q40 0 67.5 24.5t43.5 64.5l114 -51q-17 -36 -39.5 -65.5t-52.5 -50.5t-68 -32.5
t-85 -11.5zM288 361q-42 0 -59.5 16.5t-17.5 41.5q0 5 0.5 12.5t5.5 29.5q7 35 31.5 55.5t69.5 20.5q42 0 59.5 -16.5t17.5 -41.5q0 -5 -0.5 -12.5t-5.5 -29.5q-7 -35 -31.5 -55.5t-69.5 -20.5z" />
    <glyph glyph-name="question" unicode="?" horiz-adv-x="490" 
d="M149 233l32 153q81 8 123.5 33t53.5 69q2 7 3.5 16.5t1.5 19.5q0 33 -22 48.5t-52 15.5q-40 0 -67.5 -24.5t-43.5 -64.5l-114 51q16 36 39 65.5t53 50.5t68 32.5t85 11.5q96 0 149.5 -45.5t53.5 -122.5q0 -42 -16 -80t-44 -69t-66.5 -53t-82.5 -31l-17 -76h-137zM175 -12
q-42 0 -59.5 16.5t-17.5 41.5q0 5 0.5 12.5t5.5 29.5q7 35 31.5 55.5t69.5 20.5q42 0 59.5 -16.5t17.5 -41.5q0 -5 -0.5 -12.5t-5.5 -29.5q-7 -35 -31.5 -55.5t-69.5 -20.5z" />
    <glyph glyph-name="parenleft" unicode="(" horiz-adv-x="353" 
d="M62 222q0 87 24 167.5t64.5 149.5t93.5 125.5t111 95.5h151q-53 -38 -101 -82.5t-87 -94t-66.5 -104t-39.5 -112.5l-20 -100q-3 -15 -3.5 -25.5t-0.5 -19.5q0 -112 38.5 -201t101.5 -158h-133q-27 30 -51 69t-42 85.5t-29 98t-11 106.5z" />
    <glyph glyph-name="parenright" unicode=")" horiz-adv-x="353" 
d="M316 401q0 -87 -24 -167.5t-64.5 -149.5t-93.5 -125.5t-111 -95.5h-151q53 38 101 82.5t87 94t66.5 104t39.5 112.5l20 100q3 15 3.5 25.5t0.5 19.5q0 112 -38.5 201t-101.5 158h133q27 -30 51 -69t42 -85.5t29 -98t11 -106.5z" />
    <glyph glyph-name="bracketleft" unicode="[" horiz-adv-x="323" 
d="M-5 -138l180 898h217l-19 -97h-90l-142 -704h91l-19 -97h-218z" />
    <glyph glyph-name="bracketright" unicode="]" horiz-adv-x="323" 
d="M347 760l-180 -898h-217l19 97h90l142 704h-91l19 97h218z" />
    <glyph glyph-name="braceleft" unicode="{" horiz-adv-x="361" 
d="M138 -138q-36 0 -58.5 19.5t-22.5 55.5q0 14 2 24l38 190q3 15 3 30q0 74 -77 74l23 113q45 0 74 21.5t38 66.5l41 205q10 49 39 74t71 25h117l-21 -104h-77l-44 -220q-5 -23 -14 -44t-24.5 -38.5t-37.5 -28.5t-52 -12v-4q34 -7 57.5 -32.5t23.5 -65.5q0 -7 -1 -14.5
t-3 -15.5l-43 -215h77l-21 -104h-108z" />
    <glyph glyph-name="braceright" unicode="}" horiz-adv-x="361" 
d="M-26 -34h77l44 220q4 22 13.5 43.5t25 39t37.5 28t52 12.5v4q-34 7 -57.5 32.5t-23.5 65.5q0 7 1 14.5t3 15.5l43 215h-77l21 104h108q36 0 58.5 -19.5t22.5 -55.5q0 -14 -2 -24l-38 -190q-3 -15 -3 -30q0 -74 77 -74l-23 -113q-45 0 -74 -21.5t-38 -66.5l-41 -205
q-10 -49 -39 -74t-71 -25h-117z" />
    <glyph glyph-name="slash" unicode="/" horiz-adv-x="479" 
d="M-73 -151l474 891h128l-474 -891h-128z" />
    <glyph glyph-name="backslash" unicode="\" horiz-adv-x="479" 
d="M265 -151l-117 891h114l117 -891h-114z" />
    <glyph glyph-name="fraction" unicode="&#x2044;" horiz-adv-x="148" 
d="M-292 0l657 698h114l-657 -698h-114z" />
    <glyph glyph-name="percent" unicode="%" horiz-adv-x="939" 
d="M144 0l564 698h124l-564 -698h-124zM247 314q-71 0 -113 40t-42 121q0 54 17 97.5t45.5 74t65 47t75.5 16.5q71 0 113 -40t42 -121q0 -54 -17 -97.5t-45.5 -74t-65 -47t-75.5 -16.5zM253 398q26 0 40 21.5t23 66.5l10 50q5 25 5 40q0 24 -11 37t-31 13q-26 0 -40 -21.5
t-23 -66.5l-10 -50q-5 -25 -5 -40q0 -24 11 -37t31 -13zM681 -12q-71 0 -113 40t-42 121q0 54 17 97.5t45.5 74t65 47t75.5 16.5q71 0 113 -40t42 -121q0 -54 -17 -97.5t-45.5 -74t-65 -47t-75.5 -16.5zM687 72q26 0 40 21.5t23 66.5l10 50q5 25 5 40q0 24 -11 37t-31 13
q-26 0 -40 -21.5t-23 -66.5l-10 -50q-5 -25 -5 -40q0 -24 11 -37t31 -13z" />
    <glyph glyph-name="perthousand" unicode="&#x2030;" horiz-adv-x="1333" 
d="M144 0l564 698h124l-564 -698h-124zM247 314q-71 0 -113 40t-42 121q0 54 17 97.5t45.5 74t65 47t75.5 16.5q71 0 113 -40t42 -121q0 -54 -17 -97.5t-45.5 -74t-65 -47t-75.5 -16.5zM253 398q26 0 40 21.5t23 66.5l10 50q5 25 5 40q0 24 -11 37t-31 13q-26 0 -40 -21.5
t-23 -66.5l-10 -50q-5 -25 -5 -40q0 -24 11 -37t31 -13zM681 -12q-71 0 -113 40t-42 121q0 54 17 97.5t45.5 74t65 47t75.5 16.5q71 0 113 -40t42 -121q0 -54 -17 -97.5t-45.5 -74t-65 -47t-75.5 -16.5zM687 72q26 0 40 21.5t23 66.5l10 50q5 25 5 40q0 24 -11 37t-31 13
q-26 0 -40 -21.5t-23 -66.5l-10 -50q-5 -25 -5 -40q0 -24 11 -37t31 -13zM1075 -10q-71 0 -113 40t-42 121q0 54 17 97.5t45.5 74t65 47t75.5 16.5q71 0 113 -40t42 -121q0 -54 -17 -97.5t-45.5 -74t-65 -47t-75.5 -16.5zM1081 74q26 0 40 21.5t23 66.5l10 50q5 25 5 40
q0 24 -11 37t-31 13q-26 0 -40 -21.5t-23 -66.5l-10 -50q-5 -25 -5 -40q0 -24 11 -37t31 -13z" />
    <glyph glyph-name="bar" unicode="|" horiz-adv-x="395" 
d="M54 -138l180 898h126l-180 -898h-126z" />
    <glyph glyph-name="brokenbar" unicode="&#xa6;" horiz-adv-x="395" 
d="M162 401l72 359h126l-72 -359h-126zM54 -138l72 359h126l-72 -359h-126z" />
    <glyph glyph-name="section" unicode="&#xa7;" horiz-adv-x="557" 
d="M435 38q0 -44 -16.5 -80.5t-46.5 -63t-72 -41t-92 -14.5q-57 0 -109.5 17.5t-85.5 57.5l82 82q20 -26 50 -40.5t76 -14.5q38 0 63.5 21.5t25.5 52.5q0 28 -17.5 42t-52.5 25l-69 21q-63 20 -90.5 55.5t-27.5 77.5q0 52 30.5 93t98.5 63l2 10q-29 23 -42 50.5t-13 61.5
q0 43 16.5 79.5t46.5 62t72 40t92 14.5q57 0 109 -18t86 -59l-82 -80q-20 26 -50 40.5t-76 14.5q-38 0 -63.5 -20t-25.5 -49q0 -26 17.5 -40.5t52.5 -25.5l69 -21q63 -20 90.5 -56t27.5 -78q0 -52 -30 -93.5t-99 -62.5l-2 -10q29 -23 42 -51t13 -63zM390 270q0 24 -14.5 44
t-49.5 32l-69 20q-11 4 -19 6.5t-14 6.5q-29 -22 -39.5 -45.5t-10.5 -49.5q0 -24 14.5 -44t49.5 -32l69 -20q11 -4 19 -6.5t14 -6.5q29 22 39.5 45.5t10.5 49.5z" />
    <glyph glyph-name="paragraph" unicode="&#xb6;" horiz-adv-x="646" 
d="M225 263q-34 0 -63.5 15t-51 41t-34 60.5t-12.5 73.5q0 49 18.5 93t53 78t83 54t108.5 20h346l-21 -104h-60l-149 -743h-103l149 743h-95l-149 -743h-103z" />
    <glyph glyph-name="copyright" unicode="&#xa9;" horiz-adv-x="771" 
d="M349 -12q-66 0 -119.5 22.5t-91.5 62.5t-59 96t-21 124q0 90 30 166t82.5 132t125 87.5t156.5 31.5q66 0 119.5 -22.5t91.5 -62.5t59 -96.5t21 -123.5q0 -90 -30 -166t-82.5 -132t-125 -87.5t-156.5 -31.5zM353 51q56 0 106.5 19.5t91 52.5t68 78t37.5 96q7 32 11 60.5
t4 47.5q0 55 -16.5 100t-46 76.5t-70.5 48.5t-90 17q-56 0 -106.5 -19.5t-91 -52.5t-68 -78t-37.5 -96q-7 -32 -11 -60.5t-4 -47.5q0 -56 16.5 -100.5t46 -76t70.5 -48.5t90 -17zM382 134q-40 0 -73 13t-56 36t-36 56t-13 74q0 49 17 94.5t47.5 80t71.5 55.5t89 21
q75 0 112.5 -32t53.5 -82l-99 -44q-6 26 -21.5 41.5t-44.5 15.5q-34 0 -54 -19.5t-26 -49.5l-15 -77q-2 -8 -2 -13.5v-11.5q0 -26 16.5 -42t48.5 -16q28 0 47.5 16.5t34.5 39.5l90 -46q-13 -22 -30.5 -42t-40.5 -35t-52 -24t-65 -9z" />
    <glyph glyph-name="registered" unicode="&#xae;" horiz-adv-x="453" 
d="M246 298q-41 0 -74 13t-56 36t-36 54.5t-13 69.5q0 53 18.5 97t50 75.5t73.5 49t89 17.5q40 0 73.5 -13t56.5 -36t36 -54.5t13 -69.5q0 -53 -18.5 -97t-50 -75.5t-73.5 -49t-89 -17.5zM252 342q28 0 55.5 9.5t50 27t38.5 42.5t22 57q6 30 7.5 43t1.5 21q0 60 -38 92
t-97 32q-29 0 -56 -9.5t-49.5 -27t-38.5 -42.5t-22 -57q-6 -30 -7.5 -43t-1.5 -21q0 -60 38 -92t97 -32zM230 400h-62l42 209h89q41 0 59 -18.5t18 -47.5q0 -21 -14 -41.5t-41 -28.5l28 -73h-64l-24 63h-19zM277 506q28 0 33 23q2 10 2 13q0 21 -25 21h-25l-11 -57h26z" />
    <glyph glyph-name="trademark" unicode="&#x2122;" horiz-adv-x="603" 
d="M118 409l46 229h-68l12 60h210l-12 -60h-65l-46 -229h-77zM293 409l58 289h81l37 -110h6l75 110h88l-58 -289h-71l19 97l28 93h-4l-105 -138l-49 138h-4l-9 -92l-20 -98h-72z" />
    <glyph glyph-name="ordfeminine" unicode="&#xaa;" horiz-adv-x="444" 
d="M415 330h-59q-29 0 -44.5 14t-15.5 40v10h-4q-16 -34 -44.5 -52t-66.5 -18q-42 0 -72.5 24.5t-30.5 71.5q0 58 43 91t129 33h65l4 20q2 8 2.5 11t0.5 8q0 46 -55 46q-31 0 -50 -13t-38 -33l-57 48q26 32 63.5 52.5t96.5 20.5q63 0 104 -26.5t41 -79.5q0 -14 -3 -29
l-33 -165h39zM247 489q-57 0 -66 -44q-2 -8 -2 -13.5v-7.5q0 -16 13 -24.5t33 -8.5q26 0 45.5 14.5t24.5 40.5l9 43h-57z" />
    <glyph glyph-name="ordmasculine" unicode="&#xba;" horiz-adv-x="427" 
d="M235 324q-68 0 -109.5 42.5t-41.5 118.5q0 13 1.5 26t3.5 25q7 35 24 66t43.5 53.5t60.5 35.5t76 13q68 0 109.5 -42.5t41.5 -118.5q0 -13 -1.5 -26t-3.5 -25q-7 -35 -24 -66t-43.5 -53.5t-60.5 -35.5t-76 -13zM245 401q32 0 54 22t30 64l12 61q2 8 2 12.5v8.5
q0 28 -17 43t-43 15q-32 0 -54 -22t-30 -64l-12 -61q-2 -8 -2 -12.5v-8.5q0 -28 17 -43t43 -15z" />
    <glyph glyph-name="degree" unicode="&#xb0;" horiz-adv-x="459" 
d="M263 334q-37 0 -68 13t-53 36t-34 54.5t-12 67.5q0 44 16 81.5t44 65t65.5 43t79.5 15.5q37 0 68 -13t53 -36t34 -54.5t12 -67.5q0 -44 -16 -81.5t-44 -65t-65.5 -43t-79.5 -15.5zM273 426q42 0 68 32.5t26 79.5q0 34 -20.5 57t-55.5 23q-42 0 -68 -32.5t-26 -79.5
q0 -34 20.5 -57t55.5 -23z" />
    <glyph glyph-name="asterisk" unicode="*" horiz-adv-x="595" 
d="M187 239l-92 81l147 142l-157 54l51 115l158 -71l29 187h130l-43 -185l165 66l32 -112l-185 -60l88 -151l-108 -66l-76 160z" />
    <glyph glyph-name="dagger" unicode="&#x2020;" horiz-adv-x="509" 
d="M100 -200l122 609h-173l21 106h173l45 225h123l-45 -225h169l-21 -106h-169l-122 -609h-123z" />
    <glyph glyph-name="daggerdbl" unicode="&#x2021;" horiz-adv-x="531" 
d="M111 -200l45 225h-170l21 106h170l56 278h-173l21 106h173l45 225h123l-45 -225h169l-21 -106h-169l-56 -278h171l-21 -106h-171l-45 -225h-123z" />
    <glyph glyph-name="numbersign" unicode="#" horiz-adv-x="640" 
d="M348 174h-157l-65 -174h-90l65 174h-108l18 88h123l65 174h-109l18 88h123l65 174h90l-65 -174h157l65 174h90l-65 -174h108l-18 -88h-123l-65 -174h109l-18 -88h-123l-65 -174h-90zM380 262l65 174h-156l-65 -174h156z" />
    <glyph glyph-name="asciicircum" unicode="^" horiz-adv-x="600" 
d="M466 280l-102 271h-11l-199 -271l-105 63l264 355h131l140 -373z" />
    <glyph glyph-name="asciitilde" unicode="~" horiz-adv-x="600" 
d="M400 211q-41 0 -66 11.5t-53 27.5q-25 14 -48.5 24t-53.5 10q-23 0 -41 -7t-42 -22l-37 87q21 23 55.5 40.5t85.5 17.5q21 0 36.5 -3t29 -8.5t26.5 -12.5t27 -15q25 -14 48.5 -24t53.5 -10q23 0 41 7t42 22l37 -87q-21 -23 -55.5 -40.5t-85.5 -17.5z" />
    <glyph glyph-name="plus" unicode="+" horiz-adv-x="600" 
d="M196 63l37 185h-169l23 116h169l36 185h126l-37 -185h169l-23 -116h-169l-36 -185h-126z" />
    <glyph glyph-name="minus" unicode="&#x2212;" horiz-adv-x="600" 
d="M64 248l23 116h463l-23 -116h-463z" />
    <glyph glyph-name="plusminus" unicode="&#xb1;" horiz-adv-x="600" 
d="M221 184l33 167h-169l23 116h169l33 167h125l-33 -167h169l-23 -116h-169l-33 -167h-125zM16 0l23 116h463l-23 -116h-463z" />
    <glyph glyph-name="multiply" unicode="&#xd7;" horiz-adv-x="600" 
d="M302 220l-167 -144l-75 87l171 148l-112 143l96 80l110 -144l167 144l75 -87l-171 -148l112 -143l-96 -80z" />
    <glyph glyph-name="divide" unicode="&#xf7;" horiz-adv-x="600" 
d="M66 248l23 116h463l-23 -116h-463zM258 30q-42 0 -59 15t-17 35q0 8 2 21.5t4 22.5q7 29 28.5 47.5t66.5 18.5q42 0 59 -15t17 -35q0 -8 -2 -21.5t-4 -22.5q-7 -29 -28.5 -47.5t-66.5 -18.5zM335 422q-42 0 -59 15t-17 35q0 8 2 21.5t4 22.5q7 29 28.5 47.5t66.5 18.5
q42 0 59 -15t17 -35q0 -8 -2 -21.5t-4 -22.5q-7 -29 -28.5 -47.5t-66.5 -18.5z" />
    <glyph glyph-name="equal" unicode="=" horiz-adv-x="600" 
d="M89 363l23 116h463l-23 -116h-463zM43 132l23 116h463l-23 -116h-463z" />
    <glyph glyph-name="approxequal" unicode="&#x2248;" horiz-adv-x="600" 
d="M418 326q-41 0 -66 11.5t-53 27.5q-25 14 -48.5 24t-53.5 10q-23 0 -41 -7t-42 -22l-37 87q21 23 55.5 40.5t85.5 17.5q21 0 36.5 -3t29 -8.5t26.5 -12.5t27 -15q25 -14 48.5 -24t53.5 -10q23 0 41 7t42 22l37 -87q-21 -23 -55.5 -40.5t-85.5 -17.5zM383 97
q-41 0 -66 11.5t-53 27.5q-25 14 -48.5 24t-53.5 10q-23 0 -41 -7t-42 -22l-37 87q21 23 55.5 40.5t85.5 17.5q21 0 36.5 -3t29 -8.5t26.5 -12.5t27 -15q25 -14 48.5 -24t53.5 -10q23 0 41 7t42 22l37 -87q-21 -23 -55.5 -40.5t-85.5 -17.5z" />
    <glyph glyph-name="notequal" unicode="&#x2260;" horiz-adv-x="600" 
d="M52 37l69 95h-78l23 115h144l82 118h-203l23 115h260l69 95h125l-69 -95h78l-23 -115h-144l-82 -118h203l-23 -115h-260l-69 -95h-125z" />
    <glyph glyph-name="less" unicode="&#x3c;" horiz-adv-x="600" 
d="M98 258l18 87l446 258l-32 -159l-268 -149l-2 -7l208 -150l-28 -139z" />
    <glyph glyph-name="greater" unicode="&#x3e;" horiz-adv-x="600" 
d="M87 158l268 149l2 7l-208 150l28 139l342 -259l-18 -87l-446 -258z" />
    <glyph glyph-name="lessequal" unicode="&#x2264;" horiz-adv-x="600" 
d="M39 0l23 116h418l-23 -116h-418zM550 468l-284 -99l-1 -7l244 -98l-24 -121l-383 172l22 108l452 172z" />
    <glyph glyph-name="greaterequal" unicode="&#x2265;" horiz-adv-x="600" 
d="M94 270l284 99l1 7l-244 98l24 121l383 -172l-22 -108l-452 -172zM63 116h418l-23 -116h-418z" />
    <glyph glyph-name="periodcentered" unicode="&#xb7;" horiz-adv-x="350" 
d="M169 213q-42 0 -59 19t-17 41q0 8 2.5 21.5t4.5 24.5q6 33 30.5 53.5t66.5 20.5t59 -19t17 -41q0 -8 -2.5 -21.5t-4.5 -24.5q-6 -33 -30.5 -53.5t-66.5 -20.5z" />
    <glyph glyph-name="anoteleia" unicode="&#x387;" horiz-adv-x="327" 
d="M185 357q-42 0 -59 19t-17 41q0 8 2.5 21.5t4.5 24.5q6 33 30.5 53.5t66.5 20.5t59 -19t17 -41q0 -8 -2.5 -21.5t-4.5 -24.5q-6 -33 -30.5 -53.5t-66.5 -20.5z" />
    <glyph glyph-name="bullet" unicode="&#x2022;" horiz-adv-x="421" 
d="M198 150q-77 0 -107.5 28t-30.5 72q0 4 1.5 19.5t7.5 47.5q5 27 17 51t32.5 42t50 28t69.5 10q77 0 108 -27.5t31 -71.5q0 -14 -3.5 -31.5t-7.5 -36.5q-11 -59 -50.5 -95t-117.5 -36z" />
    <glyph glyph-name="lozenge" unicode="&#x25ca;" horiz-adv-x="599" 
d="M214 0l-140 352l255 346h83l140 -352l-255 -346h-83zM281 143l148 209l-78 203h-6l-148 -209l78 -203h6z" />
    <glyph glyph-name="logicalnot" unicode="&#xac;" horiz-adv-x="600" 
d="M358 79l34 169h-326l23 116h445l-57 -285h-119z" />
    <glyph glyph-name="radical" unicode="&#x221a;" horiz-adv-x="600" 
d="M159 0l-40 403h-76l24 122h166l18 -204l10 -217h8l93 217l180 377h126l-335 -698h-174z" />
    <glyph glyph-name="integral" unicode="&#x222b;" horiz-adv-x="443" 
d="M-35 -88h107l136 678q30 150 192 150h85l-23 -112h-107l-136 -678q-30 -150 -192 -150h-85z" />
    <glyph glyph-name="infinity" unicode="&#x221e;" horiz-adv-x="768" 
d="M174 85q-72 0 -113 42.5t-41 118.5q0 55 18.5 101t50.5 79t74 51t90 18q65 0 110 -32t63 -106h4q10 36 28 62t41.5 43t50.5 25t54 8q72 0 113 -41t41 -119q0 -56 -18.5 -102t-50.5 -79t-74 -51t-90 -18q-64 0 -109.5 32t-63.5 107h-4q-10 -36 -28 -62.5t-41.5 -43.5
t-50.5 -25t-54 -8zM210 197q41 0 72.5 25t48.5 57q-3 21 -9.5 39.5t-16.5 33t-24.5 23t-34.5 8.5q-32 0 -59 -21.5t-35 -63.5q-1 -4 -3 -15.5t-2 -20.5q0 -30 16.5 -47.5t46.5 -17.5zM532 197q32 0 59 21.5t35 64.5q1 4 3 15.5t2 20.5q0 30 -16.5 47t-46.5 17
q-41 0 -72.5 -25t-48.5 -56q3 -21 9.5 -40t16.5 -33.5t24.5 -23t34.5 -8.5z" />
    <glyph glyph-name="uni212E" unicode="&#x212e;" horiz-adv-x="714" 
d="M214 88q29 -18 64 -28.5t79 -10.5q90 0 149 41t95 108l55 -32q-20 -38 -49 -70.5t-67 -56.5t-84 -37.5t-99 -13.5q-71 0 -130.5 25.5t-103.5 72.5t-68.5 113.5t-24.5 149.5q0 82 24.5 149t68.5 114t103.5 72.5t130.5 25.5q70 0 130 -25.5t104 -72.5t68.5 -114t24.5 -149
h-470v-261zM500 407v206q-29 17 -64 28t-79 11t-79 -11t-64 -28v-206h286z" />
    <glyph glyph-name="uni2113" unicode="&#x2113;" horiz-adv-x="532" 
d="M297 -12q-36 0 -67.5 11.5t-55 33.5t-37 53.5t-13.5 72.5v18q-3 -2 -10.5 -6.5t-16 -9.5t-16.5 -9.5t-12 -7.5l-53 89q28 15 60 33t48 30v243q0 58 13 98.5t36 66t54.5 37t69.5 11.5q81 0 124.5 -47t43.5 -130q0 -91 -56 -171.5t-168 -165.5v-66q0 -38 16.5 -54.5
t45.5 -16.5q15 0 29.5 5t28 18.5t26.5 36.5t26 58l98 -42q-12 -39 -31.5 -73.5t-46.5 -60t-61 -40.5t-75 -15zM294 636q-22 0 -37.5 -17.5t-15.5 -52.5v-199q46 40 74 87t28 96v17q0 37 -14.5 53t-34.5 16z" />
    <glyph glyph-name="uni2116" unicode="&#x2116;" horiz-adv-x="1028" 
d="M857 358q-60 0 -100.5 36.5t-40.5 110.5q0 39 13.5 76t38.5 65.5t60 46t78 17.5q60 0 100.5 -37t40.5 -111q0 -39 -13.5 -76t-38.5 -65.5t-60 -45.5t-78 -17zM22 0l140 698h168l91 -336l32 -139h6l95 475h135l-140 -698h-169l-89 336l-33 139h-6l-95 -475h-135zM864 436
q26 0 43.5 18.5t24.5 52.5l10 50q3 15 3 27q0 22 -11.5 35t-34.5 13q-26 0 -43.5 -19t-24.5 -53l-10 -50q-3 -15 -3 -27q0 -22 11.5 -34.5t34.5 -12.5zM661 218l16 79h316l-16 -79h-316z" />
    <glyph glyph-name="partialdiff" unicode="&#x2202;" horiz-adv-x="571" 
d="M244 -12q-106 0 -160 58.5t-54 164.5q0 62 18 115.5t49 93t73.5 62t92.5 22.5q56 0 90.5 -29.5t48.5 -76.5h8q-9 57 -37.5 104t-64.5 84.5t-73 65.5t-62 46h196q84 -68 124.5 -152t40.5 -199q0 -75 -17.5 -140.5t-53.5 -114t-90.5 -76.5t-128.5 -28zM252 96
q47 0 74.5 30.5t36.5 78.5l13 68q2 8 3 19t1 21q0 39 -22 60t-60 21q-47 0 -74 -30.5t-36 -78.5l-13 -68q-2 -8 -3 -19t-1 -21q0 -39 21.5 -60t59.5 -21z" />
    <glyph glyph-name="currency" unicode="&#xa4;" horiz-adv-x="624" 
d="M293 108q-77 0 -127 29l-113 -94l-69 87l109 92q-12 33 -12 73q0 17 2 34.5t5 32.5q6 31 18.5 64t32.5 59l-77 95l91 74l75 -93q57 29 134 29t127 -29l113 94l69 -87l-109 -92q12 -33 12 -73q0 -17 -2 -34.5t-5 -32.5q-6 -31 -18.5 -64t-32.5 -59l77 -95l-91 -74l-75 93
q-57 -29 -134 -29zM300 213q47 0 78 29t41 79l11 56q2 8 3 17.5t1 18.5q0 32 -20.5 52t-58.5 20q-47 0 -78 -29t-41 -79l-11 -56q-2 -8 -3 -17.5t-1 -18.5q0 -32 20.5 -52t58.5 -20z" />
    <glyph glyph-name="cent" unicode="&#xa2;" horiz-adv-x="532" 
d="M182 -4q-68 18 -108.5 76.5t-40.5 149.5q0 56 17.5 107.5t50.5 92t80 68t106 35.5l21 105h110l-22 -109q51 -13 85 -45.5t46 -76.5l-108 -53q-5 22 -18.5 39.5t-35.5 26.5l-62 -309q27 9 49 28t39 42l92 -59q-33 -48 -79.5 -80t-112.5 -42l-21 -106h-110zM168 186
q0 -59 45 -80l61 304q-33 -13 -55 -40.5t-30 -66.5l-18 -90q-3 -15 -3 -27z" />
    <glyph glyph-name="Euro" unicode="&#x20ac;" horiz-adv-x="617" 
d="M301 -12q-51 0 -96 18t-78 54.5t-52 91t-19 128.5q0 98 31 177.5t81.5 135.5t114 86.5t129.5 30.5q83 0 140 -32t81 -92l-112 -70q-13 35 -39.5 55t-77.5 20t-91.5 -30t-63.5 -89h225l-18 -88h-231l-14 -70h231l-18 -88h-223q3 -56 34 -87.5t79 -31.5q28 0 50.5 8
t40.5 20.5t31.5 28t23.5 30.5l89 -78q-40 -54 -102 -91t-146 -37z" />
    <glyph glyph-name="florin" unicode="&#x192;" horiz-adv-x="472" 
d="M-32 -22h115l76 278h-98l23 114h106l50 184q18 66 65.5 105t126.5 39h102l-23 -112h-121l-58 -216h133l-23 -114h-140l-67 -247q-18 -66 -66.5 -104.5t-126.5 -38.5h-97z" />
    <glyph glyph-name="sterling" unicode="&#xa3;" horiz-adv-x="591" 
d="M30 0l27 134q48 20 75 62t27 95h-103l24 117h64q-3 22 -3 47q0 53 19 99.5t54.5 81t85 54.5t110.5 20q79 0 130.5 -30t86.5 -90l-115 -76q-20 37 -46 52.5t-67 15.5q-54 0 -84 -36.5t-30 -98.5q0 -21 3 -39h191l-24 -117h-150q-2 -31 -11.5 -56.5t-24 -45t-31.5 -33
t-33 -22.5l-2 -9h325l-25 -125h-473z" />
    <glyph glyph-name="dollar" unicode="$" horiz-adv-x="561" 
d="M173 13q-60 11 -107 36t-71 62l93 85q18 -29 50 -48t69 -27l37 183q-88 20 -129 63t-41 112q0 44 16 81t46.5 65t74 45t98.5 20l18 90h110l-20 -96q51 -10 90 -32t61 -56l-93 -82q-14 21 -37 37.5t-55 24.5l-34 -168q81 -20 124 -61t43 -111q0 -40 -14.5 -78t-44 -69
t-73.5 -52.5t-102 -27.5l-17 -91h-110zM380 213q0 23 -11.5 42t-43.5 30l-31 -165q50 10 68 36.5t18 56.5zM210 496q0 -49 58 -68l29 151q-48 -7 -67.5 -31t-19.5 -52z" />
    <glyph glyph-name="yen" unicode="&#xa5;" horiz-adv-x="626" 
d="M360 134l-27 -134h-146l26 134h-161l18 88h161l14 71h-161l18 88h105l-99 317h155l79 -272h4l184 272h168l-229 -317h105l-18 -88h-164l-14 -71h164l-18 -88h-164z" />
    <glyph glyph-name="uni0E3F" unicode="&#xe3f;" horiz-adv-x="644" 
d="M307 -90h-109l21 110h-193l132 658h193l21 102h109l-21 -102q42 -2 74.5 -13.5t54 -31.5t33 -46.5t11.5 -57.5q0 -63 -39.5 -104t-101.5 -55l-1 -5q49 -10 77.5 -47t28.5 -87q0 -42 -17.5 -80t-49.5 -67.5t-77 -46.5t-100 -17h-24zM306 407l30 153h-65l-30 -153h65z
M396 407h10q30 0 49.5 16.5t25.5 46.5q5 23 6 31t1 13q0 23 -14.5 34.5t-39.5 11.5h-7zM252 138l31 156h-65l-31 -156h65zM343 138h33q29 0 49 16t26 46q5 26 6 34.5t1 12.5q0 23 -14 35t-40 12h-30z" />
    <glyph glyph-name="uni20A1" unicode="&#x20a1;" horiz-adv-x="613" 
d="M129 -82l35 121q-49 31 -78.5 93t-29.5 158q0 74 21 141t60 120t95 88.5t126 46.5l28 94h68l-26 -89q10 0 20.5 -1t20.5 -3l27 93h67l-34 -112q35 -16 60 -40.5t40 -53.5l-107 -66q-7 23 -30 41l-123 -416q24 10 46 27t39 42l85 -73q-38 -51 -87 -80.5t-119 -38.5
l-27 -92h-67l26 89q-12 1 -21 2.5t-19 3.5l-28 -95h-68zM258 128q21 -8 41 -8l136 453q-11 3 -21.5 4t-21.5 1zM192 244q0 -40 15 -68l115 388q-37 -17 -63 -55.5t-38 -98.5l-23 -116q-2 -11 -4 -23.5t-2 -26.5z" />
    <glyph glyph-name="uni20A4" unicode="&#x20a4;" horiz-adv-x="591" 
d="M503 0h-473l27 134q32 14 54.5 38t35.5 55h-105l18 88h98q-2 17 -5 34.5t-5 35.5h-74l17 88h51q3 50 23.5 93.5t55.5 75.5t83 50t106 18q79 0 130.5 -30t86.5 -90l-115 -76q-20 37 -46 53.5t-67 16.5q-48 0 -77.5 -30t-35.5 -81h185l-17 -88h-161q3 -17 6.5 -34.5
t4.5 -35.5h136l-18 -88h-132q-14 -34 -38 -58t-47 -36l-2 -12h325z" />
    <glyph glyph-name="uni20A6" unicode="&#x20a6;" horiz-adv-x="765" 
d="M376 229h-140l-45 -229h-128l45 228h-86l17 88h87l14 71h-86l17 88h87l44 223h166l64 -223h144l44 223h126l-44 -223h86l-18 -88h-86l-14 -71h85l-17 -88h-85l-45 -228h-168zM352 313l-27 96l-28 112h-5l-40 -208h100zM482 301l32 -123h4l41 213h-103z" />
    <glyph glyph-name="uni20A8" unicode="&#x20a8;" horiz-adv-x="868" 
d="M162 698h196q97 0 147 -43t50 -121q0 -79 -34.5 -136t-88.5 -86l45 -123q18 -49 41.5 -70t62.5 -21q38 0 56 17t18 40q0 14 -7 27t-21 31l-15 20q-24 32 -39 62t-15 71q0 35 13.5 65.5t38 53.5t58 36.5t73.5 13.5q32 0 67 -6.5t60 -23.5l-64 -96q-14 10 -27.5 14.5
t-30.5 4.5q-23 0 -38.5 -14.5t-15.5 -38.5q0 -17 10.5 -31t24.5 -32l14 -18q27 -33 42 -60.5t15 -62.5q0 -36 -13 -69t-42 -58.5t-76 -40.5t-116 -15t-120.5 33t-77.5 109l-51 146h-79l-55 -276h-146zM309 396q35 0 56.5 19t28.5 53l9 44q2 10 2 19q0 23 -16 35t-45 12h-60
l-37 -182h62z" />
    <glyph glyph-name="uni20A9" unicode="&#x20a9;" horiz-adv-x="984" 
d="M556 229h-140l-98 -229h-167l-5 228h-116l17 88h97l-1 71h-81l17 88h62l-5 223h142l-1 -223h129l95 223h156l6 -223h131l88 223h143l-95 -223h63l-18 -88h-82l-30 -71h96l-16 -88h-118l-97 -228h-166zM279 169l92 222h-94l-2 -222h4zM675 167l86 224h-96l6 -224h4z
M553 312l-5 222h-4l-92 -222h101z" />
    <glyph glyph-name="uni20AA" unicode="&#x20aa;" horiz-adv-x="885" 
d="M325 509h130l-78 -389h145q38 0 64 6t43.5 20t28 38.5t18.5 60.5l91 453h130l-90 -449q-14 -65 -33.5 -112t-54 -77.5t-88 -45t-133.5 -14.5h-276zM22 0l140 698h306q90 0 138.5 -46.5t48.5 -127.5q0 -14 -1.5 -32t-5.5 -35l-54 -268h-130l56 280q5 23 5 43q0 66 -70 66
h-187l-116 -578h-130z" />
    <glyph glyph-name="uni20AB" unicode="&#x20ab;" horiz-adv-x="569" 
d="M339 238h-7q-21 -33 -52.5 -57t-83.5 -24q-27 0 -51 8.5t-42 27t-28 47.5t-10 70q0 53 15 95.5t40 72.5t57.5 46.5t68.5 16.5q63 0 92 -23t38 -58h7l27 134h-123l18 89h123l11 57h138l-11 -57h54l-18 -89h-54l-87 -429h-137zM271 257q35 0 56.5 18t26.5 40l13 65
q5 21 -12.5 41t-61.5 20q-37 0 -57 -20.5t-27 -54.5q-5 -23 -6 -33t-1 -15q0 -28 17 -44.5t52 -16.5zM17 0l21 103h434l-21 -103h-434z" />
    <glyph glyph-name="uni20AD" unicode="&#x20ad;" horiz-adv-x="665" 
d="M188 0h-145l58 293h-86l24 117h86l58 288h145l-58 -288h40l241 288h167l-252 -288h170l-24 -117h-172l150 -293h-158l-143 293h-43z" />
    <glyph glyph-name="uni20AE" unicode="&#x20ae;" horiz-adv-x="589" 
d="M356 207l-41 -207h-145l27 136l-127 -56l18 90l127 56l14 68l-127 -56l18 90l127 56l39 194h-185l24 120h514l-24 -120h-184l-25 -124l131 59l-18 -90l-131 -59l-14 -67l131 58l-18 -90z" />
    <glyph glyph-name="uni20B1" unicode="&#x20b1;" horiz-adv-x="696" 
d="M125 312h-87l16 79h87l14 68h-87l16 79h87l31 160h235q35 0 66.5 -8.5t56 -28t41.5 -50t23 -73.5h101l-16 -79h-84q-2 -19 -4.5 -35t-6.5 -33h81l-16 -79h-95q-38 -73 -99 -116.5t-133 -43.5h-115l-30 -152h-145zM314 533h178q-1 29 -15.5 47t-42.5 18h-108zM284 387h181
l16 76h-181zM366 252q29 0 50.5 17t32.5 48h-179l-13 -65h109z" />
    <glyph glyph-name="uni20B2" unicode="&#x20b2;" horiz-adv-x="663" 
d="M167 41q-48 31 -79 90.5t-31 152.5q0 85 25 159t70.5 129t109.5 87t142 32h4l32 89h110l-39 -108q46 -18 79.5 -51.5t47.5 -82.5l-117 -51q-5 26 -19.5 46.5t-39.5 31.5l-66 -179h223l-27 -136q-14 -67 -46.5 -113.5t-75.5 -75t-92 -41.5t-94 -13h-19l-34 -89h-110z
M194 248q0 -31 6.5 -53t17.5 -37l156 418h-1q-63 -8 -100 -53.5t-52 -119.5l-21 -105q-6 -27 -6 -50zM298 120h7q54 0 96 30t55 93l6 30h-108z" />
    <glyph glyph-name="uni20B4" unicode="&#x20b4;" horiz-adv-x="607" 
d="M272 -12q-50 0 -86.5 13t-60 35.5t-34.5 52.5t-11 65q0 40 12 75h-69l18 88h124l129 71h-240l18 88h347q16 29 16 55q0 64 -79 64q-32 0 -63.5 -14.5t-58.5 -40.5l-73 87q38 39 96 61t118 22q49 0 85.5 -12t61 -32t36.5 -47t12 -58q0 -20 -5.5 -42.5t-14.5 -42.5h72
l-18 -88h-126l-122 -71h233l-17 -88h-352q-7 -13 -9 -26t-2 -24q0 -39 24 -59t67 -20q31 0 63 15t74 56l72 -87q-43 -47 -104 -71.5t-133 -24.5z" />
    <glyph glyph-name="uni20B5" unicode="&#x20b5;" horiz-adv-x="613" 
d="M167 40q-51 32 -81 94t-30 156q0 80 24 153t69 128t109.5 87.5t144.5 32.5h3l34 89h110l-40 -107q42 -15 72 -41t47 -58l-107 -66q-12 22 -27.5 36t-34.5 22l-163 -446h4q41 0 83 20t70 62l85 -73q-45 -59 -104 -90.5t-148 -31.5h-10.5t-11.5 1l-32 -90h-110zM193 244
q0 -26 7 -47.5t19 -37.5l154 418h-1q-57 -6 -95.5 -47.5t-54.5 -120.5l-23 -115q-2 -11 -4 -23.5t-2 -26.5z" />
    <glyph glyph-name="uni20B8" unicode="&#x20b8;" horiz-adv-x="590" 
d="M104 595l20 103h514l-21 -103h-513zM398 409l-82 -409h-146l82 409h-186l21 103h514l-21 -103h-182z" />
    <glyph glyph-name="uni20B9" unicode="&#x20b9;" horiz-adv-x="606" 
d="M328 0l-141 223h-135l21 103h157q49 0 77 23.5t42 59.5h-259l20 103h255q-1 48 -22 65.5t-68 17.5h-148l21 103h514l-21 -103h-197l-1 -6q19 -6 33.5 -25.5t20.5 -51.5h127l-21 -103h-107q-13 -59 -55 -106.5t-115 -67.5l152 -235h-150z" />
    <glyph glyph-name="uni20BA" unicode="&#x20ba;" horiz-adv-x="605" 
d="M102 214l-93 -42l18 89l93 43l14 69l-94 -42l18 88l93 42l48 237h146l-33 -166l162 73l-18 -89l-162 -73l-14 -68l163 74l-18 -89l-163 -74l-33 -166h41q35 0 62.5 9t49 30.5t37.5 57t27 88.5h139q-26 -149 -105.5 -227t-216.5 -78h-204z" />
    <glyph glyph-name="uni20BD" unicode="&#x20bd;" horiz-adv-x="664" 
d="M228 105l-21 -105h-145l21 105h-88l21 103h87l17 84h-88l21 103h88l61 303h262q99 0 151 -44.5t52 -125.5q0 -44 -17 -86.5t-49 -75.5t-78.5 -53.5t-104.5 -20.5h-153l-17 -84h208l-21 -103h-207zM286 395h137q34 0 55.5 19.5t28.5 53.5q5 26 7.5 36t2.5 18
q0 29 -18.5 42.5t-50.5 13.5h-126z" />
    <glyph glyph-name="uni20BF" unicode="&#x20bf;" horiz-adv-x="660" 
d="M296 20h-66l-20 -102h-105l20 102h-99l132 658h99l21 102h105l-21 -102h65l21 102h105l-23 -114q51 -16 77 -50t26 -80q0 -61 -36.5 -107t-100.5 -62v-5q48 -12 74.5 -45t26.5 -84q0 -90 -53.5 -142.5t-142.5 -66.5l-20 -106h-106zM242 407h164q28 0 48 14.5t26 44.5
q5 23 6.5 32.5t1.5 14.5q0 24 -14.5 35.5t-39.5 11.5h-161zM188 138h188q29 0 48.5 15t26.5 49q5 26 5.5 33.5t0.5 11.5q0 47 -53 47h-184z" />
    <glyph glyph-name="fl" unicode="&#xfb02;" horiz-adv-x="634" 
d="M181 -50q-30 -150 -192 -150h-76l24 112h96l100 501h-69l22 112h69l13 65q30 150 192 150h76l-24 -112h-96l-20 -103h102l-22 -112h-103zM475 0q-41 0 -65.5 22t-24.5 58q0 10 3 25l127 635h140l-126 -628h62l-22 -112h-94z" />
    <glyph glyph-name="aacute" unicode="&#xe1;" horiz-adv-x="591" 
d="M430 0q-38 0 -63 20t-25 57q0 8 1 17t2 13l3 15h-6q-31 -64 -70 -99t-101 -35q-37 0 -63.5 13.5t-43.5 38t-25 58t-8 72.5q0 84 19.5 151.5t52.5 115.5t77.5 74t94.5 26q55 0 90.5 -30t40.5 -73h5l18 91h140l-83 -413h59l-22 -112h-93zM240 103q27 0 49 14t38 34
q17 20 29.5 47.5t18.5 56.5l16 80q8 37 -15 62t-67 25q-91 0 -115 -117l-14 -70q-2 -11 -4 -28t-2 -29q0 -35 17.5 -55t48.5 -20zM361 579l-84 46l119 190l112 -60z" />
    <glyph glyph-name="abreve" unicode="&#x103;" horiz-adv-x="591" 
d="M430 0q-38 0 -63 20t-25 57q0 8 1 17t2 13l3 15h-6q-31 -64 -70 -99t-101 -35q-37 0 -63.5 13.5t-43.5 38t-25 58t-8 72.5q0 84 19.5 151.5t52.5 115.5t77.5 74t94.5 26q55 0 90.5 -30t40.5 -73h5l18 91h140l-83 -413h59l-22 -112h-93zM240 103q27 0 49 14t38 34
q17 20 29.5 47.5t18.5 56.5l16 80q8 37 -15 62t-67 25q-91 0 -115 -117l-14 -70q-2 -11 -4 -28t-2 -29q0 -35 17.5 -55t48.5 -20zM345 579q-42 0 -71.5 15t-49.5 39t-31.5 54.5t-17.5 61.5l80 42l18 -39q16 -34 32 -53t48 -19q27 0 48.5 18.5t49.5 55.5l28 37l83 -46
q-18 -32 -39 -62t-47 -53t-58 -37t-73 -14z" />
    <glyph glyph-name="acircumflex" unicode="&#xe2;" horiz-adv-x="591" 
d="M430 0q-38 0 -63 20t-25 57q0 8 1 17t2 13l3 15h-6q-31 -64 -70 -99t-101 -35q-37 0 -63.5 13.5t-43.5 38t-25 58t-8 72.5q0 84 19.5 151.5t52.5 115.5t77.5 74t94.5 26q55 0 90.5 -30t40.5 -73h5l18 91h140l-83 -413h59l-22 -112h-93zM240 103q27 0 49 14t38 34
q17 20 29.5 47.5t18.5 56.5l16 80q8 37 -15 62t-67 25q-91 0 -115 -117l-14 -70q-2 -11 -4 -28t-2 -29q0 -35 17.5 -55t48.5 -20zM436 794l100 -158l-75 -57l-99 115l-134 -115l-70 57l156 158h122z" />
    <glyph glyph-name="adieresis" unicode="&#xe4;" horiz-adv-x="591" 
d="M430 0q-38 0 -63 20t-25 57q0 8 1 17t2 13l3 15h-6q-31 -64 -70 -99t-101 -35q-37 0 -63.5 13.5t-43.5 38t-25 58t-8 72.5q0 84 19.5 151.5t52.5 115.5t77.5 74t94.5 26q55 0 90.5 -30t40.5 -73h5l18 91h140l-83 -413h59l-22 -112h-93zM240 103q27 0 49 14t38 34
q17 20 29.5 47.5t18.5 56.5l16 80q8 37 -15 62t-67 25q-91 0 -115 -117l-14 -70q-2 -11 -4 -28t-2 -29q0 -35 17.5 -55t48.5 -20zM247 600q-35 0 -50 14t-15 34q0 5 1.5 14t4.5 26q5 26 24 44.5t61 18.5q35 0 50 -14t15 -34q0 -5 -1.5 -14t-4.5 -26q-5 -26 -24 -44.5
t-61 -18.5zM447 600q-35 0 -50 14t-15 34q0 5 1.5 14t4.5 26q5 26 24 44.5t61 18.5q35 0 50 -14t15 -34q0 -5 -1.5 -14t-4.5 -26q-5 -26 -24 -44.5t-61 -18.5z" />
    <glyph glyph-name="uni1EA1" unicode="&#x1ea1;" horiz-adv-x="591" 
d="M430 0q-38 0 -63 20t-25 57q0 8 1 17t2 13l3 15h-6q-31 -64 -70 -99t-101 -35q-37 0 -63.5 13.5t-43.5 38t-25 58t-8 72.5q0 84 19.5 151.5t52.5 115.5t77.5 74t94.5 26q55 0 90.5 -30t40.5 -73h5l18 91h140l-83 -413h59l-22 -112h-93zM240 103q27 0 49 14t38 34
q17 20 29.5 47.5t18.5 56.5l16 80q8 37 -15 62t-67 25q-91 0 -115 -117l-14 -70q-2 -11 -4 -28t-2 -29q0 -35 17.5 -55t48.5 -20zM219 -202q-38 0 -54 14.5t-16 37.5q0 5 1.5 12.5t4.5 25.5q5 26 23.5 42t60.5 16q37 0 53 -14.5t16 -37.5q0 -5 -1.5 -12.5t-4.5 -25.5
q-5 -26 -23.5 -42t-59.5 -16z" />
    <glyph glyph-name="agrave" unicode="&#xe0;" horiz-adv-x="591" 
d="M430 0q-38 0 -63 20t-25 57q0 8 1 17t2 13l3 15h-6q-31 -64 -70 -99t-101 -35q-37 0 -63.5 13.5t-43.5 38t-25 58t-8 72.5q0 84 19.5 151.5t52.5 115.5t77.5 74t94.5 26q55 0 90.5 -30t40.5 -73h5l18 91h140l-83 -413h59l-22 -112h-93zM240 103q27 0 49 14t38 34
q17 20 29.5 47.5t18.5 56.5l16 80q8 37 -15 62t-67 25q-91 0 -115 -117l-14 -70q-2 -11 -4 -28t-2 -29q0 -35 17.5 -55t48.5 -20zM214 756l126 59l68 -196l-89 -39z" />
    <glyph glyph-name="uni1EA3" unicode="&#x1ea3;" horiz-adv-x="591" 
d="M430 0q-38 0 -63 20t-25 57q0 8 1 17t2 13l3 15h-6q-31 -64 -70 -99t-101 -35q-37 0 -63.5 13.5t-43.5 38t-25 58t-8 72.5q0 84 19.5 151.5t52.5 115.5t77.5 74t94.5 26q55 0 90.5 -30t40.5 -73h5l18 91h140l-83 -413h59l-22 -112h-93zM240 103q27 0 49 14t38 34
q17 20 29.5 47.5t18.5 56.5l16 80q8 37 -15 62t-67 25q-91 0 -115 -117l-14 -70q-2 -11 -4 -28t-2 -29q0 -35 17.5 -55t48.5 -20zM269 802h146q39 0 58.5 -16.5t19.5 -40.5q0 -32 -15 -56.5t-36 -51.5l-56 -66l-69 34l49 93h-117z" />
    <glyph glyph-name="amacron" unicode="&#x101;" horiz-adv-x="591" 
d="M430 0q-38 0 -63 20t-25 57q0 8 1 17t2 13l3 15h-6q-31 -64 -70 -99t-101 -35q-37 0 -63.5 13.5t-43.5 38t-25 58t-8 72.5q0 84 19.5 151.5t52.5 115.5t77.5 74t94.5 26q55 0 90.5 -30t40.5 -73h5l18 91h140l-83 -413h59l-22 -112h-93zM240 103q27 0 49 14t38 34
q17 20 29.5 47.5t18.5 56.5l16 80q8 37 -15 62t-67 25q-91 0 -115 -117l-14 -70q-2 -11 -4 -28t-2 -29q0 -35 17.5 -55t48.5 -20zM231 727h278l-20 -102h-278z" />
    <glyph glyph-name="aogonek" unicode="&#x105;" horiz-adv-x="591" 
d="M523 0q-41 -25 -65 -42.5t-36 -30.5t-15 -22t-3 -16q0 -12 7.5 -20.5t27.5 -8.5q16 0 30 5.5t24 21.5l52 -49q-19 -23 -48 -36.5t-77 -13.5q-50 0 -84.5 21t-34.5 62q0 38 32.5 71.5t105.5 53.5l-1 4h-8q-38 0 -63 20t-25 57q0 8 1 17t2 13l3 15h-6q-31 -64 -70 -99
t-101 -35q-37 0 -63.5 13.5t-43.5 38t-25 58t-8 72.5q0 84 19.5 151.5t52.5 115.5t77.5 74t94.5 26q55 0 90.5 -30t40.5 -73h5l18 91h140l-83 -413h59zM240 103q27 0 49 14t38 34q17 20 29.5 47.5t18.5 56.5l16 80q8 37 -15 62t-67 25q-91 0 -115 -117l-14 -70
q-2 -11 -4 -28t-2 -29q0 -35 17.5 -55t48.5 -20z" />
    <glyph glyph-name="aring" unicode="&#xe5;" horiz-adv-x="591" 
d="M430 0q-38 0 -63 20t-25 57q0 8 1 17t2 13l3 15h-6q-31 -64 -70 -99t-101 -35q-37 0 -63.5 13.5t-43.5 38t-25 58t-8 72.5q0 84 19.5 151.5t52.5 115.5t77.5 74t94.5 26q55 0 90.5 -30t40.5 -73h5l18 91h140l-83 -413h59l-22 -112h-93zM240 103q27 0 49 14t38 34
q17 20 29.5 47.5t18.5 56.5l16 80q8 37 -15 62t-67 25q-91 0 -115 -117l-14 -70q-2 -11 -4 -28t-2 -29q0 -35 17.5 -55t48.5 -20zM338 558q-56 0 -92 34.5t-36 87.5q0 37 13.5 67.5t36 52t52.5 33t63 11.5q56 0 92 -34.5t36 -87.5q0 -38 -13.5 -68t-36 -51.5t-52.5 -33
t-63 -11.5zM344 632q23 0 38 14t20 38q4 19 6 29t2 18q0 39 -41 39q-23 0 -38 -14t-20 -38q-4 -19 -6 -29t-2 -18q0 -39 41 -39z" />
    <glyph glyph-name="aringacute" unicode="&#x1fb;" horiz-adv-x="591" 
d="M430 0q-38 0 -63 20t-25 57q0 8 1 17t2 13l3 15h-6q-31 -64 -70 -99t-101 -35q-37 0 -63.5 13.5t-43.5 38t-25 58t-8 72.5q0 84 19.5 151.5t52.5 115.5t77.5 74t94.5 26q55 0 90.5 -30t40.5 -73h5l18 91h140l-83 -413h59l-22 -112h-93zM240 103q27 0 49 14t38 34
q17 20 29.5 47.5t18.5 56.5l16 80q8 37 -15 62t-67 25q-91 0 -115 -117l-14 -70q-2 -11 -4 -28t-2 -29q0 -35 17.5 -55t48.5 -20zM388 815l-46 56l145 117l61 -79zM341 564q-55 0 -91 27t-36 76q0 32 13.5 57.5t36.5 43t53.5 27t65.5 9.5q55 0 91 -27t36 -75
q0 -33 -13.5 -58.5t-36.5 -43t-54 -27t-65 -9.5zM352 633q50 0 59 45q2 8 3 14t1 10q0 33 -43 33q-50 0 -59 -44q-2 -8 -3 -14t-1 -10q0 -34 43 -34z" />
    <glyph glyph-name="atilde" unicode="&#xe3;" horiz-adv-x="591" 
d="M430 0q-38 0 -63 20t-25 57q0 8 1 17t2 13l3 15h-6q-31 -64 -70 -99t-101 -35q-37 0 -63.5 13.5t-43.5 38t-25 58t-8 72.5q0 84 19.5 151.5t52.5 115.5t77.5 74t94.5 26q55 0 90.5 -30t40.5 -73h5l18 91h140l-83 -413h59l-22 -112h-93zM240 103q27 0 49 14t38 34
q17 20 29.5 47.5t18.5 56.5l16 80q8 37 -15 62t-67 25q-91 0 -115 -117l-14 -70q-2 -11 -4 -28t-2 -29q0 -35 17.5 -55t48.5 -20zM427 601q-22 0 -39 6t-37 15q-19 9 -35.5 15.5t-36.5 6.5q-17 0 -29 -6t-29 -19l-43 69q23 29 51.5 45.5t63.5 16.5q22 0 39 -6t37 -15
q19 -9 35.5 -15.5t36.5 -6.5q17 0 29 6t29 19l43 -69q-23 -29 -51.5 -45.5t-63.5 -16.5z" />
    <glyph glyph-name="uni1EAF" unicode="&#x1eaf;" horiz-adv-x="591" 
d="M430 0q-38 0 -63 20t-25 57q0 8 1 17t2 13l3 15h-6q-31 -64 -70 -99t-101 -35q-37 0 -63.5 13.5t-43.5 38t-25 58t-8 72.5q0 84 19.5 151.5t52.5 115.5t77.5 74t94.5 26q55 0 90.5 -30t40.5 -73h5l18 91h140l-83 -413h59l-22 -112h-93zM240 103q27 0 49 14t38 34
q17 20 29.5 47.5t18.5 56.5l16 80q8 37 -15 62t-67 25q-91 0 -115 -117l-14 -70q-2 -11 -4 -28t-2 -29q0 -35 17.5 -55t48.5 -20zM348 572q-45 0 -77 13t-53.5 34t-34 48t-18.5 56l75 45l16 -29q11 -19 20.5 -32t20 -21t24 -11.5t31.5 -3.5q15 0 28 3.5t26.5 11t28.5 20.5
t33 33l27 29l73 -49q-20 -32 -41 -58.5t-47 -46.5t-58.5 -31t-73.5 -11zM384 733l-76 40l107 194l107 -58z" />
    <glyph glyph-name="uni1EB7" unicode="&#x1eb7;" horiz-adv-x="591" 
d="M430 0q-38 0 -63 20t-25 57q0 8 1 17t2 13l3 15h-6q-31 -64 -70 -99t-101 -35q-37 0 -63.5 13.5t-43.5 38t-25 58t-8 72.5q0 84 19.5 151.5t52.5 115.5t77.5 74t94.5 26q55 0 90.5 -30t40.5 -73h5l18 91h140l-83 -413h59l-22 -112h-93zM240 103q27 0 49 14t38 34
q17 20 29.5 47.5t18.5 56.5l16 80q8 37 -15 62t-67 25q-91 0 -115 -117l-14 -70q-2 -11 -4 -28t-2 -29q0 -35 17.5 -55t48.5 -20zM345 579q-42 0 -71.5 15t-49.5 39t-31.5 54.5t-17.5 61.5l80 42l18 -39q16 -34 32 -53t48 -19q27 0 48.5 18.5t49.5 55.5l28 37l83 -46
q-18 -32 -39 -62t-47 -53t-58 -37t-73 -14zM219 -202q-38 0 -54 14.5t-16 37.5q0 5 1.5 12.5t4.5 25.5q5 26 23.5 42t60.5 16q37 0 53 -14.5t16 -37.5q0 -5 -1.5 -12.5t-4.5 -25.5q-5 -26 -23.5 -42t-59.5 -16z" />
    <glyph glyph-name="uni1EB1" unicode="&#x1eb1;" horiz-adv-x="591" 
d="M430 0q-38 0 -63 20t-25 57q0 8 1 17t2 13l3 15h-6q-31 -64 -70 -99t-101 -35q-37 0 -63.5 13.5t-43.5 38t-25 58t-8 72.5q0 84 19.5 151.5t52.5 115.5t77.5 74t94.5 26q55 0 90.5 -30t40.5 -73h5l18 91h140l-83 -413h59l-22 -112h-93zM240 103q27 0 49 14t38 34
q17 20 29.5 47.5t18.5 56.5l16 80q8 37 -15 62t-67 25q-91 0 -115 -117l-14 -70q-2 -11 -4 -28t-2 -29q0 -35 17.5 -55t48.5 -20zM348 572q-45 0 -77 13t-53.5 34t-34 48t-18.5 56l75 45l16 -29q11 -19 20.5 -32t20 -21t24 -11.5t31.5 -3.5q15 0 28 3.5t26.5 11t28.5 20.5
t33 33l27 29l73 -49q-20 -32 -41 -58.5t-47 -46.5t-58.5 -31t-73.5 -11zM248 910l120 55l60 -193l-83 -38z" />
    <glyph glyph-name="uni1EB3" unicode="&#x1eb3;" horiz-adv-x="591" 
d="M430 0q-38 0 -63 20t-25 57q0 8 1 17t2 13l3 15h-6q-31 -64 -70 -99t-101 -35q-37 0 -63.5 13.5t-43.5 38t-25 58t-8 72.5q0 84 19.5 151.5t52.5 115.5t77.5 74t94.5 26q55 0 90.5 -30t40.5 -73h5l18 91h140l-83 -413h59l-22 -112h-93zM240 103q27 0 49 14t38 34
q17 20 29.5 47.5t18.5 56.5l16 80q8 37 -15 62t-67 25q-91 0 -115 -117l-14 -70q-2 -11 -4 -28t-2 -29q0 -35 17.5 -55t48.5 -20zM348 572q-45 0 -77 13t-53.5 34t-34 48t-18.5 56l75 45l16 -29q11 -19 20.5 -32t20 -21t24 -11.5t31.5 -3.5q15 0 28 3.5t26.5 11t28.5 20.5
t33 33l27 29l73 -49q-20 -32 -41 -58.5t-47 -46.5t-58.5 -31t-73.5 -11zM278 952h134q39 0 58 -16.5t19 -40.5q0 -32 -14.5 -56.5t-35.5 -51.5l-57 -66l-68 34l51 96h-107z" />
    <glyph glyph-name="uni1EB5" unicode="&#x1eb5;" horiz-adv-x="591" 
d="M430 0q-38 0 -63 20t-25 57q0 8 1 17t2 13l3 15h-6q-31 -64 -70 -99t-101 -35q-37 0 -63.5 13.5t-43.5 38t-25 58t-8 72.5q0 84 19.5 151.5t52.5 115.5t77.5 74t94.5 26q55 0 90.5 -30t40.5 -73h5l18 91h140l-83 -413h59l-22 -112h-93zM240 103q27 0 49 14t38 34
q17 20 29.5 47.5t18.5 56.5l16 80q8 37 -15 62t-67 25q-91 0 -115 -117l-14 -70q-2 -11 -4 -28t-2 -29q0 -35 17.5 -55t48.5 -20zM348 572q-45 0 -77 13t-53.5 34t-34 48t-18.5 56l75 45l16 -29q11 -19 20.5 -32t20 -21t24 -11.5t31.5 -3.5q15 0 28 3.5t26.5 11t28.5 20.5
t33 33l27 29l73 -49q-20 -32 -41 -58.5t-47 -46.5t-58.5 -31t-73.5 -11zM434 787q-20 0 -35.5 6t-32.5 14q-19 10 -34 16t-34 6q-16 0 -30 -6t-32 -19l-34 65q21 26 52 44t69 18q20 0 35.5 -6t32.5 -14q19 -10 34 -16t34 -6q16 0 30 6t32 19l34 -65q-21 -26 -52 -44t-69 -18
z" />
    <glyph glyph-name="uni1EA5" unicode="&#x1ea5;" horiz-adv-x="591" 
d="M430 0q-38 0 -63 20t-25 57q0 8 1 17t2 13l3 15h-6q-31 -64 -70 -99t-101 -35q-37 0 -63.5 13.5t-43.5 38t-25 58t-8 72.5q0 84 19.5 151.5t52.5 115.5t77.5 74t94.5 26q55 0 90.5 -30t40.5 -73h5l18 91h140l-83 -413h59l-22 -112h-93zM240 103q27 0 49 14t38 34
q17 20 29.5 47.5t18.5 56.5l16 80q8 37 -15 62t-67 25q-91 0 -115 -117l-14 -70q-2 -11 -4 -28t-2 -29q0 -35 17.5 -55t48.5 -20zM546 735l-76 40l104 190l108 -55zM426 780l113 -148l-71 -63l-98 105l-142 -105l-63 63l171 148h90z" />
    <glyph glyph-name="uni1EAD" unicode="&#x1ead;" horiz-adv-x="591" 
d="M430 0q-38 0 -63 20t-25 57q0 8 1 17t2 13l3 15h-6q-31 -64 -70 -99t-101 -35q-37 0 -63.5 13.5t-43.5 38t-25 58t-8 72.5q0 84 19.5 151.5t52.5 115.5t77.5 74t94.5 26q55 0 90.5 -30t40.5 -73h5l18 91h140l-83 -413h59l-22 -112h-93zM240 103q27 0 49 14t38 34
q17 20 29.5 47.5t18.5 56.5l16 80q8 37 -15 62t-67 25q-91 0 -115 -117l-14 -70q-2 -11 -4 -28t-2 -29q0 -35 17.5 -55t48.5 -20zM436 794l100 -158l-75 -57l-99 115l-134 -115l-70 57l156 158h122zM219 -202q-38 0 -54 14.5t-16 37.5q0 5 1.5 12.5t4.5 25.5q5 26 23.5 42
t60.5 16q37 0 53 -14.5t16 -37.5q0 -5 -1.5 -12.5t-4.5 -25.5q-5 -26 -23.5 -42t-59.5 -16z" />
    <glyph glyph-name="uni1EA7" unicode="&#x1ea7;" horiz-adv-x="591" 
d="M430 0q-38 0 -63 20t-25 57q0 8 1 17t2 13l3 15h-6q-31 -64 -70 -99t-101 -35q-37 0 -63.5 13.5t-43.5 38t-25 58t-8 72.5q0 84 19.5 151.5t52.5 115.5t77.5 74t94.5 26q55 0 90.5 -30t40.5 -73h5l18 91h140l-83 -413h59l-22 -112h-93zM240 103q27 0 49 14t38 34
q17 20 29.5 47.5t18.5 56.5l16 80q8 37 -15 62t-67 25q-91 0 -115 -117l-14 -70q-2 -11 -4 -28t-2 -29q0 -35 17.5 -55t48.5 -20zM94 910l112 55l73 -193l-73 -38zM426 780l113 -148l-71 -63l-98 105l-142 -105l-63 63l171 148h90z" />
    <glyph glyph-name="uni1EA9" unicode="&#x1ea9;" horiz-adv-x="591" 
d="M430 0q-38 0 -63 20t-25 57q0 8 1 17t2 13l3 15h-6q-31 -64 -70 -99t-101 -35q-37 0 -63.5 13.5t-43.5 38t-25 58t-8 72.5q0 84 19.5 151.5t52.5 115.5t77.5 74t94.5 26q55 0 90.5 -30t40.5 -73h5l18 91h140l-83 -413h59l-22 -112h-93zM240 103q27 0 49 14t38 34
q17 20 29.5 47.5t18.5 56.5l16 80q8 37 -15 62t-67 25q-91 0 -115 -117l-14 -70q-2 -11 -4 -28t-2 -29q0 -35 17.5 -55t48.5 -20zM444 952h135q39 0 57.5 -16.5t18.5 -40.5q0 -32 -14 -56.5t-36 -51.5l-57 -66l-68 34l52 96h-108zM426 780l113 -148l-71 -63l-98 105
l-142 -105l-63 63l171 148h90z" />
    <glyph glyph-name="uni1EAB" unicode="&#x1eab;" horiz-adv-x="591" 
d="M430 0q-38 0 -63 20t-25 57q0 8 1 17t2 13l3 15h-6q-31 -64 -70 -99t-101 -35q-37 0 -63.5 13.5t-43.5 38t-25 58t-8 72.5q0 84 19.5 151.5t52.5 115.5t77.5 74t94.5 26q55 0 90.5 -30t40.5 -73h5l18 91h140l-83 -413h59l-22 -112h-93zM240 103q27 0 49 14t38 34
q17 20 29.5 47.5t18.5 56.5l16 80q8 37 -15 62t-67 25q-91 0 -115 -117l-14 -70q-2 -11 -4 -28t-2 -29q0 -35 17.5 -55t48.5 -20zM340 941q19 0 33 -6t31 -14q20 -10 35 -16t32 -6q14 0 27 6t30 19l35 -65q-23 -26 -53 -44t-66 -18q-19 0 -33 6t-31 14q-20 10 -35 16t-32 6
q-14 0 -27 -6t-30 -19l-35 65q23 26 53 44t66 18zM421 768l115 -134l-72 -63l-103 104l-135 -104l-64 63l168 134h91z" />
    <glyph glyph-name="aacute.alt01" horiz-adv-x="561" 
d="M170 -12q-71 0 -108 37t-37 100q0 85 64.5 131.5t179.5 46.5h91l4 22q3 18 3 30q0 35 -19.5 52.5t-61.5 17.5q-23 0 -41.5 -5.5t-33 -14.5t-26 -21.5t-21.5 -26.5l-82 79q37 47 90.5 74t131.5 27q99 0 151.5 -43.5t52.5 -123.5q0 -10 -1 -23t-4 -28l-41 -207h52l-22 -112
h-74q-38 0 -63 20t-25 57v15h-6q-23 -56 -62 -80t-92 -24zM230 89q34 0 63.5 17t37.5 54l12 62h-80q-39 0 -60 -14t-28 -43q-3 -13 -3.5 -20.5t-0.5 -10.5q0 -23 16.5 -34t42.5 -11zM340 579l-84 46l119 190l112 -60z" />
    <glyph glyph-name="abreve.alt01" horiz-adv-x="561" 
d="M170 -12q-71 0 -108 37t-37 100q0 85 64.5 131.5t179.5 46.5h91l4 22q3 18 3 30q0 35 -19.5 52.5t-61.5 17.5q-23 0 -41.5 -5.5t-33 -14.5t-26 -21.5t-21.5 -26.5l-82 79q37 47 90.5 74t131.5 27q99 0 151.5 -43.5t52.5 -123.5q0 -10 -1 -23t-4 -28l-41 -207h52l-22 -112
h-74q-38 0 -63 20t-25 57v15h-6q-23 -56 -62 -80t-92 -24zM230 89q34 0 63.5 17t37.5 54l12 62h-80q-39 0 -60 -14t-28 -43q-3 -13 -3.5 -20.5t-0.5 -10.5q0 -23 16.5 -34t42.5 -11zM324 579q-42 0 -71.5 15t-49.5 39t-31.5 54.5t-17.5 61.5l80 42l18 -39q16 -34 32 -53
t48 -19q27 0 48.5 18.5t49.5 55.5l28 37l83 -46q-18 -32 -39 -62t-47 -53t-58 -37t-73 -14z" />
    <glyph glyph-name="acircumflex.alt01" horiz-adv-x="561" 
d="M170 -12q-71 0 -108 37t-37 100q0 85 64.5 131.5t179.5 46.5h91l4 22q3 18 3 30q0 35 -19.5 52.5t-61.5 17.5q-23 0 -41.5 -5.5t-33 -14.5t-26 -21.5t-21.5 -26.5l-82 79q37 47 90.5 74t131.5 27q99 0 151.5 -43.5t52.5 -123.5q0 -10 -1 -23t-4 -28l-41 -207h52l-22 -112
h-74q-38 0 -63 20t-25 57v15h-6q-23 -56 -62 -80t-92 -24zM230 89q34 0 63.5 17t37.5 54l12 62h-80q-39 0 -60 -14t-28 -43q-3 -13 -3.5 -20.5t-0.5 -10.5q0 -23 16.5 -34t42.5 -11zM415 794l100 -158l-75 -57l-99 115l-134 -115l-70 57l156 158h122z" />
    <glyph glyph-name="adieresis.alt01" horiz-adv-x="561" 
d="M170 -12q-71 0 -108 37t-37 100q0 85 64.5 131.5t179.5 46.5h91l4 22q3 18 3 30q0 35 -19.5 52.5t-61.5 17.5q-23 0 -41.5 -5.5t-33 -14.5t-26 -21.5t-21.5 -26.5l-82 79q37 47 90.5 74t131.5 27q99 0 151.5 -43.5t52.5 -123.5q0 -10 -1 -23t-4 -28l-41 -207h52l-22 -112
h-74q-38 0 -63 20t-25 57v15h-6q-23 -56 -62 -80t-92 -24zM230 89q34 0 63.5 17t37.5 54l12 62h-80q-39 0 -60 -14t-28 -43q-3 -13 -3.5 -20.5t-0.5 -10.5q0 -23 16.5 -34t42.5 -11zM226 600q-35 0 -50 14t-15 34q0 5 1.5 14t4.5 26q5 26 24 44.5t61 18.5q35 0 50 -14
t15 -34q0 -5 -1.5 -14t-4.5 -26q-5 -26 -24 -44.5t-61 -18.5zM426 600q-35 0 -50 14t-15 34q0 5 1.5 14t4.5 26q5 26 24 44.5t61 18.5q35 0 50 -14t15 -34q0 -5 -1.5 -14t-4.5 -26q-5 -26 -24 -44.5t-61 -18.5z" />
    <glyph glyph-name="uni1EA1.alt01" horiz-adv-x="561" 
d="M170 -12q-71 0 -108 37t-37 100q0 85 64.5 131.5t179.5 46.5h91l4 22q3 18 3 30q0 35 -19.5 52.5t-61.5 17.5q-23 0 -41.5 -5.5t-33 -14.5t-26 -21.5t-21.5 -26.5l-82 79q37 47 90.5 74t131.5 27q99 0 151.5 -43.5t52.5 -123.5q0 -10 -1 -23t-4 -28l-41 -207h52l-22 -112
h-74q-38 0 -63 20t-25 57v15h-6q-23 -56 -62 -80t-92 -24zM230 89q34 0 63.5 17t37.5 54l12 62h-80q-39 0 -60 -14t-28 -43q-3 -13 -3.5 -20.5t-0.5 -10.5q0 -23 16.5 -34t42.5 -11zM212 -202q-38 0 -54 14.5t-16 37.5q0 5 1.5 12.5t4.5 25.5q5 26 23.5 42t60.5 16
q37 0 53 -14.5t16 -37.5q0 -5 -1.5 -12.5t-4.5 -25.5q-5 -26 -23.5 -42t-59.5 -16z" />
    <glyph glyph-name="agrave.alt01" horiz-adv-x="561" 
d="M170 -12q-71 0 -108 37t-37 100q0 85 64.5 131.5t179.5 46.5h91l4 22q3 18 3 30q0 35 -19.5 52.5t-61.5 17.5q-23 0 -41.5 -5.5t-33 -14.5t-26 -21.5t-21.5 -26.5l-82 79q37 47 90.5 74t131.5 27q99 0 151.5 -43.5t52.5 -123.5q0 -10 -1 -23t-4 -28l-41 -207h52l-22 -112
h-74q-38 0 -63 20t-25 57v15h-6q-23 -56 -62 -80t-92 -24zM230 89q34 0 63.5 17t37.5 54l12 62h-80q-39 0 -60 -14t-28 -43q-3 -13 -3.5 -20.5t-0.5 -10.5q0 -23 16.5 -34t42.5 -11zM193 756l126 59l68 -196l-89 -39z" />
    <glyph glyph-name="uni1EA3.alt01" horiz-adv-x="561" 
d="M170 -12q-71 0 -108 37t-37 100q0 85 64.5 131.5t179.5 46.5h91l4 22q3 18 3 30q0 35 -19.5 52.5t-61.5 17.5q-23 0 -41.5 -5.5t-33 -14.5t-26 -21.5t-21.5 -26.5l-82 79q37 47 90.5 74t131.5 27q99 0 151.5 -43.5t52.5 -123.5q0 -10 -1 -23t-4 -28l-41 -207h52l-22 -112
h-74q-38 0 -63 20t-25 57v15h-6q-23 -56 -62 -80t-92 -24zM230 89q34 0 63.5 17t37.5 54l12 62h-80q-39 0 -60 -14t-28 -43q-3 -13 -3.5 -20.5t-0.5 -10.5q0 -23 16.5 -34t42.5 -11zM248 802h146q39 0 58.5 -16.5t19.5 -40.5q0 -32 -15 -56.5t-36 -51.5l-56 -66l-69 34
l49 93h-117z" />
    <glyph glyph-name="amacron.alt01" horiz-adv-x="561" 
d="M170 -12q-71 0 -108 37t-37 100q0 85 64.5 131.5t179.5 46.5h91l4 22q3 18 3 30q0 35 -19.5 52.5t-61.5 17.5q-23 0 -41.5 -5.5t-33 -14.5t-26 -21.5t-21.5 -26.5l-82 79q37 47 90.5 74t131.5 27q99 0 151.5 -43.5t52.5 -123.5q0 -10 -1 -23t-4 -28l-41 -207h52l-22 -112
h-74q-38 0 -63 20t-25 57v15h-6q-23 -56 -62 -80t-92 -24zM230 89q34 0 63.5 17t37.5 54l12 62h-80q-39 0 -60 -14t-28 -43q-3 -13 -3.5 -20.5t-0.5 -10.5q0 -23 16.5 -34t42.5 -11zM210 727h278l-20 -102h-278z" />
    <glyph glyph-name="aogonek.alt01" horiz-adv-x="560" 
d="M170 -12q-71 0 -108 37t-37 100q0 85 64.5 131.5t179.5 46.5h91l4 22q3 18 3 30q0 35 -19.5 52.5t-61.5 17.5q-23 0 -41.5 -5.5t-33 -14.5t-26 -21.5t-21.5 -26.5l-82 79q37 47 90.5 74t131.5 27q99 0 151.5 -43.5t52.5 -123.5q0 -10 -1 -23t-4 -28l-41 -207h52l-22 -112
q-41 -25 -65.5 -42.5t-37.5 -30.5t-16.5 -22t-3.5 -16q0 -12 7.5 -20.5t27.5 -8.5q16 0 30 5.5t24 21.5l52 -49q-19 -23 -48 -36.5t-77 -13.5q-50 0 -84.5 21t-34.5 62q0 38 34.5 71.5t107.5 53.5l-1 5q-33 2 -55 22.5t-22 53.5v15h-6q-23 -56 -62 -80t-92 -24zM230 89
q34 0 63.5 17t37.5 54l12 62h-80q-39 0 -60 -14t-28 -43q-3 -13 -3.5 -20.5t-0.5 -10.5q0 -23 16.5 -34t42.5 -11z" />
    <glyph glyph-name="aring.alt01" horiz-adv-x="561" 
d="M170 -12q-71 0 -108 37t-37 100q0 85 64.5 131.5t179.5 46.5h91l4 22q3 18 3 30q0 35 -19.5 52.5t-61.5 17.5q-23 0 -41.5 -5.5t-33 -14.5t-26 -21.5t-21.5 -26.5l-82 79q37 47 90.5 74t131.5 27q99 0 151.5 -43.5t52.5 -123.5q0 -10 -1 -23t-4 -28l-41 -207h52l-22 -112
h-74q-38 0 -63 20t-25 57v15h-6q-23 -56 -62 -80t-92 -24zM230 89q34 0 63.5 17t37.5 54l12 62h-80q-39 0 -60 -14t-28 -43q-3 -13 -3.5 -20.5t-0.5 -10.5q0 -23 16.5 -34t42.5 -11zM317 558q-56 0 -92 34.5t-36 87.5q0 37 13.5 67.5t36 52t52.5 33t63 11.5q56 0 92 -34.5
t36 -87.5q0 -38 -13.5 -68t-36 -51.5t-52.5 -33t-63 -11.5zM323 632q23 0 38 14t20 38q4 19 6 29t2 18q0 39 -41 39q-23 0 -38 -14t-20 -38q-4 -19 -6 -29t-2 -18q0 -39 41 -39z" />
    <glyph glyph-name="aringacute.alt01" horiz-adv-x="561" 
d="M170 -12q-71 0 -108 37t-37 100q0 85 64.5 131.5t179.5 46.5h91l4 22q3 18 3 30q0 35 -19.5 52.5t-61.5 17.5q-23 0 -41.5 -5.5t-33 -14.5t-26 -21.5t-21.5 -26.5l-82 79q37 47 90.5 74t131.5 27q99 0 151.5 -43.5t52.5 -123.5q0 -10 -1 -23t-4 -28l-41 -207h52l-22 -112
h-74q-38 0 -63 20t-25 57v15h-6q-23 -56 -62 -80t-92 -24zM230 89q34 0 63.5 17t37.5 54l12 62h-80q-39 0 -60 -14t-28 -43q-3 -13 -3.5 -20.5t-0.5 -10.5q0 -23 16.5 -34t42.5 -11zM367 815l-46 56l145 117l61 -79zM320 564q-55 0 -91 27t-36 76q0 32 13.5 57.5t36.5 43
t53.5 27t65.5 9.5q55 0 91 -27t36 -75q0 -33 -13.5 -58.5t-36.5 -43t-54 -27t-65 -9.5zM331 633q50 0 59 45q2 8 3 14t1 10q0 33 -43 33q-50 0 -59 -44q-2 -8 -3 -14t-1 -10q0 -34 43 -34z" />
    <glyph glyph-name="atilde.alt01" horiz-adv-x="561" 
d="M170 -12q-71 0 -108 37t-37 100q0 85 64.5 131.5t179.5 46.5h91l4 22q3 18 3 30q0 35 -19.5 52.5t-61.5 17.5q-23 0 -41.5 -5.5t-33 -14.5t-26 -21.5t-21.5 -26.5l-82 79q37 47 90.5 74t131.5 27q99 0 151.5 -43.5t52.5 -123.5q0 -10 -1 -23t-4 -28l-41 -207h52l-22 -112
h-74q-38 0 -63 20t-25 57v15h-6q-23 -56 -62 -80t-92 -24zM230 89q34 0 63.5 17t37.5 54l12 62h-80q-39 0 -60 -14t-28 -43q-3 -13 -3.5 -20.5t-0.5 -10.5q0 -23 16.5 -34t42.5 -11zM406 601q-22 0 -39 6t-37 15q-19 9 -35.5 15.5t-36.5 6.5q-17 0 -29 -6t-29 -19l-43 69
q23 29 51.5 45.5t63.5 16.5q22 0 39 -6t37 -15q19 -9 35.5 -15.5t36.5 -6.5q17 0 29 6t29 19l43 -69q-23 -29 -51.5 -45.5t-63.5 -16.5z" />
    <glyph glyph-name="uni1EAF.alt01" horiz-adv-x="561" 
d="M170 -12q-71 0 -108 37t-37 100q0 85 64.5 131.5t179.5 46.5h91l4 22q3 18 3 30q0 35 -19.5 52.5t-61.5 17.5q-23 0 -41.5 -5.5t-33 -14.5t-26 -21.5t-21.5 -26.5l-82 79q37 47 90.5 74t131.5 27q99 0 151.5 -43.5t52.5 -123.5q0 -10 -1 -23t-4 -28l-41 -207h52l-22 -112
h-74q-38 0 -63 20t-25 57v15h-6q-23 -56 -62 -80t-92 -24zM230 89q34 0 63.5 17t37.5 54l12 62h-80q-39 0 -60 -14t-28 -43q-3 -13 -3.5 -20.5t-0.5 -10.5q0 -23 16.5 -34t42.5 -11zM327 572q-45 0 -77 13t-53.5 34t-34 48t-18.5 56l75 45l16 -29q11 -19 20.5 -32t20 -21
t24 -11.5t31.5 -3.5q15 0 28 3.5t26.5 11t28.5 20.5t33 33l27 29l73 -49q-20 -32 -41 -58.5t-47 -46.5t-58.5 -31t-73.5 -11zM363 733l-76 40l107 194l107 -58z" />
    <glyph glyph-name="uni1EB7.alt01" horiz-adv-x="561" 
d="M170 -12q-71 0 -108 37t-37 100q0 85 64.5 131.5t179.5 46.5h91l4 22q3 18 3 30q0 35 -19.5 52.5t-61.5 17.5q-23 0 -41.5 -5.5t-33 -14.5t-26 -21.5t-21.5 -26.5l-82 79q37 47 90.5 74t131.5 27q99 0 151.5 -43.5t52.5 -123.5q0 -10 -1 -23t-4 -28l-41 -207h52l-22 -112
h-74q-38 0 -63 20t-25 57v15h-6q-23 -56 -62 -80t-92 -24zM230 89q34 0 63.5 17t37.5 54l12 62h-80q-39 0 -60 -14t-28 -43q-3 -13 -3.5 -20.5t-0.5 -10.5q0 -23 16.5 -34t42.5 -11zM324 579q-42 0 -71.5 15t-49.5 39t-31.5 54.5t-17.5 61.5l80 42l18 -39q16 -34 32 -53
t48 -19q27 0 48.5 18.5t49.5 55.5l28 37l83 -46q-18 -32 -39 -62t-47 -53t-58 -37t-73 -14zM212 -202q-38 0 -54 14.5t-16 37.5q0 5 1.5 12.5t4.5 25.5q5 26 23.5 42t60.5 16q37 0 53 -14.5t16 -37.5q0 -5 -1.5 -12.5t-4.5 -25.5q-5 -26 -23.5 -42t-59.5 -16z" />
    <glyph glyph-name="uni1EB1.alt01" horiz-adv-x="561" 
d="M170 -12q-71 0 -108 37t-37 100q0 85 64.5 131.5t179.5 46.5h91l4 22q3 18 3 30q0 35 -19.5 52.5t-61.5 17.5q-23 0 -41.5 -5.5t-33 -14.5t-26 -21.5t-21.5 -26.5l-82 79q37 47 90.5 74t131.5 27q99 0 151.5 -43.5t52.5 -123.5q0 -10 -1 -23t-4 -28l-41 -207h52l-22 -112
h-74q-38 0 -63 20t-25 57v15h-6q-23 -56 -62 -80t-92 -24zM230 89q34 0 63.5 17t37.5 54l12 62h-80q-39 0 -60 -14t-28 -43q-3 -13 -3.5 -20.5t-0.5 -10.5q0 -23 16.5 -34t42.5 -11zM327 572q-45 0 -77 13t-53.5 34t-34 48t-18.5 56l75 45l16 -29q11 -19 20.5 -32t20 -21
t24 -11.5t31.5 -3.5q15 0 28 3.5t26.5 11t28.5 20.5t33 33l27 29l73 -49q-20 -32 -41 -58.5t-47 -46.5t-58.5 -31t-73.5 -11zM227 910l120 55l60 -193l-83 -38z" />
    <glyph glyph-name="uni1EB3.alt01" horiz-adv-x="561" 
d="M170 -12q-71 0 -108 37t-37 100q0 85 64.5 131.5t179.5 46.5h91l4 22q3 18 3 30q0 35 -19.5 52.5t-61.5 17.5q-23 0 -41.5 -5.5t-33 -14.5t-26 -21.5t-21.5 -26.5l-82 79q37 47 90.5 74t131.5 27q99 0 151.5 -43.5t52.5 -123.5q0 -10 -1 -23t-4 -28l-41 -207h52l-22 -112
h-74q-38 0 -63 20t-25 57v15h-6q-23 -56 -62 -80t-92 -24zM230 89q34 0 63.5 17t37.5 54l12 62h-80q-39 0 -60 -14t-28 -43q-3 -13 -3.5 -20.5t-0.5 -10.5q0 -23 16.5 -34t42.5 -11zM327 572q-45 0 -77 13t-53.5 34t-34 48t-18.5 56l75 45l16 -29q11 -19 20.5 -32t20 -21
t24 -11.5t31.5 -3.5q15 0 28 3.5t26.5 11t28.5 20.5t33 33l27 29l73 -49q-20 -32 -41 -58.5t-47 -46.5t-58.5 -31t-73.5 -11zM257 952h134q39 0 58 -16.5t19 -40.5q0 -32 -14.5 -56.5t-35.5 -51.5l-57 -66l-68 34l51 96h-107z" />
    <glyph glyph-name="uni1EB5.alt01" horiz-adv-x="561" 
d="M170 -12q-71 0 -108 37t-37 100q0 85 64.5 131.5t179.5 46.5h91l4 22q3 18 3 30q0 35 -19.5 52.5t-61.5 17.5q-23 0 -41.5 -5.5t-33 -14.5t-26 -21.5t-21.5 -26.5l-82 79q37 47 90.5 74t131.5 27q99 0 151.5 -43.5t52.5 -123.5q0 -10 -1 -23t-4 -28l-41 -207h52l-22 -112
h-74q-38 0 -63 20t-25 57v15h-6q-23 -56 -62 -80t-92 -24zM230 89q34 0 63.5 17t37.5 54l12 62h-80q-39 0 -60 -14t-28 -43q-3 -13 -3.5 -20.5t-0.5 -10.5q0 -23 16.5 -34t42.5 -11zM327 572q-45 0 -77 13t-53.5 34t-34 48t-18.5 56l75 45l16 -29q11 -19 20.5 -32t20 -21
t24 -11.5t31.5 -3.5q15 0 28 3.5t26.5 11t28.5 20.5t33 33l27 29l73 -49q-20 -32 -41 -58.5t-47 -46.5t-58.5 -31t-73.5 -11zM413 787q-20 0 -35.5 6t-32.5 14q-19 10 -34 16t-34 6q-16 0 -30 -6t-32 -19l-34 65q21 26 52 44t69 18q20 0 35.5 -6t32.5 -14q19 -10 34 -16
t34 -6q16 0 30 6t32 19l34 -65q-21 -26 -52 -44t-69 -18z" />
    <glyph glyph-name="uni1EA5.alt01" horiz-adv-x="561" 
d="M170 -12q-71 0 -108 37t-37 100q0 85 64.5 131.5t179.5 46.5h91l4 22q3 18 3 30q0 35 -19.5 52.5t-61.5 17.5q-23 0 -41.5 -5.5t-33 -14.5t-26 -21.5t-21.5 -26.5l-82 79q37 47 90.5 74t131.5 27q99 0 151.5 -43.5t52.5 -123.5q0 -10 -1 -23t-4 -28l-41 -207h52l-22 -112
h-74q-38 0 -63 20t-25 57v15h-6q-23 -56 -62 -80t-92 -24zM230 89q34 0 63.5 17t37.5 54l12 62h-80q-39 0 -60 -14t-28 -43q-3 -13 -3.5 -20.5t-0.5 -10.5q0 -23 16.5 -34t42.5 -11zM525 735l-76 40l104 190l108 -55zM405 780l113 -148l-71 -63l-98 105l-142 -105l-63 63
l171 148h90z" />
    <glyph glyph-name="uni1EAD.alt01" horiz-adv-x="561" 
d="M170 -12q-71 0 -108 37t-37 100q0 85 64.5 131.5t179.5 46.5h91l4 22q3 18 3 30q0 35 -19.5 52.5t-61.5 17.5q-23 0 -41.5 -5.5t-33 -14.5t-26 -21.5t-21.5 -26.5l-82 79q37 47 90.5 74t131.5 27q99 0 151.5 -43.5t52.5 -123.5q0 -10 -1 -23t-4 -28l-41 -207h52l-22 -112
h-74q-38 0 -63 20t-25 57v15h-6q-23 -56 -62 -80t-92 -24zM230 89q34 0 63.5 17t37.5 54l12 62h-80q-39 0 -60 -14t-28 -43q-3 -13 -3.5 -20.5t-0.5 -10.5q0 -23 16.5 -34t42.5 -11zM415 794l100 -158l-75 -57l-99 115l-134 -115l-70 57l156 158h122zM212 -202
q-38 0 -54 14.5t-16 37.5q0 5 1.5 12.5t4.5 25.5q5 26 23.5 42t60.5 16q37 0 53 -14.5t16 -37.5q0 -5 -1.5 -12.5t-4.5 -25.5q-5 -26 -23.5 -42t-59.5 -16z" />
    <glyph glyph-name="uni1EA7.alt01" horiz-adv-x="561" 
d="M170 -12q-71 0 -108 37t-37 100q0 85 64.5 131.5t179.5 46.5h91l4 22q3 18 3 30q0 35 -19.5 52.5t-61.5 17.5q-23 0 -41.5 -5.5t-33 -14.5t-26 -21.5t-21.5 -26.5l-82 79q37 47 90.5 74t131.5 27q99 0 151.5 -43.5t52.5 -123.5q0 -10 -1 -23t-4 -28l-41 -207h52l-22 -112
h-74q-38 0 -63 20t-25 57v15h-6q-23 -56 -62 -80t-92 -24zM230 89q34 0 63.5 17t37.5 54l12 62h-80q-39 0 -60 -14t-28 -43q-3 -13 -3.5 -20.5t-0.5 -10.5q0 -23 16.5 -34t42.5 -11zM73 910l112 55l73 -193l-73 -38zM405 780l113 -148l-71 -63l-98 105l-142 -105l-63 63
l171 148h90z" />
    <glyph glyph-name="uni1EA9.alt01" horiz-adv-x="561" 
d="M170 -12q-71 0 -108 37t-37 100q0 85 64.5 131.5t179.5 46.5h91l4 22q3 18 3 30q0 35 -19.5 52.5t-61.5 17.5q-23 0 -41.5 -5.5t-33 -14.5t-26 -21.5t-21.5 -26.5l-82 79q37 47 90.5 74t131.5 27q99 0 151.5 -43.5t52.5 -123.5q0 -10 -1 -23t-4 -28l-41 -207h52l-22 -112
h-74q-38 0 -63 20t-25 57v15h-6q-23 -56 -62 -80t-92 -24zM230 89q34 0 63.5 17t37.5 54l12 62h-80q-39 0 -60 -14t-28 -43q-3 -13 -3.5 -20.5t-0.5 -10.5q0 -23 16.5 -34t42.5 -11zM423 952h135q39 0 57.5 -16.5t18.5 -40.5q0 -32 -14 -56.5t-36 -51.5l-57 -66l-68 34
l52 96h-108zM405 780l113 -148l-71 -63l-98 105l-142 -105l-63 63l171 148h90z" />
    <glyph glyph-name="uni1EAB.alt01" horiz-adv-x="561" 
d="M170 -12q-71 0 -108 37t-37 100q0 85 64.5 131.5t179.5 46.5h91l4 22q3 18 3 30q0 35 -19.5 52.5t-61.5 17.5q-23 0 -41.5 -5.5t-33 -14.5t-26 -21.5t-21.5 -26.5l-82 79q37 47 90.5 74t131.5 27q99 0 151.5 -43.5t52.5 -123.5q0 -10 -1 -23t-4 -28l-41 -207h52l-22 -112
h-74q-38 0 -63 20t-25 57v15h-6q-23 -56 -62 -80t-92 -24zM230 89q34 0 63.5 17t37.5 54l12 62h-80q-39 0 -60 -14t-28 -43q-3 -13 -3.5 -20.5t-0.5 -10.5q0 -23 16.5 -34t42.5 -11zM319 941q19 0 33 -6t31 -14q20 -10 35 -16t32 -6q14 0 27 6t30 19l35 -65q-23 -26 -53 -44
t-66 -18q-19 0 -33 6t-31 14q-20 10 -35 16t-32 6q-14 0 -27 -6t-30 -19l-35 65q23 26 53 44t66 18zM400 768l115 -134l-72 -63l-103 104l-135 -104l-64 63l168 134h91z" />
    <glyph glyph-name="ae" unicode="&#xe6;" horiz-adv-x="827" 
d="M231 89q34 0 63 17.5t37 53.5l12 57l-81 -4q-31 -2 -55 -10.5t-32 -37.5q-3 -11 -3.5 -20.5t-0.5 -10.5q0 -23 16.5 -34t43.5 -11zM620 430q-45 0 -76.5 -29.5t-40.5 -80.5l-4 -19q56 3 91.5 10t55.5 16.5t27 22t7 27.5q0 17 -6 27.5t-15 16t-19.5 7.5t-19.5 2zM182 -12
q-78 0 -117.5 37t-39.5 100q0 82 64 123t179 46l91 4l5 27q3 18 3 30q0 70 -81 70q-23 0 -41.5 -5.5t-33 -14.5t-26 -21.5t-21.5 -26.5l-82 79q37 48 91.5 74.5t123.5 26.5q114 0 157 -76h7q32 35 73.5 55.5t95.5 20.5q29 0 61.5 -7t60.5 -23.5t46 -44.5t18 -70
q0 -80 -78.5 -125.5t-253.5 -50.5q-2 -12 -2 -19v-12q0 -38 20.5 -61t73.5 -23q34 0 63 14.5t64 58.5l86 -68q-49 -65 -102.5 -91.5t-121.5 -26.5q-75 0 -123.5 27t-73.5 77h-7q-26 -56 -73 -80t-106 -24z" />
    <glyph glyph-name="aeacute" unicode="&#x1fd;" horiz-adv-x="827" 
d="M231 89q34 0 63 17.5t37 53.5l12 57l-81 -4q-31 -2 -55 -10.5t-32 -37.5q-3 -11 -3.5 -20.5t-0.5 -10.5q0 -23 16.5 -34t43.5 -11zM620 430q-45 0 -76.5 -29.5t-40.5 -80.5l-4 -19q56 3 91.5 10t55.5 16.5t27 22t7 27.5q0 17 -6 27.5t-15 16t-19.5 7.5t-19.5 2zM182 -12
q-78 0 -117.5 37t-39.5 100q0 82 64 123t179 46l91 4l5 27q3 18 3 30q0 70 -81 70q-23 0 -41.5 -5.5t-33 -14.5t-26 -21.5t-21.5 -26.5l-82 79q37 48 91.5 74.5t123.5 26.5q114 0 157 -76h7q32 35 73.5 55.5t95.5 20.5q29 0 61.5 -7t60.5 -23.5t46 -44.5t18 -70
q0 -80 -78.5 -125.5t-253.5 -50.5q-2 -12 -2 -19v-12q0 -38 20.5 -61t73.5 -23q34 0 63 14.5t64 58.5l86 -68q-49 -65 -102.5 -91.5t-121.5 -26.5q-75 0 -123.5 27t-73.5 77h-7q-26 -56 -73 -80t-106 -24zM511 579l-84 46l119 190l112 -60z" />
    <glyph glyph-name="cacute" unicode="&#x107;" horiz-adv-x="494" 
d="M237 -12q-43 0 -80.5 12.5t-65.5 40t-44 70.5t-16 104q0 70 21 129t58.5 102t88.5 67t111 24q37 0 69.5 -9.5t57 -27.5t40.5 -43t21 -56l-118 -45q-9 31 -24.5 49.5t-53.5 18.5q-87 0 -109 -110l-18 -89q-5 -23 -5 -42q0 -37 18.5 -59.5t60.5 -22.5q20 0 35 6t26.5 17
t21.5 26t21 34l107 -50q-35 -73 -91.5 -109.5t-131.5 -36.5zM341 579l-84 46l119 190l112 -60z" />
    <glyph glyph-name="ccaron" unicode="&#x10d;" horiz-adv-x="494" 
d="M237 -12q-43 0 -80.5 12.5t-65.5 40t-44 70.5t-16 104q0 70 21 129t58.5 102t88.5 67t111 24q37 0 69.5 -9.5t57 -27.5t40.5 -43t21 -56l-118 -45q-9 31 -24.5 49.5t-53.5 18.5q-87 0 -109 -110l-18 -89q-5 -23 -5 -42q0 -37 18.5 -59.5t60.5 -22.5q20 0 35 6t26.5 17
t21.5 26t21 34l107 -50q-35 -73 -91.5 -109.5t-131.5 -36.5zM261 588l-101 158l74 57l96 -115l137 115l72 -57l-155 -158h-123z" />
    <glyph glyph-name="ccedilla" unicode="&#xe7;" horiz-adv-x="494" 
d="M310 537q37 0 69.5 -9.5t57 -27.5t40.5 -43t21 -56l-118 -45q-9 31 -24.5 49.5t-53.5 18.5q-87 0 -109 -110l-18 -89q-5 -23 -5 -42q0 -37 18.5 -59.5t60.5 -22.5q20 0 35 6t26.5 17t21.5 26t21 34l107 -50q-32 -66 -81 -102t-114 -42l-18 -45l2 -4q22 7 43 7
q26 0 44 -15t18 -41t-11.5 -45.5t-31 -32.5t-45.5 -19.5t-56 -6.5q-42 0 -70 13.5t-41 32.5l52 52q6 -9 21 -18.5t37 -9.5q21 0 35.5 7t14.5 24q0 12 -14 22t-52 14l-22 2l27 64q-36 5 -66.5 20.5t-53 42.5t-35 67t-12.5 94q0 70 21 129t58.5 102t88.5 67t111 24z" />
    <glyph glyph-name="ccircumflex" unicode="&#x109;" horiz-adv-x="494" 
d="M237 -12q-43 0 -80.5 12.5t-65.5 40t-44 70.5t-16 104q0 70 21 129t58.5 102t88.5 67t111 24q37 0 69.5 -9.5t57 -27.5t40.5 -43t21 -56l-118 -45q-9 31 -24.5 49.5t-53.5 18.5q-87 0 -109 -110l-18 -89q-5 -23 -5 -42q0 -37 18.5 -59.5t60.5 -22.5q20 0 35 6t26.5 17
t21.5 26t21 34l107 -50q-35 -73 -91.5 -109.5t-131.5 -36.5zM416 794l100 -158l-75 -57l-99 115l-134 -115l-70 57l156 158h122z" />
    <glyph glyph-name="cdotaccent" unicode="&#x10b;" horiz-adv-x="494" 
d="M237 -12q-43 0 -80.5 12.5t-65.5 40t-44 70.5t-16 104q0 70 21 129t58.5 102t88.5 67t111 24q37 0 69.5 -9.5t57 -27.5t40.5 -43t21 -56l-118 -45q-9 31 -24.5 49.5t-53.5 18.5q-87 0 -109 -110l-18 -89q-5 -23 -5 -42q0 -37 18.5 -59.5t60.5 -22.5q20 0 35 6t26.5 17
t21.5 26t21 34l107 -50q-35 -73 -91.5 -109.5t-131.5 -36.5zM327 591q-43 0 -59.5 16.5t-16.5 42.5q0 6 1.5 13.5t5.5 28.5q5 29 25.5 48t68.5 19q43 0 59.5 -16.5t16.5 -42.5q0 -6 -1.5 -13.5t-5.5 -28.5q-5 -29 -25.5 -48t-68.5 -19z" />
    <glyph glyph-name="dcaron" unicode="&#x10f;" horiz-adv-x="660" 
d="M430 0q-38 0 -63 20t-25 57q0 8 1 17t2 13l3 15h-6q-31 -64 -70 -99t-101 -35q-37 0 -63.5 13.5t-43.5 38t-25 58t-8 72.5q0 84 19.5 151.5t52.5 115.5t77.5 74t94.5 26q55 0 90.5 -30t40.5 -73h5l61 306h140l-126 -628h59l-22 -112h-93zM240 103q27 0 49 14t38 34
q17 20 29.5 47.5t18.5 56.5l16 80q8 40 -15 63.5t-67 23.5q-91 0 -115 -117l-14 -70q-2 -11 -4 -28t-2 -29q0 -35 17.5 -55t48.5 -20zM723 525h-97l50 215h156z" />
    <glyph glyph-name="dcroat" unicode="&#x111;" horiz-adv-x="594" 
d="M430 0q-38 0 -63 20t-25 57q0 8 1 17t2 13l3 15h-6q-31 -64 -70 -99t-101 -35q-37 0 -63.5 13.5t-43.5 38t-25 58t-8 72.5q0 84 19.5 151.5t52.5 115.5t77.5 74t94.5 26q55 0 90.5 -30t40.5 -73h5l32 158h-151l19 96h151l10 52h140l-10 -52h58l-20 -96h-57l-97 -480h59
l-22 -112h-93zM240 103q27 0 49 14t38 34q17 20 29.5 47.5t18.5 56.5l16 80q8 40 -15 63.5t-67 23.5q-91 0 -115 -117l-14 -70q-2 -11 -4 -28t-2 -29q0 -35 17.5 -55t48.5 -20z" />
    <glyph glyph-name="eth" unicode="&#xf0;" horiz-adv-x="573" 
d="M447 645q44 -60 66 -137t22 -164q0 -95 -24.5 -162t-65.5 -110.5t-94 -63.5t-109 -20q-100 0 -155.5 58t-55.5 165q0 61 18 114t49 92t72 61t87 22q53 0 86 -28.5t48 -73.5h9q-8 52 -28.5 99t-46.5 84l-107 -55l-32 62l94 49q-33 35 -65 60.5t-57 42.5h195q13 -10 24 -20
t22 -21l99 52l32 -63zM250 96q43 0 70.5 31t39.5 88l10 48q2 13 3 23t1 18q0 41 -20.5 63.5t-56.5 22.5q-43 0 -70.5 -31t-39.5 -88l-10 -48q-2 -13 -3 -23t-1 -18q0 -41 20.5 -63.5t56.5 -22.5z" />
    <glyph glyph-name="eacute" unicode="&#xe9;" horiz-adv-x="515" 
d="M253 -12q-112 0 -167 60.5t-55 165.5q0 63 20 121.5t57 103t90 71.5t118 27q30 0 63 -7t60.5 -23.5t46 -44.5t18.5 -71q0 -41 -19 -73.5t-59 -56t-103 -37t-151 -16.5q-2 -9 -2 -14v-9q0 -38 20.5 -61t72.5 -23q34 0 63.5 14.5t64.5 58.5l86 -68q-49 -65 -102.5 -91.5
t-121.5 -26.5zM308 430q-45 0 -76.5 -29.5t-40.5 -80.5l-4 -23q56 3 91.5 10t55.5 17.5t27 23.5t7 29q0 17 -6 27.5t-15 16t-19.5 7.5t-19.5 2zM351 579l-84 46l119 190l112 -60z" />
    <glyph glyph-name="ebreve" unicode="&#x115;" horiz-adv-x="515" 
d="M253 -12q-112 0 -167 60.5t-55 165.5q0 63 20 121.5t57 103t90 71.5t118 27q30 0 63 -7t60.5 -23.5t46 -44.5t18.5 -71q0 -41 -19 -73.5t-59 -56t-103 -37t-151 -16.5q-2 -9 -2 -14v-9q0 -38 20.5 -61t72.5 -23q34 0 63.5 14.5t64.5 58.5l86 -68q-49 -65 -102.5 -91.5
t-121.5 -26.5zM308 430q-45 0 -76.5 -29.5t-40.5 -80.5l-4 -23q56 3 91.5 10t55.5 17.5t27 23.5t7 29q0 17 -6 27.5t-15 16t-19.5 7.5t-19.5 2zM335 579q-42 0 -71.5 15t-49.5 39t-31.5 54.5t-17.5 61.5l80 42l18 -39q16 -34 32 -53t48 -19q27 0 48.5 18.5t49.5 55.5l28 37
l83 -46q-18 -32 -39 -62t-47 -53t-58 -37t-73 -14z" />
    <glyph glyph-name="ecaron" unicode="&#x11b;" horiz-adv-x="515" 
d="M253 -12q-112 0 -167 60.5t-55 165.5q0 63 20 121.5t57 103t90 71.5t118 27q30 0 63 -7t60.5 -23.5t46 -44.5t18.5 -71q0 -41 -19 -73.5t-59 -56t-103 -37t-151 -16.5q-2 -9 -2 -14v-9q0 -38 20.5 -61t72.5 -23q34 0 63.5 14.5t64.5 58.5l86 -68q-49 -65 -102.5 -91.5
t-121.5 -26.5zM308 430q-45 0 -76.5 -29.5t-40.5 -80.5l-4 -23q56 3 91.5 10t55.5 17.5t27 23.5t7 29q0 17 -6 27.5t-15 16t-19.5 7.5t-19.5 2zM271 588l-101 158l74 57l96 -115l137 115l72 -57l-155 -158h-123z" />
    <glyph glyph-name="ecircumflex" unicode="&#xea;" horiz-adv-x="515" 
d="M253 -12q-112 0 -167 60.5t-55 165.5q0 63 20 121.5t57 103t90 71.5t118 27q30 0 63 -7t60.5 -23.5t46 -44.5t18.5 -71q0 -41 -19 -73.5t-59 -56t-103 -37t-151 -16.5q-2 -9 -2 -14v-9q0 -38 20.5 -61t72.5 -23q34 0 63.5 14.5t64.5 58.5l86 -68q-49 -65 -102.5 -91.5
t-121.5 -26.5zM308 430q-45 0 -76.5 -29.5t-40.5 -80.5l-4 -23q56 3 91.5 10t55.5 17.5t27 23.5t7 29q0 17 -6 27.5t-15 16t-19.5 7.5t-19.5 2zM426 794l100 -158l-75 -57l-99 115l-134 -115l-70 57l156 158h122z" />
    <glyph glyph-name="edieresis" unicode="&#xeb;" horiz-adv-x="515" 
d="M253 -12q-112 0 -167 60.5t-55 165.5q0 63 20 121.5t57 103t90 71.5t118 27q30 0 63 -7t60.5 -23.5t46 -44.5t18.5 -71q0 -41 -19 -73.5t-59 -56t-103 -37t-151 -16.5q-2 -9 -2 -14v-9q0 -38 20.5 -61t72.5 -23q34 0 63.5 14.5t64.5 58.5l86 -68q-49 -65 -102.5 -91.5
t-121.5 -26.5zM308 430q-45 0 -76.5 -29.5t-40.5 -80.5l-4 -23q56 3 91.5 10t55.5 17.5t27 23.5t7 29q0 17 -6 27.5t-15 16t-19.5 7.5t-19.5 2zM237 600q-35 0 -50 14t-15 34q0 5 1.5 14t4.5 26q5 26 24 44.5t61 18.5q35 0 50 -14t15 -34q0 -5 -1.5 -14t-4.5 -26
q-5 -26 -24 -44.5t-61 -18.5zM437 600q-35 0 -50 14t-15 34q0 5 1.5 14t4.5 26q5 26 24 44.5t61 18.5q35 0 50 -14t15 -34q0 -5 -1.5 -14t-4.5 -26q-5 -26 -24 -44.5t-61 -18.5z" />
    <glyph glyph-name="edotaccent" unicode="&#x117;" horiz-adv-x="515" 
d="M253 -12q-112 0 -167 60.5t-55 165.5q0 63 20 121.5t57 103t90 71.5t118 27q30 0 63 -7t60.5 -23.5t46 -44.5t18.5 -71q0 -41 -19 -73.5t-59 -56t-103 -37t-151 -16.5q-2 -9 -2 -14v-9q0 -38 20.5 -61t72.5 -23q34 0 63.5 14.5t64.5 58.5l86 -68q-49 -65 -102.5 -91.5
t-121.5 -26.5zM308 430q-45 0 -76.5 -29.5t-40.5 -80.5l-4 -23q56 3 91.5 10t55.5 17.5t27 23.5t7 29q0 17 -6 27.5t-15 16t-19.5 7.5t-19.5 2zM337 591q-43 0 -59.5 16.5t-16.5 42.5q0 6 1.5 13.5t5.5 28.5q5 29 25.5 48t68.5 19q43 0 59.5 -16.5t16.5 -42.5
q0 -6 -1.5 -13.5t-5.5 -28.5q-5 -29 -25.5 -48t-68.5 -19z" />
    <glyph glyph-name="uni1EB9" unicode="&#x1eb9;" horiz-adv-x="515" 
d="M253 -12q-112 0 -167 60.5t-55 165.5q0 63 20 121.5t57 103t90 71.5t118 27q30 0 63 -7t60.5 -23.5t46 -44.5t18.5 -71q0 -41 -19 -73.5t-59 -56t-103 -37t-151 -16.5q-2 -9 -2 -14v-9q0 -38 20.5 -61t72.5 -23q34 0 63.5 14.5t64.5 58.5l86 -68q-49 -65 -102.5 -91.5
t-121.5 -26.5zM308 430q-45 0 -76.5 -29.5t-40.5 -80.5l-4 -23q56 3 91.5 10t55.5 17.5t27 23.5t7 29q0 17 -6 27.5t-15 16t-19.5 7.5t-19.5 2zM199 -202q-38 0 -54 14.5t-16 37.5q0 5 1.5 12.5t4.5 25.5q5 26 23.5 42t60.5 16q37 0 53 -14.5t16 -37.5q0 -5 -1.5 -12.5
t-4.5 -25.5q-5 -26 -23.5 -42t-59.5 -16z" />
    <glyph glyph-name="egrave" unicode="&#xe8;" horiz-adv-x="515" 
d="M253 -12q-112 0 -167 60.5t-55 165.5q0 63 20 121.5t57 103t90 71.5t118 27q30 0 63 -7t60.5 -23.5t46 -44.5t18.5 -71q0 -41 -19 -73.5t-59 -56t-103 -37t-151 -16.5q-2 -9 -2 -14v-9q0 -38 20.5 -61t72.5 -23q34 0 63.5 14.5t64.5 58.5l86 -68q-49 -65 -102.5 -91.5
t-121.5 -26.5zM308 430q-45 0 -76.5 -29.5t-40.5 -80.5l-4 -23q56 3 91.5 10t55.5 17.5t27 23.5t7 29q0 17 -6 27.5t-15 16t-19.5 7.5t-19.5 2zM204 756l126 59l68 -196l-89 -39z" />
    <glyph glyph-name="uni1EBB" unicode="&#x1ebb;" horiz-adv-x="515" 
d="M253 -12q-112 0 -167 60.5t-55 165.5q0 63 20 121.5t57 103t90 71.5t118 27q30 0 63 -7t60.5 -23.5t46 -44.5t18.5 -71q0 -41 -19 -73.5t-59 -56t-103 -37t-151 -16.5q-2 -9 -2 -14v-9q0 -38 20.5 -61t72.5 -23q34 0 63.5 14.5t64.5 58.5l86 -68q-49 -65 -102.5 -91.5
t-121.5 -26.5zM308 430q-45 0 -76.5 -29.5t-40.5 -80.5l-4 -23q56 3 91.5 10t55.5 17.5t27 23.5t7 29q0 17 -6 27.5t-15 16t-19.5 7.5t-19.5 2zM259 802h146q39 0 58.5 -16.5t19.5 -40.5q0 -32 -15 -56.5t-36 -51.5l-56 -66l-69 34l49 93h-117z" />
    <glyph glyph-name="emacron" unicode="&#x113;" horiz-adv-x="515" 
d="M253 -12q-112 0 -167 60.5t-55 165.5q0 63 20 121.5t57 103t90 71.5t118 27q30 0 63 -7t60.5 -23.5t46 -44.5t18.5 -71q0 -41 -19 -73.5t-59 -56t-103 -37t-151 -16.5q-2 -9 -2 -14v-9q0 -38 20.5 -61t72.5 -23q34 0 63.5 14.5t64.5 58.5l86 -68q-49 -65 -102.5 -91.5
t-121.5 -26.5zM308 430q-45 0 -76.5 -29.5t-40.5 -80.5l-4 -23q56 3 91.5 10t55.5 17.5t27 23.5t7 29q0 17 -6 27.5t-15 16t-19.5 7.5t-19.5 2zM221 727h278l-20 -102h-278z" />
    <glyph glyph-name="eogonek" unicode="&#x119;" horiz-adv-x="515" 
d="M234 -212q-50 0 -84.5 21t-34.5 62q0 35 29.5 66t89.5 48l-1 4q-103 5 -152.5 66t-49.5 159q0 63 20 121.5t57 103t90 71.5t118 27q30 0 63 -7t60.5 -23.5t46 -44.5t18.5 -71q0 -41 -19 -73.5t-59 -56t-103 -37t-151 -16.5q-2 -9 -2 -14v-9q0 -38 20.5 -61t72.5 -23
q34 0 63.5 14.5t64.5 58.5l86 -68q-20 -27 -38.5 -44t-36 -29t-34 -20t-33.5 -17q-41 -22 -64 -39t-35 -30t-15 -22.5t-3 -15.5q0 -12 7.5 -20.5t27.5 -8.5q16 0 30 5.5t24 21.5l52 -49q-19 -23 -48 -36.5t-77 -13.5zM308 430q-45 0 -76.5 -29.5t-40.5 -80.5l-4 -23
q56 3 91.5 10t55.5 17.5t27 23.5t7 29q0 17 -6 27.5t-15 16t-19.5 7.5t-19.5 2z" />
    <glyph glyph-name="uni1EBD" unicode="&#x1ebd;" horiz-adv-x="515" 
d="M253 -12q-112 0 -167 60.5t-55 165.5q0 63 20 121.5t57 103t90 71.5t118 27q30 0 63 -7t60.5 -23.5t46 -44.5t18.5 -71q0 -41 -19 -73.5t-59 -56t-103 -37t-151 -16.5q-2 -9 -2 -14v-9q0 -38 20.5 -61t72.5 -23q34 0 63.5 14.5t64.5 58.5l86 -68q-49 -65 -102.5 -91.5
t-121.5 -26.5zM308 430q-45 0 -76.5 -29.5t-40.5 -80.5l-4 -23q56 3 91.5 10t55.5 17.5t27 23.5t7 29q0 17 -6 27.5t-15 16t-19.5 7.5t-19.5 2zM417 601q-22 0 -39 6t-37 15q-19 9 -35.5 15.5t-36.5 6.5q-17 0 -29 -6t-29 -19l-43 69q23 29 51.5 45.5t63.5 16.5q22 0 39 -6
t37 -15q19 -9 35.5 -15.5t36.5 -6.5q17 0 29 6t29 19l43 -69q-23 -29 -51.5 -45.5t-63.5 -16.5z" />
    <glyph glyph-name="uni1EBF" unicode="&#x1ebf;" horiz-adv-x="515" 
d="M253 -12q-112 0 -167 60.5t-55 165.5q0 63 20 121.5t57 103t90 71.5t118 27q30 0 63 -7t60.5 -23.5t46 -44.5t18.5 -71q0 -41 -19 -73.5t-59 -56t-103 -37t-151 -16.5q-2 -9 -2 -14v-9q0 -38 20.5 -61t72.5 -23q34 0 63.5 14.5t64.5 58.5l86 -68q-49 -65 -102.5 -91.5
t-121.5 -26.5zM308 430q-45 0 -76.5 -29.5t-40.5 -80.5l-4 -23q56 3 91.5 10t55.5 17.5t27 23.5t7 29q0 17 -6 27.5t-15 16t-19.5 7.5t-19.5 2zM536 735l-76 40l104 190l108 -55zM416 780l113 -148l-71 -63l-98 105l-142 -105l-63 63l171 148h90z" />
    <glyph glyph-name="uni1EC7" unicode="&#x1ec7;" horiz-adv-x="515" 
d="M253 -12q-112 0 -167 60.5t-55 165.5q0 63 20 121.5t57 103t90 71.5t118 27q30 0 63 -7t60.5 -23.5t46 -44.5t18.5 -71q0 -41 -19 -73.5t-59 -56t-103 -37t-151 -16.5q-2 -9 -2 -14v-9q0 -38 20.5 -61t72.5 -23q34 0 63.5 14.5t64.5 58.5l86 -68q-49 -65 -102.5 -91.5
t-121.5 -26.5zM308 430q-45 0 -76.5 -29.5t-40.5 -80.5l-4 -23q56 3 91.5 10t55.5 17.5t27 23.5t7 29q0 17 -6 27.5t-15 16t-19.5 7.5t-19.5 2zM426 794l100 -158l-75 -57l-99 115l-134 -115l-70 57l156 158h122zM199 -202q-38 0 -54 14.5t-16 37.5q0 5 1.5 12.5t4.5 25.5
q5 26 23.5 42t60.5 16q37 0 53 -14.5t16 -37.5q0 -5 -1.5 -12.5t-4.5 -25.5q-5 -26 -23.5 -42t-59.5 -16z" />
    <glyph glyph-name="uni1EC1" unicode="&#x1ec1;" horiz-adv-x="515" 
d="M253 -12q-112 0 -167 60.5t-55 165.5q0 63 20 121.5t57 103t90 71.5t118 27q30 0 63 -7t60.5 -23.5t46 -44.5t18.5 -71q0 -41 -19 -73.5t-59 -56t-103 -37t-151 -16.5q-2 -9 -2 -14v-9q0 -38 20.5 -61t72.5 -23q34 0 63.5 14.5t64.5 58.5l86 -68q-49 -65 -102.5 -91.5
t-121.5 -26.5zM308 430q-45 0 -76.5 -29.5t-40.5 -80.5l-4 -23q56 3 91.5 10t55.5 17.5t27 23.5t7 29q0 17 -6 27.5t-15 16t-19.5 7.5t-19.5 2zM84 910l112 55l73 -193l-73 -38zM416 780l113 -148l-71 -63l-98 105l-142 -105l-63 63l171 148h90z" />
    <glyph glyph-name="uni1EC3" unicode="&#x1ec3;" horiz-adv-x="515" 
d="M253 -12q-112 0 -167 60.5t-55 165.5q0 63 20 121.5t57 103t90 71.5t118 27q30 0 63 -7t60.5 -23.5t46 -44.5t18.5 -71q0 -41 -19 -73.5t-59 -56t-103 -37t-151 -16.5q-2 -9 -2 -14v-9q0 -38 20.5 -61t72.5 -23q34 0 63.5 14.5t64.5 58.5l86 -68q-49 -65 -102.5 -91.5
t-121.5 -26.5zM308 430q-45 0 -76.5 -29.5t-40.5 -80.5l-4 -23q56 3 91.5 10t55.5 17.5t27 23.5t7 29q0 17 -6 27.5t-15 16t-19.5 7.5t-19.5 2zM434 952h135q39 0 57.5 -16.5t18.5 -40.5q0 -32 -14 -56.5t-36 -51.5l-57 -66l-68 34l52 96h-108zM416 780l113 -148l-71 -63
l-98 105l-142 -105l-63 63l171 148h90z" />
    <glyph glyph-name="uni1EC5" unicode="&#x1ec5;" horiz-adv-x="515" 
d="M253 -12q-112 0 -167 60.5t-55 165.5q0 63 20 121.5t57 103t90 71.5t118 27q30 0 63 -7t60.5 -23.5t46 -44.5t18.5 -71q0 -41 -19 -73.5t-59 -56t-103 -37t-151 -16.5q-2 -9 -2 -14v-9q0 -38 20.5 -61t72.5 -23q34 0 63.5 14.5t64.5 58.5l86 -68q-49 -65 -102.5 -91.5
t-121.5 -26.5zM308 430q-45 0 -76.5 -29.5t-40.5 -80.5l-4 -23q56 3 91.5 10t55.5 17.5t27 23.5t7 29q0 17 -6 27.5t-15 16t-19.5 7.5t-19.5 2zM330 941q19 0 33 -6t31 -14q20 -10 35 -16t32 -6q14 0 27 6t30 19l35 -65q-23 -26 -53 -44t-66 -18q-19 0 -33 6t-31 14
q-20 10 -35 16t-32 6q-14 0 -27 -6t-30 -19l-35 65q23 26 53 44t66 18zM411 768l115 -134l-72 -63l-103 104l-135 -104l-64 63l168 134h91z" />
    <glyph glyph-name="uni0259" unicode="&#x259;" horiz-adv-x="515" 
d="M199 -12q-30 0 -63 7t-60.5 23.5t-46 44.5t-18.5 71q0 40 19 73t59 56.5t103 37t151 16.5q2 9 2 14v9q0 38 -20.5 61t-72.5 23q-17 0 -32.5 -3t-31 -11.5t-31 -22.5t-33.5 -36l-86 68q49 65 102.5 91.5t121.5 26.5q112 0 167 -60.5t55 -165.5q0 -63 -20 -121.5t-57 -103
t-90 -71.5t-118 -27zM207 95q45 0 76.5 29.5t40.5 80.5l4 23q-56 -3 -91.5 -10t-55.5 -17.5t-27 -23.5t-7 -29q0 -17 6 -27.5t15 -16t19.5 -7.5t19.5 -2z" />
    <glyph glyph-name="gbreve" unicode="&#x11f;" horiz-adv-x="540" 
d="M310 579q-42 0 -71.5 15t-49.5 39t-31.5 54.5t-17.5 61.5l80 42l18 -39q16 -34 32 -53t48 -19q27 0 48.5 18.5t49.5 55.5l28 37l83 -46q-18 -32 -39 -62t-47 -53t-58 -37t-73 -14zM497 -22q0 -34 -13.5 -68t-48 -61t-93 -44t-149.5 -17q-66 0 -109 9t-68.5 25t-35.5 37
t-10 45t9 42t24.5 31t36.5 21.5t45 14.5v7q-29 6 -44 26.5t-15 49.5q0 22 9.5 39.5t25.5 31t37 22t43 13.5l1 7q-37 19 -56.5 52t-19.5 79q0 36 14 71.5t44 63.5t76 45t111 17q23 0 44 -3.5t39 -8.5h185l-19 -98h-65q10 -20 10 -46q0 -36 -14 -71.5t-44 -63.5t-76.5 -45
t-110.5 -17q-47 0 -81 10q-17 -7 -27.5 -20t-10.5 -29q0 -33 53 -33h129q174 0 174 -134zM272 280q42 0 65 18.5t30 53.5q3 15 3.5 22t0.5 11q0 56 -73 56q-42 0 -65 -18.5t-30 -53.5q-3 -15 -3.5 -22t-0.5 -11q0 -56 73 -56zM357 -52q0 21 -15 32t-56 11h-173
q-15 -11 -21 -26.5t-6 -28.5q0 -24 20 -38t70 -14h65q66 0 91 19t25 45z" />
    <glyph glyph-name="gcircumflex" unicode="&#x11d;" horiz-adv-x="540" 
d="M401 794l100 -158l-75 -57l-99 115l-134 -115l-70 57l156 158h122zM497 -22q0 -34 -13.5 -68t-48 -61t-93 -44t-149.5 -17q-66 0 -109 9t-68.5 25t-35.5 37t-10 45t9 42t24.5 31t36.5 21.5t45 14.5v7q-29 6 -44 26.5t-15 49.5q0 22 9.5 39.5t25.5 31t37 22t43 13.5l1 7
q-37 19 -56.5 52t-19.5 79q0 36 14 71.5t44 63.5t76 45t111 17q23 0 44 -3.5t39 -8.5h185l-19 -98h-65q10 -20 10 -46q0 -36 -14 -71.5t-44 -63.5t-76.5 -45t-110.5 -17q-47 0 -81 10q-17 -7 -27.5 -20t-10.5 -29q0 -33 53 -33h129q174 0 174 -134zM272 280q42 0 65 18.5
t30 53.5q3 15 3.5 22t0.5 11q0 56 -73 56q-42 0 -65 -18.5t-30 -53.5q-3 -15 -3.5 -22t-0.5 -11q0 -56 73 -56zM357 -52q0 21 -15 32t-56 11h-173q-15 -11 -21 -26.5t-6 -28.5q0 -24 20 -38t70 -14h65q66 0 91 19t25 45z" />
    <glyph glyph-name="gcommaaccent" unicode="&#x123;" horiz-adv-x="540" 
d="M497 -22q0 -34 -13.5 -68t-48 -61t-93 -44t-149.5 -17q-66 0 -109 9t-68.5 25t-35.5 37t-10 45t9 42t24.5 31t36.5 21.5t45 14.5v7q-29 6 -44 26.5t-15 49.5q0 22 9.5 39.5t25.5 31t37 22t43 13.5l1 7q-37 19 -56.5 52t-19.5 79q0 36 14 71.5t44 63.5t76 45t111 17
q23 0 44 -3.5t39 -8.5h185l-19 -98h-65q10 -20 10 -46q0 -36 -14 -71.5t-44 -63.5t-76.5 -45t-110.5 -17q-47 0 -81 10q-17 -7 -27.5 -20t-10.5 -29q0 -33 53 -33h129q174 0 174 -134zM272 280q42 0 65 18.5t30 53.5q3 15 3.5 22t0.5 11q0 56 -73 56q-42 0 -65 -18.5
t-30 -53.5q-3 -15 -3.5 -22t-0.5 -11q0 -56 73 -56zM357 -52q0 21 -15 32t-56 11h-173q-15 -11 -21 -26.5t-6 -28.5q0 -24 20 -38t70 -14h65q66 0 91 19t25 45zM307 576q-63 0 -63 51q0 6 0.5 11t2.5 16q4 22 14 45t22.5 43t28 37.5t31.5 29.5h83q-29 -22 -47.5 -45.5
t-32.5 -53.5q23 -2 31 -14.5t8 -30.5q0 -7 -4 -27q-6 -30 -25.5 -46t-48.5 -16z" />
    <glyph glyph-name="gdotaccent" unicode="&#x121;" horiz-adv-x="540" 
d="M497 -22q0 -34 -13.5 -68t-48 -61t-93 -44t-149.5 -17q-66 0 -109 9t-68.5 25t-35.5 37t-10 45t9 42t24.5 31t36.5 21.5t45 14.5v7q-29 6 -44 26.5t-15 49.5q0 22 9.5 39.5t25.5 31t37 22t43 13.5l1 7q-37 19 -56.5 52t-19.5 79q0 36 14 71.5t44 63.5t76 45t111 17
q23 0 44 -3.5t39 -8.5h185l-19 -98h-65q10 -20 10 -46q0 -36 -14 -71.5t-44 -63.5t-76.5 -45t-110.5 -17q-47 0 -81 10q-17 -7 -27.5 -20t-10.5 -29q0 -33 53 -33h129q174 0 174 -134zM272 280q42 0 65 18.5t30 53.5q3 15 3.5 22t0.5 11q0 56 -73 56q-42 0 -65 -18.5
t-30 -53.5q-3 -15 -3.5 -22t-0.5 -11q0 -56 73 -56zM357 -52q0 21 -15 32t-56 11h-173q-15 -11 -21 -26.5t-6 -28.5q0 -24 20 -38t70 -14h65q66 0 91 19t25 45zM312 591q-43 0 -59.5 16.5t-16.5 42.5q0 6 1.5 13.5t5.5 28.5q5 29 25.5 48t68.5 19q43 0 59.5 -16.5
t16.5 -42.5q0 -6 -1.5 -13.5t-5.5 -28.5q-5 -29 -25.5 -48t-68.5 -19z" />
    <glyph glyph-name="gbreve.alt01" horiz-adv-x="582" 
d="M173 2q-37 0 -63.5 13.5t-43.5 38t-25 58t-8 72.5q0 84 19 149.5t51.5 110.5t76.5 69t94 24q55 0 90.5 -30t40.5 -73h5l18 91h140l-101 -506q-11 -55 -30.5 -98t-50 -72.5t-75 -45t-104.5 -15.5q-66 0 -119.5 21t-91.5 73l89 81q19 -29 49.5 -46t68.5 -17q52 0 82.5 32.5
t42.5 93.5l22 110h-6q-31 -64 -70 -99t-101 -35zM242 117q27 0 49 14t38 34q17 20 29.5 47.5t18.5 56.5l13 66q3 16 -0.5 31.5t-13.5 28t-27 20t-41 7.5q-91 0 -115 -117l-11 -56q-2 -11 -4 -28t-2 -29q0 -35 17.5 -55t48.5 -20zM339 579q-42 0 -71.5 15t-49.5 39
t-31.5 54.5t-17.5 61.5l80 42l18 -39q16 -34 32 -53t48 -19q27 0 48.5 18.5t49.5 55.5l28 37l83 -46q-18 -32 -39 -62t-47 -53t-58 -37t-73 -14z" />
    <glyph glyph-name="gcircumflex.alt01" horiz-adv-x="582" 
d="M173 2q-37 0 -63.5 13.5t-43.5 38t-25 58t-8 72.5q0 84 19 149.5t51.5 110.5t76.5 69t94 24q55 0 90.5 -30t40.5 -73h5l18 91h140l-101 -506q-11 -55 -30.5 -98t-50 -72.5t-75 -45t-104.5 -15.5q-66 0 -119.5 21t-91.5 73l89 81q19 -29 49.5 -46t68.5 -17q52 0 82.5 32.5
t42.5 93.5l22 110h-6q-31 -64 -70 -99t-101 -35zM242 117q27 0 49 14t38 34q17 20 29.5 47.5t18.5 56.5l13 66q3 16 -0.5 31.5t-13.5 28t-27 20t-41 7.5q-91 0 -115 -117l-11 -56q-2 -11 -4 -28t-2 -29q0 -35 17.5 -55t48.5 -20zM430 794l100 -158l-75 -57l-99 115
l-134 -115l-70 57l156 158h122z" />
    <glyph glyph-name="gcommaaccent.alt01" horiz-adv-x="582" 
d="M173 2q-37 0 -63.5 13.5t-43.5 38t-25 58t-8 72.5q0 84 19 149.5t51.5 110.5t76.5 69t94 24q55 0 90.5 -30t40.5 -73h5l18 91h140l-101 -506q-11 -55 -30.5 -98t-50 -72.5t-75 -45t-104.5 -15.5q-66 0 -119.5 21t-91.5 73l89 81q19 -29 49.5 -46t68.5 -17q52 0 82.5 32.5
t42.5 93.5l22 110h-6q-31 -64 -70 -99t-101 -35zM242 117q27 0 49 14t38 34q17 20 29.5 47.5t18.5 56.5l13 66q3 16 -0.5 31.5t-13.5 28t-27 20t-41 7.5q-91 0 -115 -117l-11 -56q-2 -11 -4 -28t-2 -29q0 -35 17.5 -55t48.5 -20zM335 576q-63 0 -63 51q0 6 0.5 11t2.5 16
q4 22 14 45t22.5 43t28 37.5t31.5 29.5h83q-29 -22 -47.5 -45.5t-32.5 -53.5q23 -2 31 -14.5t8 -30.5q0 -7 -4 -27q-6 -30 -25.5 -46t-48.5 -16z" />
    <glyph glyph-name="gdotaccent.alt01" horiz-adv-x="582" 
d="M173 2q-37 0 -63.5 13.5t-43.5 38t-25 58t-8 72.5q0 84 19 149.5t51.5 110.5t76.5 69t94 24q55 0 90.5 -30t40.5 -73h5l18 91h140l-101 -506q-11 -55 -30.5 -98t-50 -72.5t-75 -45t-104.5 -15.5q-66 0 -119.5 21t-91.5 73l89 81q19 -29 49.5 -46t68.5 -17q52 0 82.5 32.5
t42.5 93.5l22 110h-6q-31 -64 -70 -99t-101 -35zM242 117q27 0 49 14t38 34q17 20 29.5 47.5t18.5 56.5l13 66q3 16 -0.5 31.5t-13.5 28t-27 20t-41 7.5q-91 0 -115 -117l-11 -56q-2 -11 -4 -28t-2 -29q0 -35 17.5 -55t48.5 -20zM341 591q-43 0 -59.5 16.5t-16.5 42.5
q0 6 1.5 13.5t5.5 28.5q5 29 25.5 48t68.5 19q43 0 59.5 -16.5t16.5 -42.5q0 -6 -1.5 -13.5t-5.5 -28.5q-5 -29 -25.5 -48t-68.5 -19z" />
    <glyph glyph-name="hbar" unicode="&#x127;" horiz-adv-x="588" 
d="M132 592h-69l20 96h68l11 52h140l-11 -52h141l-20 -96h-140l-37 -189h6q30 63 71 98.5t103 35.5q61 0 93.5 -35.5t32.5 -100.5q0 -19 -2.5 -36.5t-6.5 -37.5l-43 -215h53l-22 -112h-91q-40 0 -62 20.5t-22 55.5q0 9 1 16.5t2 11.5l41 208q3 14 5 27.5t2 28.5
q0 23 -12 37.5t-41 14.5q-26 0 -47 -14t-38 -34q-18 -21 -31 -46.5t-19 -55.5l-54 -270h-140z" />
    <glyph glyph-name="hcircumflex" unicode="&#x125;" horiz-adv-x="588" 
d="M162 740h140l-67 -337h6q30 63 71 98.5t103 35.5q61 0 93.5 -35.5t32.5 -100.5q0 -19 -2.5 -36.5t-6.5 -37.5l-43 -215h53l-22 -112h-91q-40 0 -62 20.5t-22 55.5q0 9 1 16.5t2 11.5l41 208q3 14 5 27.5t2 28.5q0 23 -12 37.5t-41 14.5q-26 0 -47 -14t-38 -34
q-18 -21 -31 -46.5t-19 -55.5l-54 -270h-140zM327 952l100 -158l-75 -57l-99 115l-134 -115l-70 57l156 158h122z" />
    <glyph glyph-name="dotlessi" unicode="&#x131;" horiz-adv-x="281" 
d="M122 0q-41 0 -65.5 22t-24.5 58q0 10 3 25l84 420h140l-83 -413h59l-22 -112h-91z" />
    <glyph glyph-name="iacute" unicode="&#xed;" horiz-adv-x="281" 
d="M122 0q-41 0 -65.5 22t-24.5 58q0 10 3 25l84 420h140l-83 -413h59l-22 -112h-91zM218 579l-84 46l119 190l112 -60z" />
    <glyph glyph-name="ibreve" unicode="&#x12d;" horiz-adv-x="281" 
d="M122 0q-41 0 -65.5 22t-24.5 58q0 10 3 25l84 420h140l-83 -413h59l-22 -112h-91zM202 579q-42 0 -71.5 15t-49.5 39t-31.5 54.5t-17.5 61.5l80 42l18 -39q16 -34 32 -53t48 -19q27 0 48.5 18.5t49.5 55.5l28 37l83 -46q-18 -32 -39 -62t-47 -53t-58 -37t-73 -14z" />
    <glyph glyph-name="icircumflex" unicode="&#xee;" horiz-adv-x="281" 
d="M122 0q-41 0 -65.5 22t-24.5 58q0 10 3 25l84 420h140l-83 -413h59l-22 -112h-91zM293 794l100 -158l-75 -57l-99 115l-134 -115l-70 57l156 158h122z" />
    <glyph glyph-name="idieresis" unicode="&#xef;" horiz-adv-x="281" 
d="M122 0q-41 0 -65.5 22t-24.5 58q0 10 3 25l84 420h140l-83 -413h59l-22 -112h-91zM104 600q-35 0 -50 14t-15 34q0 5 1.5 14t4.5 26q5 26 24 44.5t61 18.5q35 0 50 -14t15 -34q0 -5 -1.5 -14t-4.5 -26q-5 -26 -24 -44.5t-61 -18.5zM304 600q-35 0 -50 14t-15 34
q0 5 1.5 14t4.5 26q5 26 24 44.5t61 18.5q35 0 50 -14t15 -34q0 -5 -1.5 -14t-4.5 -26q-5 -26 -24 -44.5t-61 -18.5z" />
    <glyph glyph-name="uni1ECB" unicode="&#x1ecb;" horiz-adv-x="281" 
d="M202 583q-37 0 -54.5 14t-17.5 38q0 9 2 20t4 20q3 13 9 26t17 23t28 16.5t42 6.5q37 0 54.5 -14t17.5 -38q0 -9 -2 -20t-4 -20q-3 -13 -9 -26t-17 -23t-28 -16.5t-42 -6.5zM122 0q-41 0 -65.5 22t-24.5 58q0 10 3 25l84 420h140l-83 -413h59l-22 -112h-91zM90 -202
q-38 0 -54 14.5t-16 37.5q0 5 1.5 12.5t4.5 25.5q5 26 23.5 42t60.5 16q37 0 53 -14.5t16 -37.5q0 -5 -1.5 -12.5t-4.5 -25.5q-5 -26 -23.5 -42t-59.5 -16z" />
    <glyph glyph-name="igrave" unicode="&#xec;" horiz-adv-x="281" 
d="M122 0q-41 0 -65.5 22t-24.5 58q0 10 3 25l84 420h140l-83 -413h59l-22 -112h-91zM71 756l126 59l68 -196l-89 -39z" />
    <glyph glyph-name="uni1EC9" unicode="&#x1ec9;" horiz-adv-x="281" 
d="M122 0q-41 0 -65.5 22t-24.5 58q0 10 3 25l84 420h140l-83 -413h59l-22 -112h-91zM125 802h146q39 0 58.5 -16.5t19.5 -40.5q0 -32 -15 -56.5t-36 -51.5l-56 -66l-69 34l49 93h-117z" />
    <glyph glyph-name="imacron" unicode="&#x12b;" horiz-adv-x="281" 
d="M122 0q-41 0 -65.5 22t-24.5 58q0 10 3 25l84 420h140l-83 -413h59l-22 -112h-91zM88 727h278l-20 -102h-278z" />
    <glyph glyph-name="iogonek" unicode="&#x12f;" horiz-adv-x="281" 
d="M213 0q-41 -25 -65 -42.5t-36 -30.5t-15 -22t-3 -16q0 -12 7.5 -20.5t27.5 -8.5q16 0 30 5.5t24 21.5l52 -49q-19 -23 -48 -36.5t-77 -13.5q-50 0 -84.5 21t-34.5 62q0 38 33.5 71.5t106.5 53.5l-1 4h-8q-41 0 -65.5 22t-24.5 58q0 10 3 25l84 420h140l-83 -413h59z
M202 583q-37 0 -54.5 14t-17.5 38q0 9 2 20t4 20q3 13 9 26t17 23t28 16.5t42 6.5q37 0 54.5 -14t17.5 -38q0 -9 -2 -20t-4 -20q-3 -13 -9 -26t-17 -23t-28 -16.5t-42 -6.5z" />
    <glyph glyph-name="itilde" unicode="&#x129;" horiz-adv-x="281" 
d="M122 0q-41 0 -65.5 22t-24.5 58q0 10 3 25l84 420h140l-83 -413h59l-22 -112h-91zM284 601q-22 0 -39 6t-37 15q-19 9 -35.5 15.5t-36.5 6.5q-17 0 -29 -6t-29 -19l-43 69q23 29 51.5 45.5t63.5 16.5q22 0 39 -6t37 -15q19 -9 35.5 -15.5t36.5 -6.5q17 0 29 6t29 19
l43 -69q-23 -29 -51.5 -45.5t-63.5 -16.5z" />
    <glyph glyph-name="ij" unicode="&#x133;" horiz-adv-x="560" 
d="M202 583q-37 0 -54.5 14t-17.5 38q0 9 2 20t4 20q3 13 9 26t17 23t28 16.5t42 6.5q37 0 54.5 -14t17.5 -38q0 -9 -2 -20t-4 -20q-3 -13 -9 -26t-17 -23t-28 -16.5t-42 -6.5zM122 0q-41 0 -65.5 22t-24.5 58q0 10 3 25l84 420h140l-83 -413h59l-22 -112h-91zM407 525h140
l-119 -586q-14 -69 -51.5 -104t-110.5 -35h-79l22 112h75zM490 583q-37 0 -54.5 14t-17.5 38q0 9 2 20t4 20q3 13 9 26t17 23t28 16.5t42 6.5q37 0 54.5 -14t17.5 -38q0 -9 -2 -20t-4 -20q-3 -13 -9 -26t-17 -23t-28 -16.5t-42 -6.5z" />
    <glyph glyph-name="uni0237" unicode="&#x237;" horiz-adv-x="276" 
d="M-75 -88h75l123 613h140l-119 -586q-14 -69 -51.5 -104t-110.5 -35h-79z" />
    <glyph glyph-name="jcircumflex" unicode="&#x135;" horiz-adv-x="276" 
d="M-75 -88h75l123 613h140l-119 -586q-14 -69 -51.5 -104t-110.5 -35h-79zM300 794l100 -158l-75 -57l-99 115l-134 -115l-70 57l156 158h122z" />
    <glyph glyph-name="kcommaaccent" unicode="&#x137;" horiz-adv-x="550" 
d="M162 740h140l-87 -435h7l72 90l126 130h163l-213 -213l72 -200h61l-24 -112h-75q-74 0 -99 79l-44 137l-79 -74l-28 -142h-140zM241 -42q63 0 63 -51q0 -6 -0.5 -11t-2.5 -16q-5 -23 -14.5 -45.5t-22 -42.5t-28 -37.5t-31.5 -29.5h-83q29 22 47.5 45.5t32.5 53.5
q-23 2 -31 14.5t-8 30.5q0 7 4 27q6 30 25.5 46t48.5 16z" />
    <glyph glyph-name="kgreenlandic" unicode="&#x138;" horiz-adv-x="555" 
d="M119 525h140l-44 -220h7l78 89l130 131h163l-217 -214l66 -199h61l-24 -112h-75q-72 0 -98 80l-43 136l-81 -74l-28 -142h-140z" />
    <glyph glyph-name="lacute" unicode="&#x13a;" horiz-adv-x="281" 
d="M122 0q-41 0 -65.5 22t-24.5 58q0 10 3 25l127 635h140l-126 -628h62l-22 -112h-94zM263 779l-84 46l119 190l112 -60z" />
    <glyph glyph-name="lcaron" unicode="&#x13e;" horiz-adv-x="350" 
d="M122 0q-41 0 -65.5 22t-24.5 58q0 10 3 25l127 635h140l-126 -628h62l-22 -112h-94zM415 525h-97l50 215h156z" />
    <glyph glyph-name="lcommaaccent" unicode="&#x13c;" horiz-adv-x="281" 
d="M122 0q-41 0 -65.5 22t-24.5 58q0 10 3 25l127 635h140l-126 -628h62l-22 -112h-94zM118 -42q63 0 63 -51q0 -6 -0.5 -11t-2.5 -16q-5 -23 -14.5 -45.5t-22 -42.5t-28 -37.5t-31.5 -29.5h-83q29 22 47.5 45.5t32.5 53.5q-23 2 -31 14.5t-8 30.5q0 7 4 27q6 30 25.5 46
t48.5 16z" />
    <glyph glyph-name="ldot" unicode="&#x140;" horiz-adv-x="421" 
d="M122 0q-41 0 -65.5 22t-24.5 58q0 10 3 25l127 635h140l-126 -628h62l-22 -112h-94zM353 273q-43 0 -59.5 16.5t-16.5 42.5q0 6 1.5 13.5t5.5 28.5q5 29 25.5 48t68.5 19q43 0 59.5 -16.5t16.5 -42.5q0 -6 -1.5 -13.5t-5.5 -28.5q-5 -29 -25.5 -48t-68.5 -19z" />
    <glyph glyph-name="lslash" unicode="&#x142;" horiz-adv-x="294" 
d="M224 0h-97q-41 0 -65 22t-24 58q0 11 3 25l38 191l-78 -26l21 107l78 26l68 337h141l-58 -286l98 33l-20 -107l-99 -33l-46 -235h62z" />
    <glyph glyph-name="nacute" unicode="&#x144;" horiz-adv-x="588" 
d="M14 0l105 525h140l-24 -122h6q30 63 71 98.5t103 35.5q61 0 93.5 -35.5t32.5 -100.5q0 -19 -2.5 -36.5t-6.5 -37.5l-43 -215h53l-22 -112h-91q-40 0 -62 20.5t-22 55.5q0 9 1 16.5t2 11.5l41 208q3 14 5 27.5t2 28.5q0 23 -12 37.5t-41 14.5q-26 0 -47 -14t-38 -34
q-18 -21 -31 -46.5t-19 -55.5l-54 -270h-140zM376 579l-84 46l119 190l112 -60z" />
    <glyph glyph-name="ncaron" unicode="&#x148;" horiz-adv-x="588" 
d="M14 0l105 525h140l-24 -122h6q30 63 71 98.5t103 35.5q61 0 93.5 -35.5t32.5 -100.5q0 -19 -2.5 -36.5t-6.5 -37.5l-43 -215h53l-22 -112h-91q-40 0 -62 20.5t-22 55.5q0 9 1 16.5t2 11.5l41 208q3 14 5 27.5t2 28.5q0 23 -12 37.5t-41 14.5q-26 0 -47 -14t-38 -34
q-18 -21 -31 -46.5t-19 -55.5l-54 -270h-140zM296 588l-101 158l74 57l96 -115l137 115l72 -57l-155 -158h-123z" />
    <glyph glyph-name="ncommaaccent" unicode="&#x146;" horiz-adv-x="588" 
d="M14 0l105 525h140l-24 -122h6q30 63 71 98.5t103 35.5q61 0 93.5 -35.5t32.5 -100.5q0 -19 -2.5 -36.5t-6.5 -37.5l-43 -215h53l-22 -112h-91q-40 0 -62 20.5t-22 55.5q0 9 1 16.5t2 11.5l41 208q3 14 5 27.5t2 28.5q0 23 -12 37.5t-41 14.5q-26 0 -47 -14t-38 -34
q-18 -21 -31 -46.5t-19 -55.5l-54 -270h-140zM252 -42q63 0 63 -51q0 -6 -0.5 -11t-2.5 -16q-5 -23 -14.5 -45.5t-22 -42.5t-28 -37.5t-31.5 -29.5h-83q29 22 47.5 45.5t32.5 53.5q-23 2 -31 14.5t-8 30.5q0 7 4 27q6 30 25.5 46t48.5 16z" />
    <glyph glyph-name="ntilde" unicode="&#xf1;" horiz-adv-x="588" 
d="M14 0l105 525h140l-24 -122h6q30 63 71 98.5t103 35.5q61 0 93.5 -35.5t32.5 -100.5q0 -19 -2.5 -36.5t-6.5 -37.5l-43 -215h53l-22 -112h-91q-40 0 -62 20.5t-22 55.5q0 9 1 16.5t2 11.5l41 208q3 14 5 27.5t2 28.5q0 23 -12 37.5t-41 14.5q-26 0 -47 -14t-38 -34
q-18 -21 -31 -46.5t-19 -55.5l-54 -270h-140zM442 601q-22 0 -39 6t-37 15q-19 9 -35.5 15.5t-36.5 6.5q-17 0 -29 -6t-29 -19l-43 69q23 29 51.5 45.5t63.5 16.5q22 0 39 -6t37 -15q19 -9 35.5 -15.5t36.5 -6.5q17 0 29 6t29 19l43 -69q-23 -29 -51.5 -45.5t-63.5 -16.5z
" />
    <glyph glyph-name="napostrophe" unicode="&#x149;" horiz-adv-x="874" 
d="M237 750q42 0 58.5 -19.5t16.5 -41.5q0 -9 -2 -20.5t-4 -22.5q-5 -23 -17 -49t-30.5 -52t-42.5 -51t-51 -44h-99q42 32 70 62t49 68q-28 6 -39.5 22t-11.5 33q0 8 2.5 20.5t4.5 23.5q6 30 30 50.5t66 20.5zM300 0l105 525h140l-24 -122h6q30 63 71 98.5t103 35.5
q61 0 93.5 -35.5t32.5 -100.5q0 -19 -2.5 -36.5t-6.5 -37.5l-43 -215h53l-22 -112h-91q-40 0 -62 20.5t-22 55.5q0 9 1 16.5t2 11.5l41 208q3 14 5 27.5t2 28.5q0 23 -12 37.5t-41 14.5q-26 0 -47 -14t-38 -34q-18 -21 -31 -46.5t-19 -55.5l-54 -270h-140z" />
    <glyph glyph-name="eng" unicode="&#x14b;" horiz-adv-x="586" 
d="M310 -89l80 406q2 13 4 23.5t2 20.5q0 59 -52 59q-26 0 -49 -15t-39 -35q-14 -16 -27 -38.5t-18 -48.5l-57 -283h-140l105 525h140l-24 -122h6q29 60 71 97t102 37q66 0 96.5 -36t30.5 -102q0 -17 -2.5 -34.5t-6.5 -37.5l-78 -388q-14 -69 -52 -104t-110 -35h-80l22 111
h76z" />
    <glyph glyph-name="oacute" unicode="&#xf3;" horiz-adv-x="542" 
d="M240 -12q-97 0 -153 57.5t-56 161.5q0 71 20.5 131.5t56.5 104.5t85.5 69t108.5 25q97 0 153 -57.5t56 -161.5q0 -71 -20.5 -131.5t-56.5 -104.5t-86 -69t-108 -25zM245 101q82 0 105 115l19 94q1 5 2 13t1 18q0 38 -19 60.5t-56 22.5q-82 0 -105 -115l-19 -94
q-1 -5 -2 -13t-1 -18q0 -38 19 -60.5t56 -22.5zM345 579l-84 46l119 190l112 -60z" />
    <glyph glyph-name="obreve" unicode="&#x14f;" horiz-adv-x="542" 
d="M240 -12q-97 0 -153 57.5t-56 161.5q0 71 20.5 131.5t56.5 104.5t85.5 69t108.5 25q97 0 153 -57.5t56 -161.5q0 -71 -20.5 -131.5t-56.5 -104.5t-86 -69t-108 -25zM245 101q82 0 105 115l19 94q1 5 2 13t1 18q0 38 -19 60.5t-56 22.5q-82 0 -105 -115l-19 -94
q-1 -5 -2 -13t-1 -18q0 -38 19 -60.5t56 -22.5zM329 579q-42 0 -71.5 15t-49.5 39t-31.5 54.5t-17.5 61.5l80 42l18 -39q16 -34 32 -53t48 -19q27 0 48.5 18.5t49.5 55.5l28 37l83 -46q-18 -32 -39 -62t-47 -53t-58 -37t-73 -14z" />
    <glyph glyph-name="ocircumflex" unicode="&#xf4;" horiz-adv-x="542" 
d="M240 -12q-97 0 -153 57.5t-56 161.5q0 71 20.5 131.5t56.5 104.5t85.5 69t108.5 25q97 0 153 -57.5t56 -161.5q0 -71 -20.5 -131.5t-56.5 -104.5t-86 -69t-108 -25zM245 101q82 0 105 115l19 94q1 5 2 13t1 18q0 38 -19 60.5t-56 22.5q-82 0 -105 -115l-19 -94
q-1 -5 -2 -13t-1 -18q0 -38 19 -60.5t56 -22.5zM420 794l100 -158l-75 -57l-99 115l-134 -115l-70 57l156 158h122z" />
    <glyph glyph-name="odieresis" unicode="&#xf6;" horiz-adv-x="542" 
d="M240 -12q-97 0 -153 57.5t-56 161.5q0 71 20.5 131.5t56.5 104.5t85.5 69t108.5 25q97 0 153 -57.5t56 -161.5q0 -71 -20.5 -131.5t-56.5 -104.5t-86 -69t-108 -25zM245 101q82 0 105 115l19 94q1 5 2 13t1 18q0 38 -19 60.5t-56 22.5q-82 0 -105 -115l-19 -94
q-1 -5 -2 -13t-1 -18q0 -38 19 -60.5t56 -22.5zM231 600q-35 0 -50 14t-15 34q0 5 1.5 14t4.5 26q5 26 24 44.5t61 18.5q35 0 50 -14t15 -34q0 -5 -1.5 -14t-4.5 -26q-5 -26 -24 -44.5t-61 -18.5zM431 600q-35 0 -50 14t-15 34q0 5 1.5 14t4.5 26q5 26 24 44.5t61 18.5
q35 0 50 -14t15 -34q0 -5 -1.5 -14t-4.5 -26q-5 -26 -24 -44.5t-61 -18.5z" />
    <glyph glyph-name="uni1ECD" unicode="&#x1ecd;" horiz-adv-x="542" 
d="M240 -12q-97 0 -153 57.5t-56 161.5q0 71 20.5 131.5t56.5 104.5t85.5 69t108.5 25q97 0 153 -57.5t56 -161.5q0 -71 -20.5 -131.5t-56.5 -104.5t-86 -69t-108 -25zM245 101q82 0 105 115l19 94q1 5 2 13t1 18q0 38 -19 60.5t-56 22.5q-82 0 -105 -115l-19 -94
q-1 -5 -2 -13t-1 -18q0 -38 19 -60.5t56 -22.5zM193 -202q-38 0 -54 14.5t-16 37.5q0 5 1.5 12.5t4.5 25.5q5 26 23.5 42t60.5 16q37 0 53 -14.5t16 -37.5q0 -5 -1.5 -12.5t-4.5 -25.5q-5 -26 -23.5 -42t-59.5 -16z" />
    <glyph glyph-name="ograve" unicode="&#xf2;" horiz-adv-x="542" 
d="M240 -12q-97 0 -153 57.5t-56 161.5q0 71 20.5 131.5t56.5 104.5t85.5 69t108.5 25q97 0 153 -57.5t56 -161.5q0 -71 -20.5 -131.5t-56.5 -104.5t-86 -69t-108 -25zM245 101q82 0 105 115l19 94q1 5 2 13t1 18q0 38 -19 60.5t-56 22.5q-82 0 -105 -115l-19 -94
q-1 -5 -2 -13t-1 -18q0 -38 19 -60.5t56 -22.5zM198 756l126 59l68 -196l-89 -39z" />
    <glyph glyph-name="uni1ECF" unicode="&#x1ecf;" horiz-adv-x="542" 
d="M240 -12q-97 0 -153 57.5t-56 161.5q0 71 20.5 131.5t56.5 104.5t85.5 69t108.5 25q97 0 153 -57.5t56 -161.5q0 -71 -20.5 -131.5t-56.5 -104.5t-86 -69t-108 -25zM245 101q82 0 105 115l19 94q1 5 2 13t1 18q0 38 -19 60.5t-56 22.5q-82 0 -105 -115l-19 -94
q-1 -5 -2 -13t-1 -18q0 -38 19 -60.5t56 -22.5zM253 802h146q39 0 58.5 -16.5t19.5 -40.5q0 -32 -15 -56.5t-36 -51.5l-56 -66l-69 34l49 93h-117z" />
    <glyph glyph-name="ohungarumlaut" unicode="&#x151;" horiz-adv-x="542" 
d="M240 -12q-97 0 -153 57.5t-56 161.5q0 71 20.5 131.5t56.5 104.5t85.5 69t108.5 25q97 0 153 -57.5t56 -161.5q0 -71 -20.5 -131.5t-56.5 -104.5t-86 -69t-108 -25zM245 101q82 0 105 115l19 94q1 5 2 13t1 18q0 38 -19 60.5t-56 22.5q-82 0 -105 -115l-19 -94
q-1 -5 -2 -13t-1 -18q0 -38 19 -60.5t56 -22.5zM244 580l-77 38l113 193l105 -56zM439 580l-76 38l113 193l105 -56z" />
    <glyph glyph-name="omacron" unicode="&#x14d;" horiz-adv-x="542" 
d="M240 -12q-97 0 -153 57.5t-56 161.5q0 71 20.5 131.5t56.5 104.5t85.5 69t108.5 25q97 0 153 -57.5t56 -161.5q0 -71 -20.5 -131.5t-56.5 -104.5t-86 -69t-108 -25zM245 101q82 0 105 115l19 94q1 5 2 13t1 18q0 38 -19 60.5t-56 22.5q-82 0 -105 -115l-19 -94
q-1 -5 -2 -13t-1 -18q0 -38 19 -60.5t56 -22.5zM215 727h278l-20 -102h-278z" />
    <glyph glyph-name="oslash" unicode="&#xf8;" horiz-adv-x="543" 
d="M-34 21l83 86q-18 43 -18 100q0 71 20.5 131.5t57 104.5t86 69t108.5 25q81 0 133 -40l69 71l72 -64l-83 -86q18 -44 18 -100q0 -71 -20.5 -131.5t-57 -104.5t-86.5 -69t-108 -25q-81 0 -133 40l-69 -71zM245 95q40 0 68.5 31.5t39.5 88.5l13 63l5 27l-184 -187
q8 -10 24 -16.5t34 -6.5zM298 430q-40 0 -68.5 -31.5t-39.5 -88.5l-13 -63l-6 -28l185 188q-8 10 -24 16.5t-34 6.5z" />
    <glyph glyph-name="oslashacute" unicode="&#x1ff;" horiz-adv-x="543" 
d="M-34 21l83 86q-18 43 -18 100q0 71 20.5 131.5t57 104.5t86 69t108.5 25q81 0 133 -40l69 71l72 -64l-83 -86q18 -44 18 -100q0 -71 -20.5 -131.5t-57 -104.5t-86.5 -69t-108 -25q-81 0 -133 40l-69 -71zM245 95q40 0 68.5 31.5t39.5 88.5l13 63l5 27l-184 -187
q8 -10 24 -16.5t34 -6.5zM298 430q-40 0 -68.5 -31.5t-39.5 -88.5l-13 -63l-6 -28l185 188q-8 10 -24 16.5t-34 6.5zM342 579l-84 46l119 190l112 -60z" />
    <glyph glyph-name="otilde" unicode="&#xf5;" horiz-adv-x="542" 
d="M240 -12q-97 0 -153 57.5t-56 161.5q0 71 20.5 131.5t56.5 104.5t85.5 69t108.5 25q97 0 153 -57.5t56 -161.5q0 -71 -20.5 -131.5t-56.5 -104.5t-86 -69t-108 -25zM245 101q82 0 105 115l19 94q1 5 2 13t1 18q0 38 -19 60.5t-56 22.5q-82 0 -105 -115l-19 -94
q-1 -5 -2 -13t-1 -18q0 -38 19 -60.5t56 -22.5zM411 601q-22 0 -39 6t-37 15q-19 9 -35.5 15.5t-36.5 6.5q-17 0 -29 -6t-29 -19l-43 69q23 29 51.5 45.5t63.5 16.5q22 0 39 -6t37 -15q19 -9 35.5 -15.5t36.5 -6.5q17 0 29 6t29 19l43 -69q-23 -29 -51.5 -45.5t-63.5 -16.5z
" />
    <glyph glyph-name="ohorn" unicode="&#x1a1;" horiz-adv-x="542" 
d="M240 -12q-97 0 -153 57.5t-56 161.5q0 71 20.5 131.5t56.5 104.5t85.5 69t108.5 25q44 0 79 -12h77l21 106h125l-19 -94q-5 -24 -12 -42.5t-18 -31t-27 -19t-40 -6.5h-4q13 -25 20 -55t7 -65q0 -71 -20.5 -131.5t-56.5 -104.5t-86 -69t-108 -25zM245 101q82 0 105 115
l19 94q1 5 2 13t1 18q0 38 -19 60.5t-56 22.5q-82 0 -105 -115l-19 -94q-1 -5 -2 -13t-1 -18q0 -38 19 -60.5t56 -22.5z" />
    <glyph glyph-name="uni1EDB" unicode="&#x1edb;" horiz-adv-x="542" 
d="M240 -12q-97 0 -153 57.5t-56 161.5q0 71 20.5 131.5t56.5 104.5t85.5 69t108.5 25q44 0 79 -12h77l21 106h125l-19 -94q-5 -24 -12 -42.5t-18 -31t-27 -19t-40 -6.5h-4q13 -25 20 -55t7 -65q0 -71 -20.5 -131.5t-56.5 -104.5t-86 -69t-108 -25zM245 101q82 0 105 115
l19 94q1 5 2 13t1 18q0 38 -19 60.5t-56 22.5q-82 0 -105 -115l-19 -94q-1 -5 -2 -13t-1 -18q0 -38 19 -60.5t56 -22.5zM345 579l-84 46l119 190l112 -60z" />
    <glyph glyph-name="uni1EE3" unicode="&#x1ee3;" horiz-adv-x="542" 
d="M240 -12q-97 0 -153 57.5t-56 161.5q0 71 20.5 131.5t56.5 104.5t85.5 69t108.5 25q44 0 79 -12h77l21 106h125l-19 -94q-5 -24 -12 -42.5t-18 -31t-27 -19t-40 -6.5h-4q13 -25 20 -55t7 -65q0 -71 -20.5 -131.5t-56.5 -104.5t-86 -69t-108 -25zM245 101q82 0 105 115
l19 94q1 5 2 13t1 18q0 38 -19 60.5t-56 22.5q-82 0 -105 -115l-19 -94q-1 -5 -2 -13t-1 -18q0 -38 19 -60.5t56 -22.5zM193 -202q-38 0 -54 14.5t-16 37.5q0 5 1.5 12.5t4.5 25.5q5 26 23.5 42t60.5 16q37 0 53 -14.5t16 -37.5q0 -5 -1.5 -12.5t-4.5 -25.5
q-5 -26 -23.5 -42t-59.5 -16z" />
    <glyph glyph-name="uni1EDD" unicode="&#x1edd;" horiz-adv-x="542" 
d="M240 -12q-97 0 -153 57.5t-56 161.5q0 71 20.5 131.5t56.5 104.5t85.5 69t108.5 25q44 0 79 -12h77l21 106h125l-19 -94q-5 -24 -12 -42.5t-18 -31t-27 -19t-40 -6.5h-4q13 -25 20 -55t7 -65q0 -71 -20.5 -131.5t-56.5 -104.5t-86 -69t-108 -25zM245 101q82 0 105 115
l19 94q1 5 2 13t1 18q0 38 -19 60.5t-56 22.5q-82 0 -105 -115l-19 -94q-1 -5 -2 -13t-1 -18q0 -38 19 -60.5t56 -22.5zM198 756l126 59l68 -196l-89 -39z" />
    <glyph glyph-name="uni1EDF" unicode="&#x1edf;" horiz-adv-x="542" 
d="M240 -12q-97 0 -153 57.5t-56 161.5q0 71 20.5 131.5t56.5 104.5t85.5 69t108.5 25q44 0 79 -12h77l21 106h125l-19 -94q-5 -24 -12 -42.5t-18 -31t-27 -19t-40 -6.5h-4q13 -25 20 -55t7 -65q0 -71 -20.5 -131.5t-56.5 -104.5t-86 -69t-108 -25zM245 101q82 0 105 115
l19 94q1 5 2 13t1 18q0 38 -19 60.5t-56 22.5q-82 0 -105 -115l-19 -94q-1 -5 -2 -13t-1 -18q0 -38 19 -60.5t56 -22.5zM253 802h146q39 0 58.5 -16.5t19.5 -40.5q0 -32 -15 -56.5t-36 -51.5l-56 -66l-69 34l49 93h-117z" />
    <glyph glyph-name="uni1EE1" unicode="&#x1ee1;" horiz-adv-x="542" 
d="M240 -12q-97 0 -153 57.5t-56 161.5q0 71 20.5 131.5t56.5 104.5t85.5 69t108.5 25q44 0 79 -12h77l21 106h125l-19 -94q-5 -24 -12 -42.5t-18 -31t-27 -19t-40 -6.5h-4q13 -25 20 -55t7 -65q0 -71 -20.5 -131.5t-56.5 -104.5t-86 -69t-108 -25zM245 101q82 0 105 115
l19 94q1 5 2 13t1 18q0 38 -19 60.5t-56 22.5q-82 0 -105 -115l-19 -94q-1 -5 -2 -13t-1 -18q0 -38 19 -60.5t56 -22.5zM390 602q-20 0 -34.5 6.5t-30.5 15.5q-17 9 -31.5 15.5t-29.5 6.5q-12 0 -23 -5.5t-25 -17.5l-42 65q17 28 44.5 45t58.5 17q20 0 34.5 -6.5t30.5 -15.5
q17 -9 31.5 -15.5t29.5 -6.5q12 0 23 5.5t25 17.5l42 -65q-17 -28 -44.5 -45t-58.5 -17z" />
    <glyph glyph-name="uni1ED1" unicode="&#x1ed1;" horiz-adv-x="542" 
d="M240 -12q-97 0 -153 57.5t-56 161.5q0 71 20.5 131.5t56.5 104.5t85.5 69t108.5 25q97 0 153 -57.5t56 -161.5q0 -71 -20.5 -131.5t-56.5 -104.5t-86 -69t-108 -25zM245 101q82 0 105 115l19 94q1 5 2 13t1 18q0 38 -19 60.5t-56 22.5q-82 0 -105 -115l-19 -94
q-1 -5 -2 -13t-1 -18q0 -38 19 -60.5t56 -22.5zM530 735l-76 40l104 190l108 -55zM410 780l113 -148l-71 -63l-98 105l-142 -105l-63 63l171 148h90z" />
    <glyph glyph-name="uni1ED9" unicode="&#x1ed9;" horiz-adv-x="542" 
d="M240 -12q-97 0 -153 57.5t-56 161.5q0 71 20.5 131.5t56.5 104.5t85.5 69t108.5 25q97 0 153 -57.5t56 -161.5q0 -71 -20.5 -131.5t-56.5 -104.5t-86 -69t-108 -25zM245 101q82 0 105 115l19 94q1 5 2 13t1 18q0 38 -19 60.5t-56 22.5q-82 0 -105 -115l-19 -94
q-1 -5 -2 -13t-1 -18q0 -38 19 -60.5t56 -22.5zM420 794l100 -158l-75 -57l-99 115l-134 -115l-70 57l156 158h122zM193 -202q-38 0 -54 14.5t-16 37.5q0 5 1.5 12.5t4.5 25.5q5 26 23.5 42t60.5 16q37 0 53 -14.5t16 -37.5q0 -5 -1.5 -12.5t-4.5 -25.5q-5 -26 -23.5 -42
t-59.5 -16z" />
    <glyph glyph-name="uni1ED3" unicode="&#x1ed3;" horiz-adv-x="542" 
d="M240 -12q-97 0 -153 57.5t-56 161.5q0 71 20.5 131.5t56.5 104.5t85.5 69t108.5 25q97 0 153 -57.5t56 -161.5q0 -71 -20.5 -131.5t-56.5 -104.5t-86 -69t-108 -25zM245 101q82 0 105 115l19 94q1 5 2 13t1 18q0 38 -19 60.5t-56 22.5q-82 0 -105 -115l-19 -94
q-1 -5 -2 -13t-1 -18q0 -38 19 -60.5t56 -22.5zM78 910l112 55l73 -193l-73 -38zM410 780l113 -148l-71 -63l-98 105l-142 -105l-63 63l171 148h90z" />
    <glyph glyph-name="uni1ED5" unicode="&#x1ed5;" horiz-adv-x="542" 
d="M240 -12q-97 0 -153 57.5t-56 161.5q0 71 20.5 131.5t56.5 104.5t85.5 69t108.5 25q97 0 153 -57.5t56 -161.5q0 -71 -20.5 -131.5t-56.5 -104.5t-86 -69t-108 -25zM245 101q82 0 105 115l19 94q1 5 2 13t1 18q0 38 -19 60.5t-56 22.5q-82 0 -105 -115l-19 -94
q-1 -5 -2 -13t-1 -18q0 -38 19 -60.5t56 -22.5zM428 952h135q39 0 57.5 -16.5t18.5 -40.5q0 -32 -14 -56.5t-36 -51.5l-57 -66l-68 34l52 96h-108zM410 780l113 -148l-71 -63l-98 105l-142 -105l-63 63l171 148h90z" />
    <glyph glyph-name="uni1ED7" unicode="&#x1ed7;" horiz-adv-x="542" 
d="M240 -12q-97 0 -153 57.5t-56 161.5q0 71 20.5 131.5t56.5 104.5t85.5 69t108.5 25q97 0 153 -57.5t56 -161.5q0 -71 -20.5 -131.5t-56.5 -104.5t-86 -69t-108 -25zM245 101q82 0 105 115l19 94q1 5 2 13t1 18q0 38 -19 60.5t-56 22.5q-82 0 -105 -115l-19 -94
q-1 -5 -2 -13t-1 -18q0 -38 19 -60.5t56 -22.5zM324 941q19 0 33 -6t31 -14q20 -10 35 -16t32 -6q14 0 27 6t30 19l35 -65q-23 -26 -53 -44t-66 -18q-19 0 -33 6t-31 14q-20 10 -35 16t-32 6q-14 0 -27 -6t-30 -19l-35 65q23 26 53 44t66 18zM405 768l115 -134l-72 -63
l-103 104l-135 -104l-64 63l168 134h91z" />
    <glyph glyph-name="oe" unicode="&#x153;" horiz-adv-x="840" 
d="M245 101q82 0 105 115l19 94q1 5 2 13t1 18q0 38 -19 60.5t-56 22.5q-82 0 -105 -115l-19 -94q-1 -5 -2 -13t-1 -18q0 -38 19 -60.5t56 -22.5zM633 430q-45 0 -76.5 -29.5t-40.5 -80.5l-4 -23q56 3 91.5 10t55.5 17.5t27 23.5t7 29q0 17 -6 27.5t-15 16t-19.5 7.5
t-19.5 2zM581 -12q-60 0 -101 19.5t-67 64.5h-6q-33 -44 -76.5 -64t-97.5 -20q-44 0 -81 15t-64 43t-42 68.5t-15 92.5q0 71 20.5 131.5t56.5 104.5t86 69t110 25q51 0 89.5 -19t63.5 -67h6q34 45 78.5 65.5t100.5 20.5q29 0 62 -7t60.5 -23.5t46 -44.5t18.5 -71
q0 -41 -19 -73.5t-59 -56t-103 -37t-151 -16.5q-2 -9 -2 -14v-9q0 -38 20.5 -61t73.5 -23q34 0 63 14.5t64 58.5l86 -68q-49 -65 -102.5 -91.5t-118.5 -26.5z" />
    <glyph glyph-name="racute" unicode="&#x155;" horiz-adv-x="394" 
d="M14 0l105 525h140l-26 -131h7q8 21 22.5 44.5t34 42.5t45 31.5t55.5 12.5h25l-28 -136h-35q-67 0 -102 -24.5t-48 -88.5l-55 -276h-140zM283 579l-84 46l119 190l112 -60z" />
    <glyph glyph-name="rcaron" unicode="&#x159;" horiz-adv-x="394" 
d="M14 0l105 525h140l-26 -131h7q8 21 22.5 44.5t34 42.5t45 31.5t55.5 12.5h25l-28 -136h-35q-67 0 -102 -24.5t-48 -88.5l-55 -276h-140zM203 588l-101 158l74 57l96 -115l137 115l72 -57l-155 -158h-123z" />
    <glyph glyph-name="rcommaaccent" unicode="&#x157;" horiz-adv-x="394" 
d="M14 0l105 525h140l-26 -131h7q8 21 22.5 44.5t34 42.5t45 31.5t55.5 12.5h25l-28 -136h-35q-67 0 -102 -24.5t-48 -88.5l-55 -276h-140zM72 -42q63 0 63 -51q0 -6 -0.5 -11t-2.5 -16q-5 -23 -14.5 -45.5t-22 -42.5t-28 -37.5t-31.5 -29.5h-83q29 22 47.5 45.5t32.5 53.5
q-23 2 -31 14.5t-8 30.5q0 7 4 27q6 30 25.5 46t48.5 16z" />
    <glyph glyph-name="sacute" unicode="&#x15b;" horiz-adv-x="497" 
d="M213 -12q-66 0 -121 23t-90 69l88 82q22 -29 51.5 -45.5t74.5 -16.5q49 0 69.5 17.5t20.5 40.5q0 15 -10.5 27t-38.5 16l-53 7q-68 9 -104 43.5t-36 97.5q0 37 13 71t40 60t68 41.5t97 15.5q61 0 110.5 -20.5t84.5 -62.5l-88 -82q-19 24 -48.5 38.5t-64.5 14.5
t-55.5 -15.5t-20.5 -39.5q0 -15 10.5 -27t38.5 -16l53 -7q68 -9 104 -43.5t36 -96.5q0 -38 -14.5 -73t-43.5 -61.5t-72 -42t-99 -15.5zM314 579l-84 46l119 190l112 -60z" />
    <glyph glyph-name="scaron" unicode="&#x161;" horiz-adv-x="497" 
d="M213 -12q-66 0 -121 23t-90 69l88 82q22 -29 51.5 -45.5t74.5 -16.5q49 0 69.5 17.5t20.5 40.5q0 15 -10.5 27t-38.5 16l-53 7q-68 9 -104 43.5t-36 97.5q0 37 13 71t40 60t68 41.5t97 15.5q61 0 110.5 -20.5t84.5 -62.5l-88 -82q-19 24 -48.5 38.5t-64.5 14.5
t-55.5 -15.5t-20.5 -39.5q0 -15 10.5 -27t38.5 -16l53 -7q68 -9 104 -43.5t36 -96.5q0 -38 -14.5 -73t-43.5 -61.5t-72 -42t-99 -15.5zM234 588l-101 158l74 57l96 -115l137 115l72 -57l-155 -158h-123z" />
    <glyph glyph-name="scedilla" unicode="&#x15f;" horiz-adv-x="497" 
d="M169 -212q-42 0 -70 13.5t-41 32.5l52 52q6 -9 21 -18.5t37 -9.5q21 0 35.5 7t14.5 24q0 12 -14 22t-52 14l-22 2l28 65q-49 8 -89 30t-67 58l88 82q22 -29 51.5 -45.5t74.5 -16.5q49 0 69.5 17.5t20.5 40.5q0 15 -10.5 27t-38.5 16l-53 7q-68 9 -104 43.5t-36 97.5
q0 37 13 71t40 60t68 41.5t97 15.5q61 0 110.5 -20.5t84.5 -62.5l-88 -82q-19 24 -48.5 38.5t-64.5 14.5t-55.5 -15.5t-20.5 -39.5q0 -15 10.5 -27t38.5 -16l53 -7q68 -9 104 -43.5t36 -96.5q0 -38 -14 -72t-42 -60t-68.5 -42.5t-94.5 -17.5l-17 -43l2 -4q22 7 43 7
q26 0 44 -15t18 -41t-11.5 -45.5t-31 -32.5t-45.5 -19.5t-56 -6.5z" />
    <glyph glyph-name="scircumflex" unicode="&#x15d;" horiz-adv-x="497" 
d="M213 -12q-66 0 -121 23t-90 69l88 82q22 -29 51.5 -45.5t74.5 -16.5q49 0 69.5 17.5t20.5 40.5q0 15 -10.5 27t-38.5 16l-53 7q-68 9 -104 43.5t-36 97.5q0 37 13 71t40 60t68 41.5t97 15.5q61 0 110.5 -20.5t84.5 -62.5l-88 -82q-19 24 -48.5 38.5t-64.5 14.5
t-55.5 -15.5t-20.5 -39.5q0 -15 10.5 -27t38.5 -16l53 -7q68 -9 104 -43.5t36 -96.5q0 -38 -14.5 -73t-43.5 -61.5t-72 -42t-99 -15.5zM389 794l100 -158l-75 -57l-99 115l-134 -115l-70 57l156 158h122z" />
    <glyph glyph-name="scommaaccent" unicode="&#x219;" horiz-adv-x="497" 
d="M213 -12q-66 0 -121 23t-90 69l88 82q22 -29 51.5 -45.5t74.5 -16.5q49 0 69.5 17.5t20.5 40.5q0 15 -10.5 27t-38.5 16l-53 7q-68 9 -104 43.5t-36 97.5q0 37 13 71t40 60t68 41.5t97 15.5q61 0 110.5 -20.5t84.5 -62.5l-88 -82q-19 24 -48.5 38.5t-64.5 14.5
t-55.5 -15.5t-20.5 -39.5q0 -15 10.5 -27t38.5 -16l53 -7q68 -9 104 -43.5t36 -96.5q0 -38 -14.5 -73t-43.5 -61.5t-72 -42t-99 -15.5zM182 -42q63 0 63 -51q0 -6 -0.5 -11t-2.5 -16q-5 -23 -14.5 -45.5t-22 -42.5t-28 -37.5t-31.5 -29.5h-83q29 22 47.5 45.5t32.5 53.5
q-23 2 -31 14.5t-8 30.5q0 7 4 27q6 30 25.5 46t48.5 16z" />
    <glyph glyph-name="germandbls" unicode="&#xdf;" horiz-adv-x="669" 
d="M628 189q0 -38 -14.5 -74.5t-41.5 -64.5t-66.5 -45t-89.5 -17q-63 0 -108 19.5t-68 57.5l88 79q17 -26 39.5 -37t51.5 -11q36 0 56.5 20t20.5 49q0 22 -12.5 33t-41.5 26l-40 20q-33 17 -55 44t-22 73q0 68 44.5 113t131.5 56l1 6q2 9 2.5 16t0.5 15q0 75 -92 75
q-55 0 -87.5 -26.5t-44.5 -84.5l-106 -531h-140l82 410h-74l23 115h74l1 5q10 52 35 93.5t61 70t82.5 43.5t100.5 15q52 0 93 -13t69.5 -36t43.5 -54.5t15 -68.5q0 -17 -1.5 -34.5t-6.5 -37.5l-15 -74h-76q-86 0 -86 -44q0 -19 14 -32t38 -25l39 -20q39 -20 60 -48t21 -76z
" />
    <glyph glyph-name="germandbls.alt01" horiz-adv-x="591" 
d="M14 0l118 591q13 66 58 107.5t124 41.5h118l-22 -111h-131l-20 -104h334l-23 -106l-172 -196q66 -17 98 -54t32 -107q0 -58 -21 -106.5t-59 -83t-92.5 -53.5t-120.5 -19h-75l22 111h48q66 0 96.5 22.5t44.5 69.5q5 15 7.5 30.5t2.5 26.5q0 35 -27.5 51.5t-79.5 16.5h-24
l24 111l152 175h-189l-83 -414h-140z" />
    <glyph glyph-name="tbar" unicode="&#x167;" horiz-adv-x="364" 
d="M274 0h-88q-123 0 -123 99q0 8 1 20t3 23l16 82h-67l19 96h67l19 93h-74l22 112h36q32 0 43 13t16 40l18 89h130l-28 -142h105l-23 -112h-105l-19 -93h91l-19 -96h-91l-22 -112h95z" />
    <glyph glyph-name="tcaron" unicode="&#x165;" horiz-adv-x="364" 
d="M182 0q-123 0 -123 99q0 8 1 20t3 23l54 271h-74l22 112h36q32 0 43 13t16 40l18 89h130l-28 -142h105l-23 -112h-105l-60 -301h95l-22 -112h-88zM433 576h-97l50 215h156z" />
    <glyph glyph-name="uni021B" unicode="&#x21b;" horiz-adv-x="354" 
d="M182 0q-123 0 -123 99q0 8 1 20t3 23l54 271h-74l22 112h36q32 0 43 13t16 40l18 89h130l-28 -142h105l-23 -112h-105l-60 -301h95l-22 -112h-88zM139 -42q63 0 63 -51q0 -6 -0.5 -11t-2.5 -16q-5 -23 -14.5 -45.5t-22 -42.5t-28 -37.5t-31.5 -29.5h-83q29 22 47.5 45.5
t32.5 53.5q-23 2 -31 14.5t-8 30.5q0 7 4 27q6 30 25.5 46t48.5 16z" />
    <glyph glyph-name="uni0163" unicode="&#x163;" horiz-adv-x="354" 
d="M182 0q-123 0 -123 99q0 8 1 20t3 23l54 271h-74l22 112h36q32 0 43 13t16 40l18 89h130l-28 -142h105l-23 -112h-105l-60 -301h95l-22 -112h-88zM139 -42q63 0 63 -51q0 -6 -0.5 -11t-2.5 -16q-5 -23 -14.5 -45.5t-22 -42.5t-28 -37.5t-31.5 -29.5h-83q29 22 47.5 45.5
t32.5 53.5q-23 2 -31 14.5t-8 30.5q0 7 4 27q6 30 25.5 46t48.5 16z" />
    <glyph glyph-name="thorn" unicode="&#xfe;" horiz-adv-x="583" 
d="M162 740h140l-67 -337h6q31 64 70 99t101 35q37 0 63.5 -13.5t43.5 -38t25 -58t8 -72.5q0 -84 -19.5 -151.5t-52.5 -115.5t-77.5 -74t-94.5 -26q-55 0 -90.5 30t-40.5 73h-5l-58 -291h-140zM274 103q91 0 115 117l14 70q2 11 4 28t2 29q0 35 -17.5 55t-48.5 20
q-27 0 -49 -14t-38 -34q-17 -20 -29.5 -47.5t-18.5 -56.5l-16 -80q-8 -40 15 -63.5t67 -23.5z" />
    <glyph glyph-name="uacute" unicode="&#xfa;" horiz-adv-x="582" 
d="M254 525l-62 -312q-3 -14 -5 -28t-2 -25q0 -26 11.5 -40.5t37.5 -14.5t46.5 13.5t37.5 34.5q36 44 48 102l54 270h140l-83 -413h59l-22 -112h-93q-38 0 -63 20t-25 57q0 8 1 17t2 13l3 15h-6q-29 -62 -69 -98t-100 -36t-92 35.5t-32 100.5q0 20 2.5 38t6.5 38l65 325h140
zM364 579l-84 46l119 190l112 -60z" />
    <glyph glyph-name="ubreve" unicode="&#x16d;" horiz-adv-x="582" 
d="M254 525l-62 -312q-3 -14 -5 -28t-2 -25q0 -26 11.5 -40.5t37.5 -14.5t46.5 13.5t37.5 34.5q36 44 48 102l54 270h140l-83 -413h59l-22 -112h-93q-38 0 -63 20t-25 57q0 8 1 17t2 13l3 15h-6q-29 -62 -69 -98t-100 -36t-92 35.5t-32 100.5q0 20 2.5 38t6.5 38l65 325h140
zM348 579q-42 0 -71.5 15t-49.5 39t-31.5 54.5t-17.5 61.5l80 42l18 -39q16 -34 32 -53t48 -19q27 0 48.5 18.5t49.5 55.5l28 37l83 -46q-18 -32 -39 -62t-47 -53t-58 -37t-73 -14z" />
    <glyph glyph-name="ucircumflex" unicode="&#xfb;" horiz-adv-x="582" 
d="M254 525l-62 -312q-3 -14 -5 -28t-2 -25q0 -26 11.5 -40.5t37.5 -14.5t46.5 13.5t37.5 34.5q36 44 48 102l54 270h140l-83 -413h59l-22 -112h-93q-38 0 -63 20t-25 57q0 8 1 17t2 13l3 15h-6q-29 -62 -69 -98t-100 -36t-92 35.5t-32 100.5q0 20 2.5 38t6.5 38l65 325h140
zM439 794l100 -158l-75 -57l-99 115l-134 -115l-70 57l156 158h122z" />
    <glyph glyph-name="udieresis" unicode="&#xfc;" horiz-adv-x="582" 
d="M254 525l-62 -312q-3 -14 -5 -28t-2 -25q0 -26 11.5 -40.5t37.5 -14.5t46.5 13.5t37.5 34.5q36 44 48 102l54 270h140l-83 -413h59l-22 -112h-93q-38 0 -63 20t-25 57q0 8 1 17t2 13l3 15h-6q-29 -62 -69 -98t-100 -36t-92 35.5t-32 100.5q0 20 2.5 38t6.5 38l65 325h140
zM250 600q-35 0 -50 14t-15 34q0 5 1.5 14t4.5 26q5 26 24 44.5t61 18.5q35 0 50 -14t15 -34q0 -5 -1.5 -14t-4.5 -26q-5 -26 -24 -44.5t-61 -18.5zM450 600q-35 0 -50 14t-15 34q0 5 1.5 14t4.5 26q5 26 24 44.5t61 18.5q35 0 50 -14t15 -34q0 -5 -1.5 -14t-4.5 -26
q-5 -26 -24 -44.5t-61 -18.5z" />
    <glyph glyph-name="uni1EE5" unicode="&#x1ee5;" horiz-adv-x="582" 
d="M254 525l-62 -312q-3 -14 -5 -28t-2 -25q0 -26 11.5 -40.5t37.5 -14.5t46.5 13.5t37.5 34.5q36 44 48 102l54 270h140l-83 -413h59l-22 -112h-93q-38 0 -63 20t-25 57q0 8 1 17t2 13l3 15h-6q-29 -62 -69 -98t-100 -36t-92 35.5t-32 100.5q0 20 2.5 38t6.5 38l65 325h140
zM215 -202q-38 0 -54 14.5t-16 37.5q0 5 1.5 12.5t4.5 25.5q5 26 23.5 42t60.5 16q37 0 53 -14.5t16 -37.5q0 -5 -1.5 -12.5t-4.5 -25.5q-5 -26 -23.5 -42t-59.5 -16z" />
    <glyph glyph-name="ugrave" unicode="&#xf9;" horiz-adv-x="582" 
d="M254 525l-62 -312q-3 -14 -5 -28t-2 -25q0 -26 11.5 -40.5t37.5 -14.5t46.5 13.5t37.5 34.5q36 44 48 102l54 270h140l-83 -413h59l-22 -112h-93q-38 0 -63 20t-25 57q0 8 1 17t2 13l3 15h-6q-29 -62 -69 -98t-100 -36t-92 35.5t-32 100.5q0 20 2.5 38t6.5 38l65 325h140
zM217 756l126 59l68 -196l-89 -39z" />
    <glyph glyph-name="uni1EE7" unicode="&#x1ee7;" horiz-adv-x="582" 
d="M254 525l-62 -312q-3 -14 -5 -28t-2 -25q0 -26 11.5 -40.5t37.5 -14.5t46.5 13.5t37.5 34.5q36 44 48 102l54 270h140l-83 -413h59l-22 -112h-93q-38 0 -63 20t-25 57q0 8 1 17t2 13l3 15h-6q-29 -62 -69 -98t-100 -36t-92 35.5t-32 100.5q0 20 2.5 38t6.5 38l65 325h140
zM272 802h146q39 0 58.5 -16.5t19.5 -40.5q0 -32 -15 -56.5t-36 -51.5l-56 -66l-69 34l49 93h-117z" />
    <glyph glyph-name="uhungarumlaut" unicode="&#x171;" horiz-adv-x="582" 
d="M254 525l-62 -312q-3 -14 -5 -28t-2 -25q0 -26 11.5 -40.5t37.5 -14.5t46.5 13.5t37.5 34.5q36 44 48 102l54 270h140l-83 -413h59l-22 -112h-93q-38 0 -63 20t-25 57q0 8 1 17t2 13l3 15h-6q-29 -62 -69 -98t-100 -36t-92 35.5t-32 100.5q0 20 2.5 38t6.5 38l65 325h140
zM263 580l-77 38l113 193l105 -56zM458 580l-76 38l113 193l105 -56z" />
    <glyph glyph-name="umacron" unicode="&#x16b;" horiz-adv-x="582" 
d="M254 525l-62 -312q-3 -14 -5 -28t-2 -25q0 -26 11.5 -40.5t37.5 -14.5t46.5 13.5t37.5 34.5q36 44 48 102l54 270h140l-83 -413h59l-22 -112h-93q-38 0 -63 20t-25 57q0 8 1 17t2 13l3 15h-6q-29 -62 -69 -98t-100 -36t-92 35.5t-32 100.5q0 20 2.5 38t6.5 38l65 325h140
zM234 727h278l-20 -102h-278z" />
    <glyph glyph-name="uogonek" unicode="&#x173;" horiz-adv-x="582" 
d="M254 525l-62 -312q-3 -14 -5 -28t-2 -25q0 -26 11.5 -40.5t37.5 -14.5t46.5 13.5t37.5 34.5q36 44 48 102l54 270h140l-83 -413h59l-22 -112q-41 -25 -65 -42.5t-36 -30.5t-15 -22t-3 -16q0 -12 7.5 -20.5t27.5 -8.5q16 0 30 5.5t24 21.5l52 -49q-19 -23 -48 -36.5
t-77 -13.5q-50 0 -84.5 21t-34.5 62q0 38 32.5 71.5t105.5 53.5l-1 4q-42 0 -69 19t-27 54q0 9 1 19t2 15l3 15h-6q-29 -62 -69 -98t-100 -36t-92 35.5t-32 100.5q0 20 2.5 38t6.5 38l65 325h140z" />
    <glyph glyph-name="uring" unicode="&#x16f;" horiz-adv-x="582" 
d="M254 525l-62 -312q-3 -14 -5 -28t-2 -25q0 -26 11.5 -40.5t37.5 -14.5t46.5 13.5t37.5 34.5q36 44 48 102l54 270h140l-83 -413h59l-22 -112h-93q-38 0 -63 20t-25 57q0 8 1 17t2 13l3 15h-6q-29 -62 -69 -98t-100 -36t-92 35.5t-32 100.5q0 20 2.5 38t6.5 38l65 325h140
zM341 558q-56 0 -92 34.5t-36 87.5q0 37 13.5 67.5t36 52t52.5 33t63 11.5q56 0 92 -34.5t36 -87.5q0 -38 -13.5 -68t-36 -51.5t-52.5 -33t-63 -11.5zM347 632q23 0 38 14t20 38q4 19 6 29t2 18q0 39 -41 39q-23 0 -38 -14t-20 -38q-4 -19 -6 -29t-2 -18q0 -39 41 -39z" />
    <glyph glyph-name="utilde" unicode="&#x169;" horiz-adv-x="582" 
d="M254 525l-62 -312q-3 -14 -5 -28t-2 -25q0 -26 11.5 -40.5t37.5 -14.5t46.5 13.5t37.5 34.5q36 44 48 102l54 270h140l-83 -413h59l-22 -112h-93q-38 0 -63 20t-25 57q0 8 1 17t2 13l3 15h-6q-29 -62 -69 -98t-100 -36t-92 35.5t-32 100.5q0 20 2.5 38t6.5 38l65 325h140
zM430 601q-22 0 -39 6t-37 15q-19 9 -35.5 15.5t-36.5 6.5q-17 0 -29 -6t-29 -19l-43 69q23 29 51.5 45.5t63.5 16.5q22 0 39 -6t37 -15q19 -9 35.5 -15.5t36.5 -6.5q17 0 29 6t29 19l43 -69q-23 -29 -51.5 -45.5t-63.5 -16.5z" />
    <glyph glyph-name="uhorn" unicode="&#x1b0;" horiz-adv-x="585" 
d="M421 0q-38 0 -63 20t-25 57q0 8 1 17t2 13l3 15h-6q-29 -62 -69 -98t-100 -36t-92 35.5t-32 100.5q0 20 2.5 38t6.5 38l65 325h140l-62 -312q-3 -14 -5 -28t-2 -25q0 -26 11.5 -40.5t37.5 -14.5t46.5 13.5t37.5 34.5q36 44 48 102l54 270h99l21 106h125l-20 -99
q-10 -48 -31 -71.5t-69 -23.5h-3l-65 -325h59l-22 -112h-93z" />
    <glyph glyph-name="uni1EE9" unicode="&#x1ee9;" horiz-adv-x="585" 
d="M421 0q-38 0 -63 20t-25 57q0 8 1 17t2 13l3 15h-6q-29 -62 -69 -98t-100 -36t-92 35.5t-32 100.5q0 20 2.5 38t6.5 38l65 325h140l-62 -312q-3 -14 -5 -28t-2 -25q0 -26 11.5 -40.5t37.5 -14.5t46.5 13.5t37.5 34.5q36 44 48 102l54 270h99l21 106h125l-20 -99
q-10 -48 -31 -71.5t-69 -23.5h-3l-65 -325h59l-22 -112h-93zM364 579l-84 46l119 190l112 -60z" />
    <glyph glyph-name="uni1EF1" unicode="&#x1ef1;" horiz-adv-x="585" 
d="M421 0q-38 0 -63 20t-25 57q0 8 1 17t2 13l3 15h-6q-29 -62 -69 -98t-100 -36t-92 35.5t-32 100.5q0 20 2.5 38t6.5 38l65 325h140l-62 -312q-3 -14 -5 -28t-2 -25q0 -26 11.5 -40.5t37.5 -14.5t46.5 13.5t37.5 34.5q36 44 48 102l54 270h99l21 106h125l-20 -99
q-10 -48 -31 -71.5t-69 -23.5h-3l-65 -325h59l-22 -112h-93zM206 -202q-38 0 -54 14.5t-16 37.5q0 5 1.5 12.5t4.5 25.5q5 26 23.5 42t60.5 16q37 0 53 -14.5t16 -37.5q0 -5 -1.5 -12.5t-4.5 -25.5q-5 -26 -23.5 -42t-59.5 -16z" />
    <glyph glyph-name="uni1EEB" unicode="&#x1eeb;" horiz-adv-x="585" 
d="M421 0q-38 0 -63 20t-25 57q0 8 1 17t2 13l3 15h-6q-29 -62 -69 -98t-100 -36t-92 35.5t-32 100.5q0 20 2.5 38t6.5 38l65 325h140l-62 -312q-3 -14 -5 -28t-2 -25q0 -26 11.5 -40.5t37.5 -14.5t46.5 13.5t37.5 34.5q36 44 48 102l54 270h99l21 106h125l-20 -99
q-10 -48 -31 -71.5t-69 -23.5h-3l-65 -325h59l-22 -112h-93zM217 756l126 59l68 -196l-89 -39z" />
    <glyph glyph-name="uni1EED" unicode="&#x1eed;" horiz-adv-x="585" 
d="M421 0q-38 0 -63 20t-25 57q0 8 1 17t2 13l3 15h-6q-29 -62 -69 -98t-100 -36t-92 35.5t-32 100.5q0 20 2.5 38t6.5 38l65 325h140l-62 -312q-3 -14 -5 -28t-2 -25q0 -26 11.5 -40.5t37.5 -14.5t46.5 13.5t37.5 34.5q36 44 48 102l54 270h99l21 106h125l-20 -99
q-10 -48 -31 -71.5t-69 -23.5h-3l-65 -325h59l-22 -112h-93zM272 802h146q39 0 58.5 -16.5t19.5 -40.5q0 -32 -15 -56.5t-36 -51.5l-56 -66l-69 34l49 93h-117z" />
    <glyph glyph-name="uni1EEF" unicode="&#x1eef;" horiz-adv-x="585" 
d="M421 0q-38 0 -63 20t-25 57q0 8 1 17t2 13l3 15h-6q-29 -62 -69 -98t-100 -36t-92 35.5t-32 100.5q0 20 2.5 38t6.5 38l65 325h140l-62 -312q-3 -14 -5 -28t-2 -25q0 -26 11.5 -40.5t37.5 -14.5t46.5 13.5t37.5 34.5q36 44 48 102l54 270h99l21 106h125l-20 -99
q-10 -48 -31 -71.5t-69 -23.5h-3l-65 -325h59l-22 -112h-93zM408 602q-20 0 -34.5 6.5t-30.5 15.5q-17 9 -31.5 15.5t-29.5 6.5q-12 0 -23 -5.5t-25 -17.5l-42 65q17 28 44.5 45t58.5 17q20 0 34.5 -6.5t30.5 -15.5q17 -9 31.5 -15.5t29.5 -6.5q12 0 23 5.5t25 17.5l42 -65
q-17 -28 -44.5 -45t-58.5 -17z" />
    <glyph glyph-name="wacute" unicode="&#x1e83;" horiz-adv-x="791" 
d="M54 525h139l7 -190l3 -178h6l65 152l98 216h130l14 -190l11 -185h6l62 159l90 216h138l-240 -525h-147l-15 175l-13 174h-6l-68 -151l-91 -198h-149zM468 579l-84 46l119 190l112 -60z" />
    <glyph glyph-name="wcircumflex" unicode="&#x175;" horiz-adv-x="791" 
d="M54 525h139l7 -190l3 -178h6l65 152l98 216h130l14 -190l11 -185h6l62 159l90 216h138l-240 -525h-147l-15 175l-13 174h-6l-68 -151l-91 -198h-149zM543 794l100 -158l-75 -57l-99 115l-134 -115l-70 57l156 158h122z" />
    <glyph glyph-name="wdieresis" unicode="&#x1e85;" horiz-adv-x="791" 
d="M54 525h139l7 -190l3 -178h6l65 152l98 216h130l14 -190l11 -185h6l62 159l90 216h138l-240 -525h-147l-15 175l-13 174h-6l-68 -151l-91 -198h-149zM354 600q-35 0 -50 14t-15 34q0 5 1.5 14t4.5 26q5 26 24 44.5t61 18.5q35 0 50 -14t15 -34q0 -5 -1.5 -14t-4.5 -26
q-5 -26 -24 -44.5t-61 -18.5zM554 600q-35 0 -50 14t-15 34q0 5 1.5 14t4.5 26q5 26 24 44.5t61 18.5q35 0 50 -14t15 -34q0 -5 -1.5 -14t-4.5 -26q-5 -26 -24 -44.5t-61 -18.5z" />
    <glyph glyph-name="wgrave" unicode="&#x1e81;" horiz-adv-x="791" 
d="M54 525h139l7 -190l3 -178h6l65 152l98 216h130l14 -190l11 -185h6l62 159l90 216h138l-240 -525h-147l-15 175l-13 174h-6l-68 -151l-91 -198h-149zM321 756l126 59l68 -196l-89 -39z" />
    <glyph glyph-name="yacute" unicode="&#xfd;" horiz-adv-x="509" 
d="M408 525h149l-322 -610q-15 -29 -32 -50.5t-39 -36t-50 -21.5t-65 -7h-78l23 112h97l28 58l-74 555h139l20 -198l16 -196h6l88 196zM315 579l-84 46l119 190l112 -60z" />
    <glyph glyph-name="ycircumflex" unicode="&#x177;" horiz-adv-x="509" 
d="M408 525h149l-322 -610q-15 -29 -32 -50.5t-39 -36t-50 -21.5t-65 -7h-78l23 112h97l28 58l-74 555h139l20 -198l16 -196h6l88 196zM390 794l100 -158l-75 -57l-99 115l-134 -115l-70 57l156 158h122z" />
    <glyph glyph-name="ydieresis" unicode="&#xff;" horiz-adv-x="509" 
d="M408 525h149l-322 -610q-15 -29 -32 -50.5t-39 -36t-50 -21.5t-65 -7h-78l23 112h97l28 58l-74 555h139l20 -198l16 -196h6l88 196zM201 600q-35 0 -50 14t-15 34q0 5 1.5 14t4.5 26q5 26 24 44.5t61 18.5q35 0 50 -14t15 -34q0 -5 -1.5 -14t-4.5 -26q-5 -26 -24 -44.5
t-61 -18.5zM401 600q-35 0 -50 14t-15 34q0 5 1.5 14t4.5 26q5 26 24 44.5t61 18.5q35 0 50 -14t15 -34q0 -5 -1.5 -14t-4.5 -26q-5 -26 -24 -44.5t-61 -18.5z" />
    <glyph glyph-name="uni1EF5" unicode="&#x1ef5;" horiz-adv-x="509" 
d="M408 525h149l-322 -610q-15 -29 -32 -50.5t-39 -36t-50 -21.5t-65 -7h-78l23 112h97l28 58l-74 555h139l20 -198l16 -196h6l88 196zM323 -202q-38 0 -54 14.5t-16 37.5q0 5 1.5 12.5t4.5 25.5q5 26 23.5 42t60.5 16q37 0 53 -14.5t16 -37.5q0 -5 -1.5 -12.5t-4.5 -25.5
q-5 -26 -23.5 -42t-59.5 -16z" />
    <glyph glyph-name="ygrave" unicode="&#x1ef3;" horiz-adv-x="509" 
d="M408 525h149l-322 -610q-15 -29 -32 -50.5t-39 -36t-50 -21.5t-65 -7h-78l23 112h97l28 58l-74 555h139l20 -198l16 -196h6l88 196zM168 756l126 59l68 -196l-89 -39z" />
    <glyph glyph-name="uni1EF7" unicode="&#x1ef7;" horiz-adv-x="509" 
d="M408 525h149l-322 -610q-15 -29 -32 -50.5t-39 -36t-50 -21.5t-65 -7h-78l23 112h97l28 58l-74 555h139l20 -198l16 -196h6l88 196zM222 802h146q39 0 58.5 -16.5t19.5 -40.5q0 -32 -15 -56.5t-36 -51.5l-56 -66l-69 34l49 93h-117z" />
    <glyph glyph-name="uni1EF9" unicode="&#x1ef9;" horiz-adv-x="509" 
d="M408 525h149l-322 -610q-15 -29 -32 -50.5t-39 -36t-50 -21.5t-65 -7h-78l23 112h97l28 58l-74 555h139l20 -198l16 -196h6l88 196zM381 601q-22 0 -39 6t-37 15q-19 9 -35.5 15.5t-36.5 6.5q-17 0 -29 -6t-29 -19l-43 69q23 29 51.5 45.5t63.5 16.5q22 0 39 -6t37 -15
q19 -9 35.5 -15.5t36.5 -6.5q17 0 29 6t29 19l43 -69q-23 -29 -51.5 -45.5t-63.5 -16.5z" />
    <glyph glyph-name="zacute" unicode="&#x17a;" horiz-adv-x="492" 
d="M-11 0l22 112l306 301h-241l22 112h409l-22 -112l-307 -301h258l-22 -112h-425zM327 579l-84 46l119 190l112 -60z" />
    <glyph glyph-name="zcaron" unicode="&#x17e;" horiz-adv-x="492" 
d="M-11 0l22 112l306 301h-241l22 112h409l-22 -112l-307 -301h258l-22 -112h-425zM247 588l-101 158l74 57l96 -115l137 115l72 -57l-155 -158h-123z" />
    <glyph glyph-name="zdotaccent" unicode="&#x17c;" horiz-adv-x="492" 
d="M-11 0l22 112l306 301h-241l22 112h409l-22 -112l-307 -301h258l-22 -112h-425zM313 591q-43 0 -59.5 16.5t-16.5 42.5q0 6 1.5 13.5t5.5 28.5q5 29 25.5 48t68.5 19q43 0 59.5 -16.5t16.5 -42.5q0 -6 -1.5 -13.5t-5.5 -28.5q-5 -29 -25.5 -48t-68.5 -19z" />
    <glyph glyph-name="Aacute" unicode="&#xc1;" horiz-adv-x="658" 
d="M441 0l-16 170h-223l-82 -170h-155l359 698h185l79 -698h-147zM394 567h-8l-127 -276h156zM439 739l-84 46l119 190l112 -60z" />
    <glyph glyph-name="Abreve" unicode="&#x102;" horiz-adv-x="658" 
d="M441 0l-16 170h-223l-82 -170h-155l359 698h185l79 -698h-147zM394 567h-8l-127 -276h156zM423 739q-42 0 -71.5 15t-49.5 39t-31.5 54.5t-17.5 61.5l80 42l18 -39q16 -34 32 -53t48 -19q27 0 48.5 18.5t49.5 55.5l28 37l83 -46q-18 -32 -39 -62t-47 -53t-58 -37t-73 -14
z" />
    <glyph glyph-name="Acircumflex" unicode="&#xc2;" horiz-adv-x="658" 
d="M441 0l-16 170h-223l-82 -170h-155l359 698h185l79 -698h-147zM394 567h-8l-127 -276h156zM514 954l100 -158l-75 -57l-99 115l-134 -115l-70 57l156 158h122z" />
    <glyph glyph-name="Adieresis" unicode="&#xc4;" horiz-adv-x="658" 
d="M441 0l-16 170h-223l-82 -170h-155l359 698h185l79 -698h-147zM394 567h-8l-127 -276h156zM325 760q-35 0 -50 14.5t-15 34.5q0 5 1.5 13t4.5 26q5 26 24 44.5t61 18.5q35 0 50 -14.5t15 -34.5q0 -5 -1.5 -13t-4.5 -26q-5 -26 -24 -44.5t-61 -18.5zM525 760
q-35 0 -50 14.5t-15 34.5q0 5 1.5 13t4.5 26q5 26 24 44.5t61 18.5q35 0 50 -14.5t15 -34.5q0 -5 -1.5 -13t-4.5 -26q-5 -26 -24 -44.5t-61 -18.5z" />
    <glyph glyph-name="uni1EA0" unicode="&#x1ea0;" horiz-adv-x="658" 
d="M441 0l-16 170h-223l-82 -170h-155l359 698h185l79 -698h-147zM394 567h-8l-127 -276h156zM248 -202q-38 0 -54 14.5t-16 37.5q0 5 1.5 12.5t4.5 25.5q5 26 23.5 42t60.5 16q37 0 53 -14.5t16 -37.5q0 -5 -1.5 -12.5t-4.5 -25.5q-5 -26 -23.5 -42t-59.5 -16z" />
    <glyph glyph-name="Agrave" unicode="&#xc0;" horiz-adv-x="658" 
d="M441 0l-16 170h-223l-82 -170h-155l359 698h185l79 -698h-147zM394 567h-8l-127 -276h156zM292 916l126 59l68 -196l-89 -39z" />
    <glyph glyph-name="uni1EA2" unicode="&#x1ea2;" horiz-adv-x="658" 
d="M441 0l-16 170h-223l-82 -170h-155l359 698h185l79 -698h-147zM394 567h-8l-127 -276h156zM352 962h146q39 0 58.5 -16.5t19.5 -40.5q0 -32 -15 -56.5t-36 -51.5l-56 -66l-69 34l49 93h-117z" />
    <glyph glyph-name="Amacron" unicode="&#x100;" horiz-adv-x="658" 
d="M441 0l-16 170h-223l-82 -170h-155l359 698h185l79 -698h-147zM394 567h-8l-127 -276h156zM309 887h278l-20 -102h-278z" />
    <glyph glyph-name="Aogonek" unicode="&#x104;" horiz-adv-x="658" 
d="M324 698h185l79 -698q-41 -25 -65 -42.5t-36 -30.5t-15 -22t-3 -16q0 -12 7.5 -20.5t27.5 -8.5q16 0 30 5.5t24 21.5l52 -49q-19 -23 -48 -36.5t-77 -13.5q-50 0 -84.5 21t-34.5 62q0 38 32.5 71.5t105.5 53.5l-1 4h-62l-16 170h-223l-82 -170h-155zM394 567h-8
l-127 -276h156z" />
    <glyph glyph-name="Aring" unicode="&#xc5;" horiz-adv-x="658" 
d="M441 0l-16 170h-223l-82 -170h-155l359 698h185l79 -698h-147zM394 567h-8l-127 -276h156zM416 719q-56 0 -92 34.5t-36 87.5q0 37 13.5 67.5t36 52t52.5 33t63 11.5q56 0 92 -34.5t36 -87.5q0 -38 -13.5 -68t-36 -51.5t-52.5 -33t-63 -11.5zM422 793q23 0 38 14t20 38
l6 28.5t2 18.5q0 39 -41 39q-23 0 -38 -14t-20 -38l-6 -28.5t-2 -18.5q0 -39 41 -39z" />
    <glyph glyph-name="Aringacute" unicode="&#x1fa;" horiz-adv-x="658" 
d="M441 0l-16 170h-223l-82 -170h-155l359 698h185l79 -698h-147zM394 567h-8l-127 -276h156zM466 975l-46 56l145 117l61 -79zM419 725q-55 0 -91 27t-36 75q0 33 13.5 58.5t36.5 43t53.5 27t65.5 9.5q55 0 91 -27t36 -76q0 -32 -13.5 -57.5t-36.5 -43t-54 -27t-65 -9.5z
M430 794q50 0 59 44q2 8 3 14.5t1 9.5q0 34 -43 34q-50 0 -59 -45q-2 -8 -3 -14.5t-1 -9.5q0 -33 43 -33z" />
    <glyph glyph-name="Atilde" unicode="&#xc3;" horiz-adv-x="658" 
d="M441 0l-16 170h-223l-82 -170h-155l359 698h185l79 -698h-147zM394 567h-8l-127 -276h156zM505 761q-22 0 -39 6t-37 15q-19 9 -35.5 15.5t-36.5 6.5q-17 0 -29 -6t-29 -19l-43 69q23 29 51.5 45.5t63.5 16.5q22 0 39 -6t37 -15q19 -9 35.5 -15.5t36.5 -6.5q17 0 29 6
t29 19l43 -69q-23 -29 -51.5 -45.5t-63.5 -16.5z" />
    <glyph glyph-name="uni1EAE" unicode="&#x1eae;" horiz-adv-x="658" 
d="M441 0l-16 170h-223l-82 -170h-155l359 698h185l79 -698h-147zM394 567h-8l-127 -276h156zM426 732q-45 0 -77 12.5t-53.5 33.5t-34 47.5t-18.5 55.5l77 47l16 -29q11 -19 20.5 -32t20 -21t24 -11.5t31.5 -3.5q15 0 28 3.5t26.5 11t28.5 20.5t33 33l27 29l71 -47
q-20 -32 -41 -59t-47 -47t-58.5 -31.5t-73.5 -11.5zM462 893l-75 40l106 194l107 -58z" />
    <glyph glyph-name="uni1EB6" unicode="&#x1eb6;" horiz-adv-x="658" 
d="M441 0l-16 170h-223l-82 -170h-155l359 698h185l79 -698h-147zM394 567h-8l-127 -276h156zM423 739q-42 0 -71.5 15t-49.5 39t-31.5 54.5t-17.5 61.5l80 42l18 -39q16 -34 32 -53t48 -19q27 0 48.5 18.5t49.5 55.5l28 37l83 -46q-18 -32 -39 -62t-47 -53t-58 -37t-73 -14
zM248 -202q-38 0 -54 14.5t-16 37.5q0 5 1.5 12.5t4.5 25.5q5 26 23.5 42t60.5 16q37 0 53 -14.5t16 -37.5q0 -5 -1.5 -12.5t-4.5 -25.5q-5 -26 -23.5 -42t-59.5 -16z" />
    <glyph glyph-name="uni1EB0" unicode="&#x1eb0;" horiz-adv-x="658" 
d="M441 0l-16 170h-223l-82 -170h-155l359 698h185l79 -698h-147zM394 567h-8l-127 -276h156zM426 732q-45 0 -77 12.5t-53.5 33.5t-34 47.5t-18.5 55.5l77 47l16 -29q11 -19 20.5 -32t20 -21t24 -11.5t31.5 -3.5q15 0 28 3.5t26.5 11t28.5 20.5t33 33l27 29l71 -47
q-20 -32 -41 -59t-47 -47t-58.5 -31.5t-73.5 -11.5zM326 1070l120 55l60 -193l-83 -38z" />
    <glyph glyph-name="uni1EB2" unicode="&#x1eb2;" horiz-adv-x="658" 
d="M441 0l-16 170h-223l-82 -170h-155l359 698h185l79 -698h-147zM394 567h-8l-127 -276h156zM356 1112h134q39 0 58 -16.5t19 -40.5q0 -32 -14.5 -56.5t-35.5 -51.5l-57 -66l-68 34l51 96h-107zM426 732q-45 0 -77 12.5t-53.5 33.5t-34 47.5t-18.5 55.5l77 47l16 -29
q11 -19 20.5 -32t20 -21t24 -11.5t31.5 -3.5q15 0 28 3.5t26.5 11t28.5 20.5t33 33l27 29l71 -47q-20 -32 -41 -59t-47 -47t-58.5 -31.5t-73.5 -11.5z" />
    <glyph glyph-name="uni1EB4" unicode="&#x1eb4;" horiz-adv-x="658" 
d="M441 0l-16 170h-223l-82 -170h-155l359 698h185l79 -698h-147zM394 567h-8l-127 -276h156zM512 947q-20 0 -35.5 6t-32.5 14q-19 10 -34 16t-34 6q-16 0 -30 -6t-32 -19l-34 65q21 26 52 44t69 18q20 0 35.5 -6t32.5 -14q19 -10 34 -16t34 -6q16 0 30 6t32 19l34 -65
q-21 -26 -52 -44t-69 -18zM426 732q-45 0 -77 12.5t-53.5 33.5t-34 47.5t-18.5 55.5l77 47l16 -29q11 -19 20.5 -32t20 -21t24 -11.5t31.5 -3.5q15 0 28 3.5t26.5 11t28.5 20.5t33 33l27 29l71 -47q-20 -32 -41 -59t-47 -47t-58.5 -31.5t-73.5 -11.5z" />
    <glyph glyph-name="uni1EA4" unicode="&#x1ea4;" horiz-adv-x="658" 
d="M441 0l-16 170h-223l-82 -170h-155l359 698h185l79 -698h-147zM394 567h-8l-127 -276h156zM618 895l-76 40l104 190l108 -55zM498 940l113 -146l-71 -63l-103 104l-135 -104l-65 63l171 146h90z" />
    <glyph glyph-name="uni1EAC" unicode="&#x1eac;" horiz-adv-x="658" 
d="M441 0l-16 170h-223l-82 -170h-155l359 698h185l79 -698h-147zM394 567h-8l-127 -276h156zM514 954l100 -158l-75 -57l-99 115l-134 -115l-70 57l156 158h122zM248 -202q-38 0 -54 14.5t-16 37.5q0 5 1.5 12.5t4.5 25.5q5 26 23.5 42t60.5 16q37 0 53 -14.5t16 -37.5
q0 -5 -1.5 -12.5t-4.5 -25.5q-5 -26 -23.5 -42t-59.5 -16z" />
    <glyph glyph-name="uni1EA6" unicode="&#x1ea6;" horiz-adv-x="658" 
d="M441 0l-16 170h-223l-82 -170h-155l359 698h185l79 -698h-147zM394 567h-8l-127 -276h156zM165 1070l112 55l73 -193l-73 -38zM497 940l113 -146l-71 -63l-103 104l-135 -104l-65 63l171 146h90z" />
    <glyph glyph-name="uni1EA8" unicode="&#x1ea8;" horiz-adv-x="658" 
d="M441 0l-16 170h-223l-82 -170h-155l359 698h185l79 -698h-147zM394 567h-8l-127 -276h156zM515 1112h135q39 0 57.5 -16.5t18.5 -40.5q0 -32 -14 -56.5t-36 -51.5l-57 -66l-68 34l52 96h-108zM497 940l113 -146l-71 -63l-103 104l-135 -104l-65 63l171 146h90z" />
    <glyph glyph-name="uni1EAA" unicode="&#x1eaa;" horiz-adv-x="658" 
d="M441 0l-16 170h-223l-82 -170h-155l359 698h185l79 -698h-147zM394 567h-8l-127 -276h156zM419 1101q19 0 33 -6t31 -14q20 -10 35 -16t32 -6q14 0 27 6t30 19l35 -65q-23 -26 -53 -44t-66 -18q-19 0 -33 6t-31 14q-20 10 -35 16t-32 6q-14 0 -27 -6t-30 -19l-35 65
q23 26 53 44t66 18zM495 928l115 -134l-72 -63l-103 104l-135 -104l-64 63l168 134h91z" />
    <glyph glyph-name="AE" unicode="&#xc6;" horiz-adv-x="920" 
d="M398 169h-197l-101 -169h-156l444 698h565l-26 -128h-303l-31 -153h268l-26 -128h-268l-32 -161h314l-26 -128h-459zM449 570l-171 -279h144l56 279h-29z" />
    <glyph glyph-name="AEacute" unicode="&#x1fc;" horiz-adv-x="920" 
d="M398 169h-197l-101 -169h-156l444 698h565l-26 -128h-303l-31 -153h268l-26 -128h-268l-32 -161h314l-26 -128h-459zM449 570l-171 -279h144l56 279h-29zM718 739l-84 46l119 190l112 -60z" />
    <glyph glyph-name="Cacute" unicode="&#x106;" horiz-adv-x="635" 
d="M306 -12q-56 0 -101.5 18t-78.5 53.5t-51 88.5t-18 124q0 92 27.5 172t75.5 139t113.5 93t141.5 34q94 0 152.5 -44.5t83.5 -125.5l-129 -54q-6 20 -15 37.5t-22.5 30t-33 20t-47.5 7.5q-70 0 -113.5 -48t-59.5 -127l-22 -110q-3 -15 -4 -27.5t-1 -22.5q0 -129 115 -129
q59 0 94.5 29t58.5 75l121 -55q-47 -91 -121.5 -134.5t-165.5 -43.5zM447 739l-84 46l119 190l112 -60z" />
    <glyph glyph-name="Ccaron" unicode="&#x10c;" horiz-adv-x="635" 
d="M306 -12q-56 0 -101.5 18t-78.5 53.5t-51 88.5t-18 124q0 92 27.5 172t75.5 139t113.5 93t141.5 34q94 0 152.5 -44.5t83.5 -125.5l-129 -54q-6 20 -15 37.5t-22.5 30t-33 20t-47.5 7.5q-70 0 -113.5 -48t-59.5 -127l-22 -110q-3 -15 -4 -27.5t-1 -22.5q0 -129 115 -129
q59 0 94.5 29t58.5 75l121 -55q-47 -91 -121.5 -134.5t-165.5 -43.5zM367 748l-101 158l74 57l96 -115l137 115l72 -57l-155 -158h-123z" />
    <glyph glyph-name="Ccedilla" unicode="&#xc7;" horiz-adv-x="635" 
d="M404 581q-70 0 -113.5 -48.5t-59.5 -126.5l-22 -110q-3 -15 -4 -27.5t-1 -22.5q0 -129 116 -129q58 0 93.5 29t58.5 75l121 -55q-45 -88 -115 -131.5t-157 -46.5l-17 -43l2 -4q22 7 43 7q26 0 44 -15t18 -41t-11.5 -45.5t-31 -32.5t-45.5 -19.5t-56 -6.5q-42 0 -70 13.5
t-41 32.5l52 52q6 -9 21 -18.5t37 -9.5q21 0 35.5 7t14.5 24q0 12 -14 22t-52 14l-22 2l28 65q-90 15 -144.5 85t-54.5 195q0 92 27.5 172t76 139t114 93t141.5 34q94 0 152 -44.5t83 -125.5l-129 -54q-6 19 -15 36.5t-22.5 30.5t-33 20.5t-47.5 7.5z" />
    <glyph glyph-name="Ccircumflex" unicode="&#x108;" horiz-adv-x="635" 
d="M306 -12q-56 0 -101.5 18t-78.5 53.5t-51 88.5t-18 124q0 92 27.5 172t75.5 139t113.5 93t141.5 34q94 0 152.5 -44.5t83.5 -125.5l-129 -54q-6 20 -15 37.5t-22.5 30t-33 20t-47.5 7.5q-70 0 -113.5 -48t-59.5 -127l-22 -110q-3 -15 -4 -27.5t-1 -22.5q0 -129 115 -129
q59 0 94.5 29t58.5 75l121 -55q-47 -91 -121.5 -134.5t-165.5 -43.5zM522 954l100 -158l-75 -57l-99 115l-134 -115l-70 57l156 158h122z" />
    <glyph glyph-name="Cdotaccent" unicode="&#x10a;" horiz-adv-x="635" 
d="M306 -12q-56 0 -101.5 18t-78.5 53.5t-51 88.5t-18 124q0 92 27.5 172t75.5 139t113.5 93t141.5 34q94 0 152.5 -44.5t83.5 -125.5l-129 -54q-6 20 -15 37.5t-22.5 30t-33 20t-47.5 7.5q-70 0 -113.5 -48t-59.5 -127l-22 -110q-3 -15 -4 -27.5t-1 -22.5q0 -129 115 -129
q59 0 94.5 29t58.5 75l121 -55q-47 -91 -121.5 -134.5t-165.5 -43.5zM434 751q-43 0 -59.5 16.5t-16.5 42.5q0 6 1.5 13.5t5.5 28.5q5 29 25.5 48t68.5 19q43 0 59.5 -16.5t16.5 -42.5q0 -6 -1.5 -13.5t-5.5 -28.5q-5 -29 -25.5 -48t-68.5 -19z" />
    <glyph glyph-name="Dcaron" unicode="&#x10e;" horiz-adv-x="682" 
d="M162 698h224q125 0 196.5 -66t71.5 -195q0 -93 -24 -173t-70.5 -138.5t-115 -92t-156.5 -33.5h-266zM300 128q68 0 116 41t65 127l19 94q4 19 5.5 36t1.5 26q0 63 -30.5 90.5t-81.5 27.5h-113l-89 -442h107zM341 748l-101 158l74 57l96 -115l137 115l72 -57l-155 -158
h-123z" />
    <glyph glyph-name="Dcroat" unicode="&#x110;" horiz-adv-x="687" 
d="M88 298h-78l23 112h76l58 288h224q125 0 196.5 -66t71.5 -195q0 -93 -24 -173t-70.5 -138.5t-115 -92t-156.5 -33.5h-266zM305 128q69 0 116.5 41.5t64.5 126.5l19 94q4 18 5.5 35.5t1.5 26.5q0 63 -30.5 90.5t-81.5 27.5h-114l-32 -160h113l-23 -112h-113l-33 -170h107z
" />
    <glyph glyph-name="Eth" unicode="&#xd0;" horiz-adv-x="687" 
d="M88 298h-78l23 112h76l58 288h224q125 0 196.5 -66t71.5 -195q0 -93 -24 -173t-70.5 -138.5t-115 -92t-156.5 -33.5h-266zM305 128q69 0 116.5 41.5t64.5 126.5l19 94q4 18 5.5 35.5t1.5 26.5q0 63 -30.5 90.5t-81.5 27.5h-114l-32 -160h113l-23 -112h-113l-33 -170h107z
" />
    <glyph glyph-name="Eacute" unicode="&#xc9;" horiz-adv-x="578" 
d="M22 0l140 698h449l-26 -128h-303l-31 -153h268l-26 -128h-268l-32 -161h314l-26 -128h-459zM414 739l-84 46l119 190l112 -60z" />
    <glyph glyph-name="Ebreve" unicode="&#x114;" horiz-adv-x="578" 
d="M22 0l140 698h449l-26 -128h-303l-31 -153h268l-26 -128h-268l-32 -161h314l-26 -128h-459zM398 739q-42 0 -71.5 15t-49.5 39t-31.5 54.5t-17.5 61.5l80 42l18 -39q16 -34 32 -53t48 -19q27 0 48.5 18.5t49.5 55.5l28 37l83 -46q-18 -32 -39 -62t-47 -53t-58 -37
t-73 -14z" />
    <glyph glyph-name="Ecaron" unicode="&#x11a;" horiz-adv-x="578" 
d="M22 0l140 698h449l-26 -128h-303l-31 -153h268l-26 -128h-268l-32 -161h314l-26 -128h-459zM334 748l-101 158l74 57l96 -115l137 115l72 -57l-155 -158h-123z" />
    <glyph glyph-name="Ecircumflex" unicode="&#xca;" horiz-adv-x="578" 
d="M22 0l140 698h449l-26 -128h-303l-31 -153h268l-26 -128h-268l-32 -161h314l-26 -128h-459zM489 954l100 -158l-75 -57l-99 115l-134 -115l-70 57l156 158h122z" />
    <glyph glyph-name="Edieresis" unicode="&#xcb;" horiz-adv-x="578" 
d="M22 0l140 698h449l-26 -128h-303l-31 -153h268l-26 -128h-268l-32 -161h314l-26 -128h-459zM300 760q-35 0 -50 14.5t-15 34.5q0 5 1.5 13t4.5 26q5 26 24 44.5t61 18.5q35 0 50 -14.5t15 -34.5q0 -5 -1.5 -13t-4.5 -26q-5 -26 -24 -44.5t-61 -18.5zM500 760
q-35 0 -50 14.5t-15 34.5q0 5 1.5 13t4.5 26q5 26 24 44.5t61 18.5q35 0 50 -14.5t15 -34.5q0 -5 -1.5 -13t-4.5 -26q-5 -26 -24 -44.5t-61 -18.5z" />
    <glyph glyph-name="Edotaccent" unicode="&#x116;" horiz-adv-x="578" 
d="M22 0l140 698h449l-26 -128h-303l-31 -153h268l-26 -128h-268l-32 -161h314l-26 -128h-459zM401 751q-43 0 -59.5 16.5t-16.5 42.5q0 6 1.5 13.5t5.5 28.5q5 29 25.5 48t68.5 19q43 0 59.5 -16.5t16.5 -42.5q0 -6 -1.5 -13.5t-5.5 -28.5q-5 -29 -25.5 -48t-68.5 -19z" />
    <glyph glyph-name="uni1EB8" unicode="&#x1eb8;" horiz-adv-x="578" 
d="M22 0l140 698h449l-26 -128h-303l-31 -153h268l-26 -128h-268l-32 -161h314l-26 -128h-459zM228 -202q-38 0 -54 14.5t-16 37.5q0 5 1.5 12.5t4.5 25.5q5 26 23.5 42t60.5 16q37 0 53 -14.5t16 -37.5q0 -5 -1.5 -12.5t-4.5 -25.5q-5 -26 -23.5 -42t-59.5 -16z" />
    <glyph glyph-name="Egrave" unicode="&#xc8;" horiz-adv-x="578" 
d="M22 0l140 698h449l-26 -128h-303l-31 -153h268l-26 -128h-268l-32 -161h314l-26 -128h-459zM267 916l126 59l68 -196l-89 -39z" />
    <glyph glyph-name="uni1EBA" unicode="&#x1eba;" horiz-adv-x="578" 
d="M22 0l140 698h449l-26 -128h-303l-31 -153h268l-26 -128h-268l-32 -161h314l-26 -128h-459zM327 962h146q39 0 58.5 -16.5t19.5 -40.5q0 -32 -15 -56.5t-36 -51.5l-56 -66l-69 34l49 93h-117z" />
    <glyph glyph-name="Emacron" unicode="&#x112;" horiz-adv-x="578" 
d="M22 0l140 698h449l-26 -128h-303l-31 -153h268l-26 -128h-268l-32 -161h314l-26 -128h-459zM284 887h278l-20 -102h-278z" />
    <glyph glyph-name="Eogonek" unicode="&#x118;" horiz-adv-x="578" 
d="M162 698h449l-26 -128h-303l-31 -153h268l-26 -128h-268l-32 -161h314l-26 -128q-41 -25 -65 -42.5t-36 -30.5t-15 -22t-3 -16q0 -12 7.5 -20.5t27.5 -8.5q16 0 30 5.5t24 21.5l52 -49q-19 -23 -48 -36.5t-77 -13.5q-50 0 -84.5 21t-34.5 62q0 38 32.5 71.5t105.5 53.5
l-1 4h-374z" />
    <glyph glyph-name="uni1EBC" unicode="&#x1ebc;" horiz-adv-x="578" 
d="M22 0l140 698h449l-26 -128h-303l-31 -153h268l-26 -128h-268l-32 -161h314l-26 -128h-459zM480 761q-22 0 -39 6t-37 15q-19 9 -35.5 15.5t-36.5 6.5q-17 0 -29 -6t-29 -19l-43 69q23 29 51.5 45.5t63.5 16.5q22 0 39 -6t37 -15q19 -9 35.5 -15.5t36.5 -6.5q17 0 29 6
t29 19l43 -69q-23 -29 -51.5 -45.5t-63.5 -16.5z" />
    <glyph glyph-name="uni1EBE" unicode="&#x1ebe;" horiz-adv-x="578" 
d="M22 0l140 698h449l-26 -128h-303l-31 -153h268l-26 -128h-268l-32 -161h314l-26 -128h-459zM593 895l-76 40l104 190l108 -55zM473 940l113 -146l-71 -63l-103 104l-135 -104l-65 63l171 146h90z" />
    <glyph glyph-name="uni1EC6" unicode="&#x1ec6;" horiz-adv-x="578" 
d="M22 0l140 698h449l-26 -128h-303l-31 -153h268l-26 -128h-268l-32 -161h314l-26 -128h-459zM489 954l100 -158l-75 -57l-99 115l-134 -115l-70 57l156 158h122zM228 -202q-38 0 -54 14.5t-16 37.5q0 5 1.5 12.5t4.5 25.5q5 26 23.5 42t60.5 16q37 0 53 -14.5t16 -37.5
q0 -5 -1.5 -12.5t-4.5 -25.5q-5 -26 -23.5 -42t-59.5 -16z" />
    <glyph glyph-name="uni1EC0" unicode="&#x1ec0;" horiz-adv-x="578" 
d="M22 0l140 698h449l-26 -128h-303l-31 -153h268l-26 -128h-268l-32 -161h314l-26 -128h-459zM140 1070l112 55l73 -193l-73 -38zM472 940l113 -146l-71 -63l-103 104l-135 -104l-65 63l171 146h90z" />
    <glyph glyph-name="uni1EC2" unicode="&#x1ec2;" horiz-adv-x="578" 
d="M22 0l140 698h449l-26 -128h-303l-31 -153h268l-26 -128h-268l-32 -161h314l-26 -128h-459zM490 1112h135q39 0 57.5 -16.5t18.5 -40.5q0 -32 -14 -56.5t-36 -51.5l-57 -66l-68 34l52 96h-108zM472 940l113 -146l-71 -63l-103 104l-135 -104l-65 63l171 146h90z" />
    <glyph glyph-name="uni1EC4" unicode="&#x1ec4;" horiz-adv-x="578" 
d="M22 0l140 698h449l-26 -128h-303l-31 -153h268l-26 -128h-268l-32 -161h314l-26 -128h-459zM394 1101q19 0 33 -6t31 -14q20 -10 35 -16t32 -6q14 0 27 6t30 19l35 -65q-23 -26 -53 -44t-66 -18q-19 0 -33 6t-31 14q-20 10 -35 16t-32 6q-14 0 -27 -6t-30 -19l-35 65
q23 26 53 44t66 18zM470 928l115 -134l-72 -63l-103 104l-135 -104l-64 63l168 134h91z" />
    <glyph glyph-name="uni018F" unicode="&#x18f;" horiz-adv-x="696" 
d="M309 -12q-53 0 -99 16.5t-80 50.5t-53.5 87t-19.5 125q0 21 3 42t7 41l9 44h437q5 20 6 34t1 27q0 59 -33 92t-99 33q-57 0 -91.5 -30t-57.5 -84l-130 55q21 41 50.5 75.5t67.5 60t84 39.5t99 14q55 0 102.5 -17.5t82 -51.5t54.5 -85.5t20 -118.5q0 -95 -26 -177
t-73.5 -142.5t-114 -95t-146.5 -34.5zM323 118q63 0 105.5 39.5t61.5 121.5h-285q-2 -10 -2 -18.5v-17.5q0 -125 120 -125z" />
    <glyph glyph-name="Gbreve" unicode="&#x11e;" horiz-adv-x="700" 
d="M482 111h-8q-26 -51 -73 -87t-118 -36q-50 0 -91.5 17.5t-71.5 52.5t-46.5 87.5t-16.5 122.5q0 94 26.5 175t75 140.5t116 93t150.5 33.5q46 0 87 -10.5t73.5 -31.5t56 -52t35.5 -71l-121 -64q-12 49 -48.5 74.5t-90.5 25.5q-81 0 -125.5 -46.5t-60.5 -127.5l-22 -110
q-6 -30 -6 -56q0 -33 9 -56.5t25 -38.5t37 -22t44 -7q32 0 60.5 8.5t51 24t37.5 36t20 44.5l7 34h-126l24 122h264l-77 -386h-119zM442 739q-42 0 -71.5 15t-49.5 39t-31.5 54.5t-17.5 61.5l80 42l18 -39q16 -34 32 -53t48 -19q27 0 48.5 18.5t49.5 55.5l28 37l83 -46
q-18 -32 -39 -62t-47 -53t-58 -37t-73 -14z" />
    <glyph glyph-name="Gcircumflex" unicode="&#x11c;" horiz-adv-x="700" 
d="M482 111h-8q-26 -51 -73 -87t-118 -36q-50 0 -91.5 17.5t-71.5 52.5t-46.5 87.5t-16.5 122.5q0 94 26.5 175t75 140.5t116 93t150.5 33.5q46 0 87 -10.5t73.5 -31.5t56 -52t35.5 -71l-121 -64q-12 49 -48.5 74.5t-90.5 25.5q-81 0 -125.5 -46.5t-60.5 -127.5l-22 -110
q-6 -30 -6 -56q0 -33 9 -56.5t25 -38.5t37 -22t44 -7q32 0 60.5 8.5t51 24t37.5 36t20 44.5l7 34h-126l24 122h264l-77 -386h-119zM533 954l100 -158l-75 -57l-99 115l-134 -115l-70 57l156 158h122z" />
    <glyph glyph-name="Gcommaaccent" unicode="&#x122;" horiz-adv-x="700" 
d="M482 111h-8q-26 -51 -73 -87t-118 -36q-50 0 -91.5 17.5t-71.5 52.5t-46.5 87.5t-16.5 122.5q0 94 26.5 175t75 140.5t116 93t150.5 33.5q46 0 87 -10.5t73.5 -31.5t56 -52t35.5 -71l-121 -64q-12 49 -48.5 74.5t-90.5 25.5q-81 0 -125.5 -46.5t-60.5 -127.5l-22 -110
q-6 -30 -6 -56q0 -33 9 -56.5t25 -38.5t37 -22t44 -7q32 0 60.5 8.5t51 24t37.5 36t20 44.5l7 34h-126l24 122h264l-77 -386h-119zM278 -42q63 0 63 -51q0 -6 -0.5 -11t-2.5 -16q-5 -23 -14.5 -45.5t-22 -42.5t-28 -37.5t-31.5 -29.5h-83q29 22 47.5 45.5t32.5 53.5
q-23 2 -31 14.5t-8 30.5q0 7 4 27q6 30 25.5 46t48.5 16z" />
    <glyph glyph-name="Gdotaccent" unicode="&#x120;" horiz-adv-x="700" 
d="M482 111h-8q-26 -51 -73 -87t-118 -36q-50 0 -91.5 17.5t-71.5 52.5t-46.5 87.5t-16.5 122.5q0 94 26.5 175t75 140.5t116 93t150.5 33.5q46 0 87 -10.5t73.5 -31.5t56 -52t35.5 -71l-121 -64q-12 49 -48.5 74.5t-90.5 25.5q-81 0 -125.5 -46.5t-60.5 -127.5l-22 -110
q-6 -30 -6 -56q0 -33 9 -56.5t25 -38.5t37 -22t44 -7q32 0 60.5 8.5t51 24t37.5 36t20 44.5l7 34h-126l24 122h264l-77 -386h-119zM445 751q-43 0 -59.5 16.5t-16.5 42.5q0 6 1.5 13.5t5.5 28.5q5 29 25.5 48t68.5 19q43 0 59.5 -16.5t16.5 -42.5q0 -6 -1.5 -13.5
t-5.5 -28.5q-5 -29 -25.5 -48t-68.5 -19z" />
    <glyph glyph-name="Hbar" unicode="&#x126;" horiz-adv-x="710" 
d="M490 289h-260l-58 -289h-145l103 513h-72l21 107h72l16 78h145l-16 -78h260l16 78h145l-16 -78h72l-21 -107h-72l-103 -513h-145zM516 417l19 96h-260l-19 -96h260z" />
    <glyph glyph-name="Hcircumflex" unicode="&#x124;" horiz-adv-x="700" 
d="M485 289h-260l-58 -289h-145l140 698h145l-56 -281h260l56 281h145l-140 -698h-145zM528 954l100 -158l-75 -57l-99 115l-134 -115l-70 57l156 158h122z" />
    <glyph glyph-name="Iacute" unicode="&#xcd;" horiz-adv-x="415" 
d="M-4 0l24 118h86l93 462h-86l23 118h318l-24 -118h-86l-93 -462h86l-23 -118h-318zM323 739l-84 46l119 190l112 -60z" />
    <glyph glyph-name="Ibreve" unicode="&#x12c;" horiz-adv-x="415" 
d="M-4 0l24 118h86l93 462h-86l23 118h318l-24 -118h-86l-93 -462h86l-23 -118h-318zM307 739q-42 0 -71.5 15t-49.5 39t-31.5 54.5t-17.5 61.5l80 42l18 -39q16 -34 32 -53t48 -19q27 0 48.5 18.5t49.5 55.5l28 37l83 -46q-18 -32 -39 -62t-47 -53t-58 -37t-73 -14z" />
    <glyph glyph-name="Icircumflex" unicode="&#xce;" horiz-adv-x="415" 
d="M-4 0l24 118h86l93 462h-86l23 118h318l-24 -118h-86l-93 -462h86l-23 -118h-318zM398 954l100 -158l-75 -57l-99 115l-134 -115l-70 57l156 158h122z" />
    <glyph glyph-name="Idieresis" unicode="&#xcf;" horiz-adv-x="415" 
d="M-4 0l24 118h86l93 462h-86l23 118h318l-24 -118h-86l-93 -462h86l-23 -118h-318zM209 760q-35 0 -50 14.5t-15 34.5q0 5 1.5 13t4.5 26q5 26 24 44.5t61 18.5q35 0 50 -14.5t15 -34.5q0 -5 -1.5 -13t-4.5 -26q-5 -26 -24 -44.5t-61 -18.5zM409 760q-35 0 -50 14.5
t-15 34.5q0 5 1.5 13t4.5 26q5 26 24 44.5t61 18.5q35 0 50 -14.5t15 -34.5q0 -5 -1.5 -13t-4.5 -26q-5 -26 -24 -44.5t-61 -18.5z" />
    <glyph glyph-name="Idotaccent" unicode="&#x130;" horiz-adv-x="415" 
d="M-4 0l24 118h86l93 462h-86l23 118h318l-24 -118h-86l-93 -462h86l-23 -118h-318zM310 751q-43 0 -59.5 16.5t-16.5 42.5q0 6 1.5 13.5t5.5 28.5q5 29 25.5 48t68.5 19q43 0 59.5 -16.5t16.5 -42.5q0 -6 -1.5 -13.5t-5.5 -28.5q-5 -29 -25.5 -48t-68.5 -19z" />
    <glyph glyph-name="uni1ECA" unicode="&#x1eca;" horiz-adv-x="415" 
d="M-4 0l24 118h86l93 462h-86l23 118h318l-24 -118h-86l-93 -462h86l-23 -118h-318zM120 -202q-38 0 -54 14.5t-16 37.5q0 5 1.5 12.5t4.5 25.5q5 26 23.5 42t60.5 16q37 0 53 -14.5t16 -37.5q0 -5 -1.5 -12.5t-4.5 -25.5q-5 -26 -23.5 -42t-59.5 -16z" />
    <glyph glyph-name="Igrave" unicode="&#xcc;" horiz-adv-x="415" 
d="M-4 0l24 118h86l93 462h-86l23 118h318l-24 -118h-86l-93 -462h86l-23 -118h-318zM176 916l126 59l68 -196l-89 -39z" />
    <glyph glyph-name="uni1EC8" unicode="&#x1ec8;" horiz-adv-x="415" 
d="M-4 0l24 118h86l93 462h-86l23 118h318l-24 -118h-86l-93 -462h86l-23 -118h-318zM236 962h146q39 0 58.5 -16.5t19.5 -40.5q0 -32 -15 -56.5t-36 -51.5l-56 -66l-69 34l49 93h-117z" />
    <glyph glyph-name="Imacron" unicode="&#x12a;" horiz-adv-x="415" 
d="M-4 0l24 118h86l93 462h-86l23 118h318l-24 -118h-86l-93 -462h86l-23 -118h-318zM193 887h278l-20 -102h-278z" />
    <glyph glyph-name="Iogonek" unicode="&#x12e;" horiz-adv-x="415" 
d="M20 118h86l93 462h-86l23 118h318l-24 -118h-86l-93 -462h86l-23 -118q-41 -25 -65 -42.5t-36 -30.5t-15 -22t-3 -16q0 -12 7.5 -20.5t27.5 -8.5q16 0 30 5.5t24 21.5l52 -49q-19 -23 -48 -36.5t-77 -13.5q-50 0 -84.5 21t-34.5 62q0 38 32.5 71.5t105.5 53.5l-1 4h-233z
" />
    <glyph glyph-name="Itilde" unicode="&#x128;" horiz-adv-x="415" 
d="M-4 0l24 118h86l93 462h-86l23 118h318l-24 -118h-86l-93 -462h86l-23 -118h-318zM389 761q-22 0 -39 6t-37 15q-19 9 -35.5 15.5t-36.5 6.5q-17 0 -29 -6t-29 -19l-43 69q23 29 51.5 45.5t63.5 16.5q22 0 39 -6t37 -15q19 -9 35.5 -15.5t36.5 -6.5q17 0 29 6t29 19
l43 -69q-23 -29 -51.5 -45.5t-63.5 -16.5z" />
    <glyph glyph-name="IJ" unicode="&#x132;" horiz-adv-x="642" 
d="M654 698l-97 -486q-21 -104 -91.5 -163.5t-181.5 -59.5q-49 0 -89 13.5t-68.5 39t-45 61.5t-17.5 80l138 28q-1 -45 23.5 -68.5t67.5 -23.5q47 0 78.5 24t42.5 78l72 360h-89l24 117h233zM161 698h144l-78 -390h-145z" />
    <glyph glyph-name="Jcircumflex" unicode="&#x134;" horiz-adv-x="536" 
d="M549 698l-102 -508q-18 -91 -75.5 -146t-156.5 -55q-51 0 -88.5 15t-63.5 41t-40 60.5t-18 74.5l139 28q4 -42 18.5 -67.5t52.5 -25.5q31 0 55.5 21t34.5 69l75 375h-203l24 118h348zM485 954l100 -158l-75 -57l-99 115l-134 -115l-70 57l156 158h122z" />
    <glyph glyph-name="Kcommaaccent" unicode="&#x136;" horiz-adv-x="657" 
d="M319 299l-116 -120l-36 -179h-145l140 698h145l-67 -334h7l110 131l188 203h176l-288 -300l163 -398h-160zM286 -42q63 0 63 -51q0 -6 -0.5 -11t-2.5 -16q-5 -23 -14.5 -45.5t-22 -42.5t-28 -37.5t-31.5 -29.5h-83q29 22 47.5 45.5t32.5 53.5q-23 2 -31 14.5t-8 30.5
q0 7 4 27q6 30 25.5 46t48.5 16z" />
    <glyph glyph-name="Lacute" unicode="&#x139;" horiz-adv-x="510" 
d="M22 0l140 698h145l-114 -570h256l-26 -128h-401zM263 739l-84 46l119 190l112 -60z" />
    <glyph glyph-name="Lcaron" unicode="&#x13d;" horiz-adv-x="510" 
d="M22 0l140 698h145l-114 -570h256l-26 -128h-401zM434 525h-97l50 215h156z" />
    <glyph glyph-name="Lcommaaccent" unicode="&#x13b;" horiz-adv-x="510" 
d="M22 0l140 698h145l-114 -570h256l-26 -128h-401zM211 -42q63 0 63 -51q0 -6 -0.5 -11t-2.5 -16q-5 -23 -14.5 -45.5t-22 -42.5t-28 -37.5t-31.5 -29.5h-83q29 22 47.5 45.5t32.5 53.5q-23 2 -31 14.5t-8 30.5q0 7 4 27q6 30 25.5 46t48.5 16z" />
    <glyph glyph-name="Ldot" unicode="&#x13f;" horiz-adv-x="511" 
d="M22 0l140 698h145l-114 -570h256l-26 -128h-401zM418 310q-43 0 -59.5 16.5t-16.5 42.5q0 6 1.5 13.5t5.5 28.5q5 29 25.5 48t68.5 19q43 0 59.5 -16.5t16.5 -42.5q0 -6 -1.5 -13.5t-5.5 -28.5q-5 -29 -25.5 -48t-68.5 -19z" />
    <glyph glyph-name="Lslash" unicode="&#x141;" horiz-adv-x="521" 
d="M429 0h-401l49 246l-80 -23l24 111l78 23l69 341h145l-59 -295l170 51l-22 -113l-171 -50l-32 -163h256z" />
    <glyph glyph-name="Nacute" unicode="&#x143;" horiz-adv-x="700" 
d="M302 336l-42 139h-6l-95 -475h-137l140 698h157l113 -336l42 -139h6l95 475h137l-140 -698h-157zM464 739l-84 46l119 190l112 -60z" />
    <glyph glyph-name="Ncaron" unicode="&#x147;" horiz-adv-x="700" 
d="M302 336l-42 139h-6l-95 -475h-137l140 698h157l113 -336l42 -139h6l95 475h137l-140 -698h-157zM384 748l-101 158l74 57l96 -115l137 115l72 -57l-155 -158h-123z" />
    <glyph glyph-name="Ncommaaccent" unicode="&#x145;" horiz-adv-x="700" 
d="M302 336l-42 139h-6l-95 -475h-137l140 698h157l113 -336l42 -139h6l95 475h137l-140 -698h-157zM286 -42q63 0 63 -51q0 -6 -0.5 -11t-2.5 -16q-5 -23 -14.5 -45.5t-22 -42.5t-28 -37.5t-31.5 -29.5h-83q29 22 47.5 45.5t32.5 53.5q-23 2 -31 14.5t-8 30.5q0 7 4 27
q6 30 25.5 46t48.5 16z" />
    <glyph glyph-name="Ntilde" unicode="&#xd1;" horiz-adv-x="700" 
d="M302 336l-42 139h-6l-95 -475h-137l140 698h157l113 -336l42 -139h6l95 475h137l-140 -698h-157zM530 761q-22 0 -39 6t-37 15q-19 9 -35.5 15.5t-36.5 6.5q-17 0 -29 -6t-29 -19l-43 69q23 29 51.5 45.5t63.5 16.5q22 0 39 -6t37 -15q19 -9 35.5 -15.5t36.5 -6.5
q17 0 29 6t29 19l43 -69q-23 -29 -51.5 -45.5t-63.5 -16.5z" />
    <glyph glyph-name="Eng" unicode="&#x14a;" horiz-adv-x="700" 
d="M22 0l140 698h157l113 -336l42 -139h6l95 475h137l-151 -753q-15 -75 -56.5 -110t-110.5 -35h-76l22 111h81l18 89h-24l-113 336l-42 139h-6l-95 -475h-137z" />
    <glyph glyph-name="Oacute" unicode="&#xd3;" horiz-adv-x="695" 
d="M308 -12q-50 0 -95.5 16.5t-80 51t-55 88t-20.5 127.5q0 90 27 170t75 140t114 94.5t144 34.5q50 0 95.5 -16.5t80 -51t55 -88t20.5 -127.5q0 -90 -27 -170t-75 -140t-114 -94.5t-144 -34.5zM318 117q70 0 115 47t62 132l21 105q3 16 4 28.5t1 23.5q0 128 -114 128
q-70 0 -115 -47t-62 -132l-21 -105q-3 -15 -4 -28t-1 -24q0 -128 114 -128zM467 739l-84 46l119 190l112 -60z" />
    <glyph glyph-name="Obreve" unicode="&#x14e;" horiz-adv-x="695" 
d="M308 -12q-50 0 -95.5 16.5t-80 51t-55 88t-20.5 127.5q0 90 27 170t75 140t114 94.5t144 34.5q50 0 95.5 -16.5t80 -51t55 -88t20.5 -127.5q0 -90 -27 -170t-75 -140t-114 -94.5t-144 -34.5zM318 117q70 0 115 47t62 132l21 105q3 16 4 28.5t1 23.5q0 128 -114 128
q-70 0 -115 -47t-62 -132l-21 -105q-3 -15 -4 -28t-1 -24q0 -128 114 -128zM451 739q-42 0 -71.5 15t-49.5 39t-31.5 54.5t-17.5 61.5l80 42l18 -39q16 -34 32 -53t48 -19q27 0 48.5 18.5t49.5 55.5l28 37l83 -46q-18 -32 -39 -62t-47 -53t-58 -37t-73 -14z" />
    <glyph glyph-name="Ocircumflex" unicode="&#xd4;" horiz-adv-x="695" 
d="M308 -12q-50 0 -95.5 16.5t-80 51t-55 88t-20.5 127.5q0 90 27 170t75 140t114 94.5t144 34.5q50 0 95.5 -16.5t80 -51t55 -88t20.5 -127.5q0 -90 -27 -170t-75 -140t-114 -94.5t-144 -34.5zM318 117q70 0 115 47t62 132l21 105q3 16 4 28.5t1 23.5q0 128 -114 128
q-70 0 -115 -47t-62 -132l-21 -105q-3 -15 -4 -28t-1 -24q0 -128 114 -128zM542 954l100 -158l-75 -57l-99 115l-134 -115l-70 57l156 158h122z" />
    <glyph glyph-name="Odieresis" unicode="&#xd6;" horiz-adv-x="695" 
d="M308 -12q-50 0 -95.5 16.5t-80 51t-55 88t-20.5 127.5q0 90 27 170t75 140t114 94.5t144 34.5q50 0 95.5 -16.5t80 -51t55 -88t20.5 -127.5q0 -90 -27 -170t-75 -140t-114 -94.5t-144 -34.5zM318 117q70 0 115 47t62 132l21 105q3 16 4 28.5t1 23.5q0 128 -114 128
q-70 0 -115 -47t-62 -132l-21 -105q-3 -15 -4 -28t-1 -24q0 -128 114 -128zM353 760q-35 0 -50 14.5t-15 34.5q0 5 1.5 13t4.5 26q5 26 24 44.5t61 18.5q35 0 50 -14.5t15 -34.5q0 -5 -1.5 -13t-4.5 -26q-5 -26 -24 -44.5t-61 -18.5zM553 760q-35 0 -50 14.5t-15 34.5
q0 5 1.5 13t4.5 26q5 26 24 44.5t61 18.5q35 0 50 -14.5t15 -34.5q0 -5 -1.5 -13t-4.5 -26q-5 -26 -24 -44.5t-61 -18.5z" />
    <glyph glyph-name="uni1ECC" unicode="&#x1ecc;" horiz-adv-x="695" 
d="M308 -12q-50 0 -95.5 16.5t-80 51t-55 88t-20.5 127.5q0 90 27 170t75 140t114 94.5t144 34.5q50 0 95.5 -16.5t80 -51t55 -88t20.5 -127.5q0 -90 -27 -170t-75 -140t-114 -94.5t-144 -34.5zM318 117q70 0 115 47t62 132l21 105q3 16 4 28.5t1 23.5q0 128 -114 128
q-70 0 -115 -47t-62 -132l-21 -105q-3 -15 -4 -28t-1 -24q0 -128 114 -128zM265 -202q-38 0 -54 14.5t-16 37.5q0 5 1.5 12.5t4.5 25.5q5 26 23.5 42t60.5 16q37 0 53 -14.5t16 -37.5q0 -5 -1.5 -12.5t-4.5 -25.5q-5 -26 -23.5 -42t-59.5 -16z" />
    <glyph glyph-name="Ograve" unicode="&#xd2;" horiz-adv-x="695" 
d="M308 -12q-50 0 -95.5 16.5t-80 51t-55 88t-20.5 127.5q0 90 27 170t75 140t114 94.5t144 34.5q50 0 95.5 -16.5t80 -51t55 -88t20.5 -127.5q0 -90 -27 -170t-75 -140t-114 -94.5t-144 -34.5zM318 117q70 0 115 47t62 132l21 105q3 16 4 28.5t1 23.5q0 128 -114 128
q-70 0 -115 -47t-62 -132l-21 -105q-3 -15 -4 -28t-1 -24q0 -128 114 -128zM320 916l126 59l68 -196l-89 -39z" />
    <glyph glyph-name="uni1ECE" unicode="&#x1ece;" horiz-adv-x="695" 
d="M308 -12q-50 0 -95.5 16.5t-80 51t-55 88t-20.5 127.5q0 90 27 170t75 140t114 94.5t144 34.5q50 0 95.5 -16.5t80 -51t55 -88t20.5 -127.5q0 -90 -27 -170t-75 -140t-114 -94.5t-144 -34.5zM318 117q70 0 115 47t62 132l21 105q3 16 4 28.5t1 23.5q0 128 -114 128
q-70 0 -115 -47t-62 -132l-21 -105q-3 -15 -4 -28t-1 -24q0 -128 114 -128zM380 962h146q39 0 58.5 -16.5t19.5 -40.5q0 -32 -15 -56.5t-36 -51.5l-56 -66l-69 34l49 93h-117z" />
    <glyph glyph-name="Ohungarumlaut" unicode="&#x150;" horiz-adv-x="695" 
d="M308 -12q-50 0 -95.5 16.5t-80 51t-55 88t-20.5 127.5q0 90 27 170t75 140t114 94.5t144 34.5q50 0 95.5 -16.5t80 -51t55 -88t20.5 -127.5q0 -90 -27 -170t-75 -140t-114 -94.5t-144 -34.5zM318 117q70 0 115 47t62 132l21 105q3 16 4 28.5t1 23.5q0 128 -114 128
q-70 0 -115 -47t-62 -132l-21 -105q-3 -15 -4 -28t-1 -24q0 -128 114 -128zM366 740l-77 38l113 193l105 -56zM561 740l-76 38l113 193l105 -56z" />
    <glyph glyph-name="Omacron" unicode="&#x14c;" horiz-adv-x="695" 
d="M308 -12q-50 0 -95.5 16.5t-80 51t-55 88t-20.5 127.5q0 90 27 170t75 140t114 94.5t144 34.5q50 0 95.5 -16.5t80 -51t55 -88t20.5 -127.5q0 -90 -27 -170t-75 -140t-114 -94.5t-144 -34.5zM318 117q70 0 115 47t62 132l21 105q3 16 4 28.5t1 23.5q0 128 -114 128
q-70 0 -115 -47t-62 -132l-21 -105q-3 -15 -4 -28t-1 -24q0 -128 114 -128zM337 887h278l-20 -102h-278z" />
    <glyph glyph-name="Oslash" unicode="&#xd8;" horiz-adv-x="695" 
d="M308 -12q-42 0 -80 11t-70 34l-79 -93l-77 67l89 104q-16 32 -25 71.5t-9 88.5q0 90 27 170t75 140t114 94.5t144 34.5q42 0 80 -11t70 -34l79 93l77 -67l-89 -104q16 -32 25 -71.5t9 -88.5q0 -90 -27 -170t-75 -140t-114 -94.5t-144 -34.5zM205 296q-3 -15 -5 -29.5
t-2 -26.5v-9t1 -10l289 337q-32 29 -80 29q-72 0 -118 -47t-63 -135zM317 111q72 0 118 47t63 135l22 109q3 15 5 29.5t2 26.5v9t-1 10l-289 -337q32 -29 80 -29z" />
    <glyph glyph-name="Oslashacute" unicode="&#x1fe;" horiz-adv-x="695" 
d="M308 -12q-42 0 -80 11t-70 34l-79 -93l-77 67l89 104q-16 32 -25 71.5t-9 88.5q0 90 27 170t75 140t114 94.5t144 34.5q42 0 80 -11t70 -34l79 93l77 -67l-89 -104q16 -32 25 -71.5t9 -88.5q0 -90 -27 -170t-75 -140t-114 -94.5t-144 -34.5zM205 296q-3 -15 -5 -29.5
t-2 -26.5v-9t1 -10l289 337q-32 29 -80 29q-72 0 -118 -47t-63 -135zM317 111q72 0 118 47t63 135l22 109q3 15 5 29.5t2 26.5v9t-1 10l-289 -337q32 -29 80 -29zM465 739l-84 46l119 190l112 -60z" />
    <glyph glyph-name="Otilde" unicode="&#xd5;" horiz-adv-x="695" 
d="M308 -12q-50 0 -95.5 16.5t-80 51t-55 88t-20.5 127.5q0 90 27 170t75 140t114 94.5t144 34.5q50 0 95.5 -16.5t80 -51t55 -88t20.5 -127.5q0 -90 -27 -170t-75 -140t-114 -94.5t-144 -34.5zM318 117q70 0 115 47t62 132l21 105q3 16 4 28.5t1 23.5q0 128 -114 128
q-70 0 -115 -47t-62 -132l-21 -105q-3 -15 -4 -28t-1 -24q0 -128 114 -128zM533 761q-22 0 -39 6t-37 15q-19 9 -35.5 15.5t-36.5 6.5q-17 0 -29 -6t-29 -19l-43 69q23 29 51.5 45.5t63.5 16.5q22 0 39 -6t37 -15q19 -9 35.5 -15.5t36.5 -6.5q17 0 29 6t29 19l43 -69
q-23 -29 -51.5 -45.5t-63.5 -16.5z" />
    <glyph glyph-name="Ohorn" unicode="&#x1a0;" horiz-adv-x="695" 
d="M769 804l-19 -95q-6 -29 -14.5 -48t-22.5 -30t-34.5 -16t-50.5 -5h-11q23 -34 37 -78.5t14 -104.5q0 -90 -27 -170t-75 -140t-114 -94.5t-144 -34.5q-50 0 -95.5 16.5t-80 51t-55 88t-20.5 127.5q0 90 27 170t75 140t114 94.5t144 34.5q44 0 83 -12h123l21 106h125z
M318 117q70 0 115 47t62 132l21 105q3 16 4 28.5t1 23.5q0 128 -114 128q-70 0 -115 -47t-62 -132l-21 -105q-3 -16 -4 -28.5t-1 -23.5q0 -128 114 -128z" />
    <glyph glyph-name="uni1EDA" unicode="&#x1eda;" horiz-adv-x="695" 
d="M769 804l-19 -95q-6 -29 -14.5 -48t-22.5 -30t-34.5 -16t-50.5 -5h-11q23 -34 37 -78.5t14 -104.5q0 -90 -27 -170t-75 -140t-114 -94.5t-144 -34.5q-50 0 -95.5 16.5t-80 51t-55 88t-20.5 127.5q0 90 27 170t75 140t114 94.5t144 34.5q44 0 83 -12h123l21 106h125z
M318 117q70 0 115 47t62 132l21 105q3 16 4 28.5t1 23.5q0 128 -114 128q-70 0 -115 -47t-62 -132l-21 -105q-3 -16 -4 -28.5t-1 -23.5q0 -128 114 -128zM435 739l-84 46l119 190l112 -60z" />
    <glyph glyph-name="uni1EE2" unicode="&#x1ee2;" horiz-adv-x="695" 
d="M769 804l-19 -95q-6 -29 -14.5 -48t-22.5 -30t-34.5 -16t-50.5 -5h-11q23 -34 37 -78.5t14 -104.5q0 -90 -27 -170t-75 -140t-114 -94.5t-144 -34.5q-50 0 -95.5 16.5t-80 51t-55 88t-20.5 127.5q0 90 27 170t75 140t114 94.5t144 34.5q44 0 83 -12h123l21 106h125z
M318 117q70 0 115 47t62 132l21 105q3 16 4 28.5t1 23.5q0 128 -114 128q-70 0 -115 -47t-62 -132l-21 -105q-3 -16 -4 -28.5t-1 -23.5q0 -128 114 -128zM273 -202q-38 0 -54 14.5t-16 37.5q0 5 1.5 12.5t4.5 25.5q5 26 23.5 42t60.5 16q37 0 53 -14.5t16 -37.5
q0 -5 -1.5 -12.5t-4.5 -25.5q-5 -26 -23.5 -42t-59.5 -16z" />
    <glyph glyph-name="uni1EDC" unicode="&#x1edc;" horiz-adv-x="695" 
d="M769 804l-19 -95q-6 -29 -14.5 -48t-22.5 -30t-34.5 -16t-50.5 -5h-11q23 -34 37 -78.5t14 -104.5q0 -90 -27 -170t-75 -140t-114 -94.5t-144 -34.5q-50 0 -95.5 16.5t-80 51t-55 88t-20.5 127.5q0 90 27 170t75 140t114 94.5t144 34.5q44 0 83 -12h123l21 106h125z
M318 117q70 0 115 47t62 132l21 105q3 16 4 28.5t1 23.5q0 128 -114 128q-70 0 -115 -47t-62 -132l-21 -105q-3 -16 -4 -28.5t-1 -23.5q0 -128 114 -128zM288 916l126 59l68 -196l-89 -39z" />
    <glyph glyph-name="uni1EDE" unicode="&#x1ede;" horiz-adv-x="695" 
d="M769 804l-19 -95q-6 -29 -14.5 -48t-22.5 -30t-34.5 -16t-50.5 -5h-11q23 -34 37 -78.5t14 -104.5q0 -90 -27 -170t-75 -140t-114 -94.5t-144 -34.5q-50 0 -95.5 16.5t-80 51t-55 88t-20.5 127.5q0 90 27 170t75 140t114 94.5t144 34.5q44 0 83 -12h123l21 106h125z
M318 117q70 0 115 47t62 132l21 105q3 16 4 28.5t1 23.5q0 128 -114 128q-70 0 -115 -47t-62 -132l-21 -105q-3 -16 -4 -28.5t-1 -23.5q0 -128 114 -128zM348 962h146q39 0 58.5 -16.5t19.5 -40.5q0 -32 -15 -56.5t-36 -51.5l-56 -66l-69 34l49 93h-117z" />
    <glyph glyph-name="uni1EE0" unicode="&#x1ee0;" horiz-adv-x="695" 
d="M769 804l-19 -95q-6 -29 -14.5 -48t-22.5 -30t-34.5 -16t-50.5 -5h-11q23 -34 37 -78.5t14 -104.5q0 -90 -27 -170t-75 -140t-114 -94.5t-144 -34.5q-50 0 -95.5 16.5t-80 51t-55 88t-20.5 127.5q0 90 27 170t75 140t114 94.5t144 34.5q44 0 83 -12h123l21 106h125z
M318 117q70 0 115 47t62 132l21 105q3 16 4 28.5t1 23.5q0 128 -114 128q-70 0 -115 -47t-62 -132l-21 -105q-3 -16 -4 -28.5t-1 -23.5q0 -128 114 -128zM491 762q-20 0 -34.5 6.5t-30.5 15.5q-17 9 -31.5 15.5t-29.5 6.5q-12 0 -23 -5.5t-25 -17.5l-42 65q17 28 44.5 45
t58.5 17q20 0 34.5 -6.5t30.5 -15.5q17 -9 31.5 -15.5t29.5 -6.5q12 0 23 5.5t25 17.5l42 -65q-17 -28 -44.5 -45t-58.5 -17z" />
    <glyph glyph-name="uni1ED0" unicode="&#x1ed0;" horiz-adv-x="695" 
d="M308 -12q-50 0 -95.5 16.5t-80 51t-55 88t-20.5 127.5q0 90 27 170t75 140t114 94.5t144 34.5q50 0 95.5 -16.5t80 -51t55 -88t20.5 -127.5q0 -90 -27 -170t-75 -140t-114 -94.5t-144 -34.5zM318 117q70 0 115 47t62 132l21 105q3 16 4 28.5t1 23.5q0 128 -114 128
q-70 0 -115 -47t-62 -132l-21 -105q-3 -15 -4 -28t-1 -24q0 -128 114 -128zM646 895l-76 40l104 190l108 -55zM526 940l113 -146l-71 -63l-103 104l-135 -104l-65 63l171 146h90z" />
    <glyph glyph-name="uni1ED8" unicode="&#x1ed8;" horiz-adv-x="695" 
d="M308 -12q-50 0 -95.5 16.5t-80 51t-55 88t-20.5 127.5q0 90 27 170t75 140t114 94.5t144 34.5q50 0 95.5 -16.5t80 -51t55 -88t20.5 -127.5q0 -90 -27 -170t-75 -140t-114 -94.5t-144 -34.5zM318 117q70 0 115 47t62 132l21 105q3 16 4 28.5t1 23.5q0 128 -114 128
q-70 0 -115 -47t-62 -132l-21 -105q-3 -15 -4 -28t-1 -24q0 -128 114 -128zM542 954l100 -158l-75 -57l-99 115l-134 -115l-70 57l156 158h122zM265 -202q-38 0 -54 14.5t-16 37.5q0 5 1.5 12.5t4.5 25.5q5 26 23.5 42t60.5 16q37 0 53 -14.5t16 -37.5q0 -5 -1.5 -12.5
t-4.5 -25.5q-5 -26 -23.5 -42t-59.5 -16z" />
    <glyph glyph-name="uni1ED2" unicode="&#x1ed2;" horiz-adv-x="695" 
d="M308 -12q-50 0 -95.5 16.5t-80 51t-55 88t-20.5 127.5q0 90 27 170t75 140t114 94.5t144 34.5q50 0 95.5 -16.5t80 -51t55 -88t20.5 -127.5q0 -90 -27 -170t-75 -140t-114 -94.5t-144 -34.5zM318 117q70 0 115 47t62 132l21 105q3 16 4 28.5t1 23.5q0 128 -114 128
q-70 0 -115 -47t-62 -132l-21 -105q-3 -15 -4 -28t-1 -24q0 -128 114 -128zM193 1070l112 55l73 -193l-73 -38zM525 940l113 -146l-71 -63l-103 104l-135 -104l-65 63l171 146h90z" />
    <glyph glyph-name="uni1ED4" unicode="&#x1ed4;" horiz-adv-x="695" 
d="M308 -12q-50 0 -95.5 16.5t-80 51t-55 88t-20.5 127.5q0 90 27 170t75 140t114 94.5t144 34.5q50 0 95.5 -16.5t80 -51t55 -88t20.5 -127.5q0 -90 -27 -170t-75 -140t-114 -94.5t-144 -34.5zM318 117q70 0 115 47t62 132l21 105q3 16 4 28.5t1 23.5q0 128 -114 128
q-70 0 -115 -47t-62 -132l-21 -105q-3 -15 -4 -28t-1 -24q0 -128 114 -128zM543 1112h135q39 0 57.5 -16.5t18.5 -40.5q0 -32 -14 -56.5t-36 -51.5l-57 -66l-68 34l52 96h-108zM525 940l113 -146l-71 -63l-103 104l-135 -104l-65 63l171 146h90z" />
    <glyph glyph-name="uni1ED6" unicode="&#x1ed6;" horiz-adv-x="695" 
d="M308 -12q-50 0 -95.5 16.5t-80 51t-55 88t-20.5 127.5q0 90 27 170t75 140t114 94.5t144 34.5q50 0 95.5 -16.5t80 -51t55 -88t20.5 -127.5q0 -90 -27 -170t-75 -140t-114 -94.5t-144 -34.5zM318 117q70 0 115 47t62 132l21 105q3 16 4 28.5t1 23.5q0 128 -114 128
q-70 0 -115 -47t-62 -132l-21 -105q-3 -15 -4 -28t-1 -24q0 -128 114 -128zM447 1101q19 0 33 -6t31 -14q20 -10 35 -16t32 -6q14 0 27 6t30 19l35 -65q-23 -26 -53 -44t-66 -18q-19 0 -33 6t-31 14q-20 10 -35 16t-32 6q-14 0 -27 -6t-30 -19l-35 65q23 26 53 44t66 18z
M523 928l115 -134l-72 -63l-103 104l-135 -104l-64 63l168 134h91z" />
    <glyph glyph-name="OE" unicode="&#x152;" horiz-adv-x="957" 
d="M405 0q-26 -6 -52.5 -9t-50.5 -3q-52 0 -97 17.5t-78 54t-51.5 92.5t-18.5 133q0 91 27.5 169t76.5 135t115 89t143 32q29 0 63.5 -3t64.5 -9h443l-26 -128h-303l-31 -153h268l-26 -128h-268l-32 -161h314l-26 -128h-455zM334 117q19 0 44.5 3t48.5 10l88 437
q-20 6 -49 10t-52 4q-80 0 -123.5 -48.5t-59.5 -130.5l-21 -105q-2 -13 -3.5 -24t-1.5 -25q0 -60 31 -95.5t98 -35.5z" />
    <glyph glyph-name="Racute" unicode="&#x154;" horiz-adv-x="655" 
d="M167 0h-145l140 698h272q100 0 155.5 -47t55.5 -133q0 -39 -11 -76.5t-33 -70t-53.5 -57t-73.5 -38.5l84 -276h-155l-69 259h-115zM393 383q34 0 58.5 18t32.5 55q5 23 8 37.5t3 22.5q0 23 -15.5 38.5t-48.5 15.5h-150l-37 -187h149zM415 739l-84 46l119 190l112 -60z
" />
    <glyph glyph-name="Rcaron" unicode="&#x158;" horiz-adv-x="655" 
d="M167 0h-145l140 698h272q100 0 155.5 -47t55.5 -133q0 -39 -11 -76.5t-33 -70t-53.5 -57t-73.5 -38.5l84 -276h-155l-69 259h-115zM393 383q34 0 58.5 18t32.5 55q5 23 8 37.5t3 22.5q0 23 -15.5 38.5t-48.5 15.5h-150l-37 -187h149zM335 748l-101 158l74 57l96 -115
l137 115l72 -57l-155 -158h-123z" />
    <glyph glyph-name="Rcommaaccent" unicode="&#x156;" horiz-adv-x="655" 
d="M167 0h-145l140 698h272q100 0 155.5 -47t55.5 -133q0 -39 -11 -76.5t-33 -70t-53.5 -57t-73.5 -38.5l84 -276h-155l-69 259h-115zM393 383q34 0 58.5 18t32.5 55q5 23 8 37.5t3 22.5q0 23 -15.5 38.5t-48.5 15.5h-150l-37 -187h149zM273 -42q63 0 63 -51q0 -6 -0.5 -11
t-2.5 -16q-5 -23 -14.5 -45.5t-22 -42.5t-28 -37.5t-31.5 -29.5h-83q29 22 47.5 45.5t32.5 53.5q-23 2 -31 14.5t-8 30.5q0 7 4 27q6 30 25.5 46t48.5 16z" />
    <glyph glyph-name="Sacute" unicode="&#x15a;" horiz-adv-x="586" 
d="M255 -12q-87 0 -154.5 28t-105.5 96l111 87q26 -42 60.5 -62t88.5 -20q63 0 98 28t35 72q0 32 -23 48t-57 24l-46 10q-38 8 -69 22.5t-53 37t-33.5 53.5t-11.5 73q0 48 19.5 89t54.5 71t85 47.5t110 17.5q78 0 140.5 -24.5t98.5 -72.5l-105 -94q-24 33 -55.5 47.5
t-84.5 14.5q-54 0 -85.5 -23t-31.5 -60q0 -30 19.5 -45t55.5 -23l44 -10q40 -9 73 -24t56 -37.5t36 -53.5t13 -72q0 -45 -19.5 -89t-56 -78.5t-89 -56t-118.5 -21.5zM383 739l-84 46l119 190l112 -60z" />
    <glyph glyph-name="Scaron" unicode="&#x160;" horiz-adv-x="586" 
d="M255 -12q-87 0 -154.5 28t-105.5 96l111 87q26 -42 60.5 -62t88.5 -20q63 0 98 28t35 72q0 32 -23 48t-57 24l-46 10q-38 8 -69 22.5t-53 37t-33.5 53.5t-11.5 73q0 48 19.5 89t54.5 71t85 47.5t110 17.5q78 0 140.5 -24.5t98.5 -72.5l-105 -94q-24 33 -55.5 47.5
t-84.5 14.5q-54 0 -85.5 -23t-31.5 -60q0 -30 19.5 -45t55.5 -23l44 -10q40 -9 73 -24t56 -37.5t36 -53.5t13 -72q0 -45 -19.5 -89t-56 -78.5t-89 -56t-118.5 -21.5zM303 748l-101 158l74 57l96 -115l137 115l72 -57l-155 -158h-123z" />
    <glyph glyph-name="Scedilla" unicode="&#x15e;" horiz-adv-x="586" 
d="M358 581q-54 0 -85.5 -23t-31.5 -60q0 -30 19.5 -45t55.5 -23l44 -10q40 -9 73 -24t56 -37.5t36 -53.5t13 -72q0 -43 -17.5 -85t-51 -76t-82 -56.5t-109.5 -26.5l-18 -44l2 -4q22 7 43 7q26 0 44 -15t18 -41t-11.5 -45.5t-31 -32.5t-45.5 -19.5t-56 -6.5q-42 0 -70 13.5
t-41 32.5l52 52q6 -9 21 -18.5t37 -9.5q21 0 35.5 7t14.5 24q0 12 -14 22t-52 14l-22 2l27 63q-72 6 -127.5 34t-88.5 88l111 87q26 -42 60.5 -62t88.5 -20q63 0 98 28t35 72q0 32 -23 48t-57 24l-46 10q-38 8 -69 22.5t-53 37t-33.5 53.5t-11.5 73q0 48 19.5 89t54.5 71
t85 47.5t110 17.5q78 0 140.5 -24.5t98.5 -72.5l-105 -94q-24 33 -55.5 47.5t-84.5 14.5z" />
    <glyph glyph-name="Scircumflex" unicode="&#x15c;" horiz-adv-x="586" 
d="M255 -12q-87 0 -154.5 28t-105.5 96l111 87q26 -42 60.5 -62t88.5 -20q63 0 98 28t35 72q0 32 -23 48t-57 24l-46 10q-38 8 -69 22.5t-53 37t-33.5 53.5t-11.5 73q0 48 19.5 89t54.5 71t85 47.5t110 17.5q78 0 140.5 -24.5t98.5 -72.5l-105 -94q-24 33 -55.5 47.5
t-84.5 14.5q-54 0 -85.5 -23t-31.5 -60q0 -30 19.5 -45t55.5 -23l44 -10q40 -9 73 -24t56 -37.5t36 -53.5t13 -72q0 -45 -19.5 -89t-56 -78.5t-89 -56t-118.5 -21.5zM458 954l100 -158l-75 -57l-99 115l-134 -115l-70 57l156 158h122z" />
    <glyph glyph-name="Scommaaccent" unicode="&#x218;" horiz-adv-x="586" 
d="M255 -12q-87 0 -154.5 28t-105.5 96l111 87q26 -42 60.5 -62t88.5 -20q63 0 98 28t35 72q0 32 -23 48t-57 24l-46 10q-38 8 -69 22.5t-53 37t-33.5 53.5t-11.5 73q0 48 19.5 89t54.5 71t85 47.5t110 17.5q78 0 140.5 -24.5t98.5 -72.5l-105 -94q-24 33 -55.5 47.5
t-84.5 14.5q-54 0 -85.5 -23t-31.5 -60q0 -30 19.5 -45t55.5 -23l44 -10q40 -9 73 -24t56 -37.5t36 -53.5t13 -72q0 -45 -19.5 -89t-56 -78.5t-89 -56t-118.5 -21.5zM236 -42q63 0 63 -51q0 -6 -0.5 -11t-2.5 -16q-5 -23 -14.5 -45.5t-22 -42.5t-28 -37.5t-31.5 -29.5h-83
q29 22 47.5 45.5t32.5 53.5q-23 2 -31 14.5t-8 30.5q0 7 4 27q6 30 25.5 46t48.5 16z" />
    <glyph glyph-name="uni1E9E" unicode="&#x1e9e;" horiz-adv-x="724" 
d="M429 110q40 0 64 22.5t32 56.5q5 21 7 33t2 19q0 26 -15.5 43.5t-57.5 17.5h-106l23 117l161 151h-258l-114 -570h-145l140 698h553l-28 -139l-153 -144l-1 -5q28 -2 55 -13.5t47 -32.5t32.5 -51t12.5 -69q0 -46 -16.5 -91.5t-49 -82t-80.5 -59.5t-111 -23q-40 0 -70.5 7
t-53.5 19t-39 29t-28 37l108 84q16 -25 36 -39.5t53 -14.5z" />
    <glyph glyph-name="Tbar" unicode="&#x166;" horiz-adv-x="569" 
d="M361 280l-56 -280h-145l56 280h-141l22 106h141l36 184h-184l26 128h513l-26 -128h-184l-36 -184h142l-22 -106h-142z" />
    <glyph glyph-name="Tcaron" unicode="&#x164;" horiz-adv-x="569" 
d="M418 570l-114 -570h-145l114 570h-184l26 128h513l-26 -128h-184zM319 748l-101 158l74 57l96 -115l137 115l72 -57l-155 -158h-123z" />
    <glyph glyph-name="uni021A" unicode="&#x21a;" horiz-adv-x="569" 
d="M418 570l-114 -570h-145l114 570h-184l26 128h513l-26 -128h-184zM220 -42q63 0 63 -51q0 -6 -0.5 -11t-2.5 -16q-5 -23 -14.5 -45.5t-22 -42.5t-28 -37.5t-31.5 -29.5h-83q29 22 47.5 45.5t32.5 53.5q-23 2 -31 14.5t-8 30.5q0 7 4 27q6 30 25.5 46t48.5 16z" />
    <glyph glyph-name="uni0162" unicode="&#x162;" horiz-adv-x="569" 
d="M418 570l-114 -570h-145l114 570h-184l26 128h513l-26 -128h-184zM220 -42q63 0 63 -51q0 -6 -0.5 -11t-2.5 -16q-5 -23 -14.5 -45.5t-22 -42.5t-28 -37.5t-31.5 -29.5h-83q29 22 47.5 45.5t32.5 53.5q-23 2 -31 14.5t-8 30.5q0 7 4 27q6 30 25.5 46t48.5 16z" />
    <glyph glyph-name="Thorn" unicode="&#xde;" horiz-adv-x="634" 
d="M22 0l140 698h145l-24 -121h120q105 0 162.5 -49t57.5 -138q0 -57 -20 -104.5t-56 -81t-86 -52t-109 -18.5h-159l-25 -134h-146zM220 262h150q34 0 58.5 17.5t32.5 52.5q7 28 9.5 41.5t2.5 21.5q0 23 -15.5 38.5t-49.5 15.5h-152z" />
    <glyph glyph-name="Uacute" unicode="&#xda;" horiz-adv-x="678" 
d="M303 698l-84 -418q-3 -14 -5 -31.5t-2 -31.5q0 -100 102 -100q60 0 95 36t51 114l87 431h143l-85 -423q-15 -74 -38.5 -128t-59.5 -89t-85 -52.5t-114 -17.5q-115 0 -175.5 57t-60.5 169q0 20 2 41.5t7 47.5l79 395h143zM449 739l-84 46l119 190l112 -60z" />
    <glyph glyph-name="Ubreve" unicode="&#x16c;" horiz-adv-x="678" 
d="M303 698l-84 -418q-3 -14 -5 -31.5t-2 -31.5q0 -100 102 -100q60 0 95 36t51 114l87 431h143l-85 -423q-15 -74 -38.5 -128t-59.5 -89t-85 -52.5t-114 -17.5q-115 0 -175.5 57t-60.5 169q0 20 2 41.5t7 47.5l79 395h143zM433 739q-42 0 -71.5 15t-49.5 39t-31.5 54.5
t-17.5 61.5l80 42l18 -39q16 -34 32 -53t48 -19q27 0 48.5 18.5t49.5 55.5l28 37l83 -46q-18 -32 -39 -62t-47 -53t-58 -37t-73 -14z" />
    <glyph glyph-name="Ucircumflex" unicode="&#xdb;" horiz-adv-x="678" 
d="M303 698l-84 -418q-3 -14 -5 -31.5t-2 -31.5q0 -100 102 -100q60 0 95 36t51 114l87 431h143l-85 -423q-15 -74 -38.5 -128t-59.5 -89t-85 -52.5t-114 -17.5q-115 0 -175.5 57t-60.5 169q0 20 2 41.5t7 47.5l79 395h143zM524 954l100 -158l-75 -57l-99 115l-134 -115
l-70 57l156 158h122z" />
    <glyph glyph-name="Udieresis" unicode="&#xdc;" horiz-adv-x="678" 
d="M303 698l-84 -418q-3 -14 -5 -31.5t-2 -31.5q0 -100 102 -100q60 0 95 36t51 114l87 431h143l-85 -423q-15 -74 -38.5 -128t-59.5 -89t-85 -52.5t-114 -17.5q-115 0 -175.5 57t-60.5 169q0 20 2 41.5t7 47.5l79 395h143zM335 760q-35 0 -50 14.5t-15 34.5q0 5 1.5 13
t4.5 26q5 26 24 44.5t61 18.5q35 0 50 -14.5t15 -34.5q0 -5 -1.5 -13t-4.5 -26q-5 -26 -24 -44.5t-61 -18.5zM535 760q-35 0 -50 14.5t-15 34.5q0 5 1.5 13t4.5 26q5 26 24 44.5t61 18.5q35 0 50 -14.5t15 -34.5q0 -5 -1.5 -13t-4.5 -26q-5 -26 -24 -44.5t-61 -18.5z" />
    <glyph glyph-name="uni1EE4" unicode="&#x1ee4;" horiz-adv-x="678" 
d="M303 698l-84 -418q-3 -14 -5 -31.5t-2 -31.5q0 -100 102 -100q60 0 95 36t51 114l87 431h143l-85 -423q-15 -74 -38.5 -128t-59.5 -89t-85 -52.5t-114 -17.5q-115 0 -175.5 57t-60.5 169q0 20 2 41.5t7 47.5l79 395h143zM249 -202q-38 0 -54 14.5t-16 37.5q0 5 1.5 12.5
t4.5 25.5q5 26 23.5 42t60.5 16q37 0 53 -14.5t16 -37.5q0 -5 -1.5 -12.5t-4.5 -25.5q-5 -26 -23.5 -42t-59.5 -16z" />
    <glyph glyph-name="Ugrave" unicode="&#xd9;" horiz-adv-x="678" 
d="M303 698l-84 -418q-3 -14 -5 -31.5t-2 -31.5q0 -100 102 -100q60 0 95 36t51 114l87 431h143l-85 -423q-15 -74 -38.5 -128t-59.5 -89t-85 -52.5t-114 -17.5q-115 0 -175.5 57t-60.5 169q0 20 2 41.5t7 47.5l79 395h143zM302 916l126 59l68 -196l-89 -39z" />
    <glyph glyph-name="uni1EE6" unicode="&#x1ee6;" horiz-adv-x="678" 
d="M303 698l-84 -418q-3 -14 -5 -31.5t-2 -31.5q0 -100 102 -100q60 0 95 36t51 114l87 431h143l-85 -423q-15 -74 -38.5 -128t-59.5 -89t-85 -52.5t-114 -17.5q-115 0 -175.5 57t-60.5 169q0 20 2 41.5t7 47.5l79 395h143zM362 962h146q39 0 58.5 -16.5t19.5 -40.5
q0 -32 -15 -56.5t-36 -51.5l-56 -66l-69 34l49 93h-117z" />
    <glyph glyph-name="Uhungarumlaut" unicode="&#x170;" horiz-adv-x="678" 
d="M303 698l-84 -418q-3 -14 -5 -31.5t-2 -31.5q0 -100 102 -100q60 0 95 36t51 114l87 431h143l-85 -423q-15 -74 -38.5 -128t-59.5 -89t-85 -52.5t-114 -17.5q-115 0 -175.5 57t-60.5 169q0 20 2 41.5t7 47.5l79 395h143zM348 740l-77 38l113 193l105 -56zM543 740l-76 38
l113 193l105 -56z" />
    <glyph glyph-name="Umacron" unicode="&#x16a;" horiz-adv-x="678" 
d="M303 698l-84 -418q-3 -14 -5 -31.5t-2 -31.5q0 -100 102 -100q60 0 95 36t51 114l87 431h143l-85 -423q-15 -74 -38.5 -128t-59.5 -89t-85 -52.5t-114 -17.5q-115 0 -175.5 57t-60.5 169q0 20 2 41.5t7 47.5l79 395h143zM319 887h278l-20 -102h-278z" />
    <glyph glyph-name="Uogonek" unicode="&#x172;" horiz-adv-x="678" 
d="M303 698l-84 -418q-3 -14 -5 -31.5t-2 -31.5q0 -100 102 -100q60 0 95 36t51 114l87 431h143l-85 -423q-15 -74 -34 -119.5t-44.5 -75.5t-58.5 -49.5t-75 -40.5q-34 -16 -55.5 -31t-33.5 -28t-16.5 -24t-4.5 -18q0 -12 7.5 -20.5t27.5 -8.5q16 0 30 5.5t24 21.5l52 -49
q-19 -23 -48 -36.5t-77 -13.5q-50 0 -84.5 21t-34.5 62q0 34 26.5 65t86.5 48l-1 4q-107 4 -163.5 60.5t-56.5 165.5q0 20 2 41.5t7 47.5l79 395h143z" />
    <glyph glyph-name="Uring" unicode="&#x16e;" horiz-adv-x="678" 
d="M303 698l-84 -418q-3 -14 -5 -31.5t-2 -31.5q0 -100 102 -100q60 0 95 36t51 114l87 431h143l-85 -423q-15 -74 -38.5 -128t-59.5 -89t-85 -52.5t-114 -17.5q-115 0 -175.5 57t-60.5 169q0 20 2 41.5t7 47.5l79 395h143zM426 719q-56 0 -92 34.5t-36 87.5q0 37 13.5 67.5
t36 52t52.5 33t63 11.5q56 0 92 -34.5t36 -87.5q0 -38 -13.5 -68t-36 -51.5t-52.5 -33t-63 -11.5zM432 793q23 0 38 14t20 38l6 28.5t2 18.5q0 39 -41 39q-23 0 -38 -14t-20 -38l-6 -28.5t-2 -18.5q0 -39 41 -39z" />
    <glyph glyph-name="Utilde" unicode="&#x168;" horiz-adv-x="678" 
d="M303 698l-84 -418q-3 -14 -5 -31.5t-2 -31.5q0 -100 102 -100q60 0 95 36t51 114l87 431h143l-85 -423q-15 -74 -38.5 -128t-59.5 -89t-85 -52.5t-114 -17.5q-115 0 -175.5 57t-60.5 169q0 20 2 41.5t7 47.5l79 395h143zM515 761q-22 0 -39 6t-37 15q-19 9 -35.5 15.5
t-36.5 6.5q-17 0 -29 -6t-29 -19l-43 69q23 29 51.5 45.5t63.5 16.5q22 0 39 -6t37 -15q19 -9 35.5 -15.5t36.5 -6.5q17 0 29 6t29 19l43 -69q-23 -29 -51.5 -45.5t-63.5 -16.5z" />
    <glyph glyph-name="Uhorn" unicode="&#x1af;" horiz-adv-x="678" 
d="M303 698l-84 -418q-3 -14 -5 -31.5t-2 -31.5q0 -100 102 -100q60 0 95 36t51 114l87 431h83l21 106h125l-19 -96q-9 -48 -31 -71.5t-53 -23.5l-68 -338q-15 -74 -38.5 -128t-59.5 -89t-85 -52.5t-114 -17.5q-115 0 -175.5 57t-60.5 169q0 20 2 41.5t7 47.5l79 395h143z
" />
    <glyph glyph-name="uni1EE8" unicode="&#x1ee8;" horiz-adv-x="678" 
d="M303 698l-84 -418q-3 -14 -5 -31.5t-2 -31.5q0 -100 102 -100q60 0 95 36t51 114l87 431h83l21 106h125l-19 -96q-9 -48 -31 -71.5t-53 -23.5l-68 -338q-15 -74 -38.5 -128t-59.5 -89t-85 -52.5t-114 -17.5q-115 0 -175.5 57t-60.5 169q0 20 2 41.5t7 47.5l79 395h143z
M441 739l-84 46l119 190l112 -60z" />
    <glyph glyph-name="uni1EF0" unicode="&#x1ef0;" horiz-adv-x="678" 
d="M303 698l-84 -418q-3 -14 -5 -31.5t-2 -31.5q0 -100 102 -100q60 0 95 36t51 114l87 431h83l21 106h125l-19 -96q-9 -48 -31 -71.5t-53 -23.5l-68 -338q-15 -74 -38.5 -128t-59.5 -89t-85 -52.5t-114 -17.5q-115 0 -175.5 57t-60.5 169q0 20 2 41.5t7 47.5l79 395h143z
M248 -202q-38 0 -54 14.5t-16 37.5q0 5 1.5 12.5t4.5 25.5q5 26 23.5 42t60.5 16q37 0 53 -14.5t16 -37.5q0 -5 -1.5 -12.5t-4.5 -25.5q-5 -26 -23.5 -42t-59.5 -16z" />
    <glyph glyph-name="uni1EEA" unicode="&#x1eea;" horiz-adv-x="678" 
d="M303 698l-84 -418q-3 -14 -5 -31.5t-2 -31.5q0 -100 102 -100q60 0 95 36t51 114l87 431h83l21 106h125l-19 -96q-9 -48 -31 -71.5t-53 -23.5l-68 -338q-15 -74 -38.5 -128t-59.5 -89t-85 -52.5t-114 -17.5q-115 0 -175.5 57t-60.5 169q0 20 2 41.5t7 47.5l79 395h143z
M294 916l126 59l68 -196l-89 -39z" />
    <glyph glyph-name="uni1EEC" unicode="&#x1eec;" horiz-adv-x="678" 
d="M303 698l-84 -418q-3 -14 -5 -31.5t-2 -31.5q0 -100 102 -100q60 0 95 36t51 114l87 431h83l21 106h125l-19 -96q-9 -48 -31 -71.5t-53 -23.5l-68 -338q-15 -74 -38.5 -128t-59.5 -89t-85 -52.5t-114 -17.5q-115 0 -175.5 57t-60.5 169q0 20 2 41.5t7 47.5l79 395h143z
M354 962h146q39 0 58.5 -16.5t19.5 -40.5q0 -32 -15 -56.5t-36 -51.5l-56 -66l-69 34l49 93h-117z" />
    </font>
</defs>
</svg>
